<?xml version="1.0" encoding="UTF-8" standalone="no"?>
<!-- Created with Inkscape (http://www.inkscape.org/) -->

<svg
   version="1.1"
   id="svg2"
   width="137.33333"
   height="156"
   viewBox="0 0 137.33333 156"
   sodipodi:docname="АВС-электро лого с обводкой.eps"
   xmlns:inkscape="http://www.inkscape.org/namespaces/inkscape"
   xmlns:sodipodi="http://sodipodi.sourceforge.net/DTD/sodipodi-0.dtd"
   xmlns="http://www.w3.org/2000/svg"
   xmlns:svg="http://www.w3.org/2000/svg">
  <defs
     id="defs6" />
  <sodipodi:namedview
     id="namedview4"
     pagecolor="#ffffff"
     bordercolor="#000000"
     borderopacity="0.25"
     inkscape:showpageshadow="2"
     inkscape:pageopacity="0.0"
     inkscape:pagecheckerboard="0"
     inkscape:deskcolor="#d1d1d1" />
  <g
     id="g8"
     inkscape:groupmode="layer"
     inkscape:label="ink_ext_XXXXXX"
     transform="matrix(1.3333333,0,0,-1.3333333,0,156)">
    <g
       id="g10"
       transform="scale(0.1)">
      <path
         d="M 1010.38,1152.82 V 18.957 H 22.3789 V 1152.82 H 1010.38"
         style="fill:#231f20;fill-opacity:1;fill-rule:evenodd;stroke:none"
         id="path12" />
      <path
         d="M 1010.38,1152.82 V 18.957 H 22.3789 V 1152.82 Z"
         style="fill:none;stroke:#231f20;stroke-width:28.3465;stroke-linecap:butt;stroke-linejoin:miter;stroke-miterlimit:22.9256;stroke-dasharray:none;stroke-opacity:1"
         id="path14" />
      <path
         d="M 1012.45,1155.18 V 16.5938 H 20.3164 V 1155.18 H 1012.45"
         style="fill:#ffffff;fill-opacity:1;fill-rule:evenodd;stroke:none"
         id="path16" />
      <path
         d="M 67.9102,1107.58 H 964.852 V 210.629 H 67.9102 v 896.951"
         style="fill:#ed1c24;fill-opacity:1;fill-rule:evenodd;stroke:none"
         id="path18" />
      <path
         d="m 131.977,277.664 97.132,207.793 H 322 L 418.746,277.664 H 336.824 L 322,313.508 h -92.891 l -15.211,-35.844 z m 143.605,158.219 -31.207,-76.621 h 62.367 z m 164.145,49.574 h 132.195 c 32.18,0 53.781,-5.57 64.851,-16.699 11.067,-11.133 16.625,-23.192 16.625,-36.102 0,-10.39 -4.046,-19.406 -12.187,-27.086 -8.145,-7.644 -18.191,-13.062 -30.231,-16.254 v -0.593 c 13.844,-2.41 26.961,-7.723 39.297,-15.918 12.34,-8.239 18.485,-20.633 18.485,-37.215 0,-10.242 -3.172,-19.777 -9.512,-28.574 -6.391,-8.793 -16.281,-15.879 -29.742,-21.262 -13.457,-5.379 -30.184,-8.09 -50.125,-8.09 H 439.727 Z m 76.457,-81.891 h 31.988 c 13.41,0 22.582,1.965 27.601,5.899 4.973,3.93 7.461,8.5 7.461,13.656 0,6.156 -2.777,11.168 -8.39,15.027 -5.555,3.856 -14.481,5.786 -26.672,5.786 h -31.988 z m 0,-84.378 h 35.16 c 27.304,0 40.957,7.347 40.957,22.074 0,9.019 -4.094,14.734 -12.238,17.144 -8.141,2.41 -17.75,3.637 -28.719,3.637 h -35.16 z m 384.601,-32.024 c -19.847,-10.277 -44.426,-15.434 -73.828,-15.434 -19.992,0 -38.57,2.594 -55.781,7.829 -17.215,5.23 -32.086,12.652 -44.52,22.3 -12.48,9.61 -22.136,21.258 -29.015,34.875 -6.875,13.621 -10.289,28.575 -10.289,44.864 0,16.961 3.66,32.281 10.921,45.937 7.27,13.692 17.313,25.27 30.235,34.805 12.875,9.5 27.699,16.73 44.422,21.668 16.726,4.937 34.375,7.383 52.906,7.383 13.019,0 26.039,-1.336 39.012,-4.043 13.019,-2.707 25.011,-6.903 35.937,-12.539 v -60.336 c -18.824,16.625 -40.379,24.933 -64.758,24.933 -13.656,0 -25.843,-2.558 -36.472,-7.718 -10.676,-5.157 -18.918,-12.247 -24.723,-21.333 -5.801,-9.093 -8.727,-19.257 -8.727,-30.574 0,-10.578 2.825,-20.113 8.485,-28.609 5.652,-8.496 13.75,-15.211 24.281,-20.109 10.531,-4.899 22.922,-7.348 37.156,-7.348 23.797,0 45.395,7.492 64.758,22.523 v -59.074"
         style="fill:#ffffff;fill-opacity:1;fill-rule:evenodd;stroke:none"
         id="path20" />
      <path
         d="m 92.5547,117.262 h 43.8283 c -1.371,4.929 -5.305,8.91 -11.805,11.937 -6.48,3.039 -14.156,4.555 -23.004,4.555 -6.0154,0 -11.906,-0.668 -17.699,-1.988 -5.7695,-1.321 -11.0977,-3.313 -15.9648,-5.953 v 20.41 c 3.789,1.246 7.9453,2.3 12.4921,3.191 4.5235,0.887 9.0196,1.555 13.4454,1.988 4.3984,0.434 8.6793,0.653 12.7853,0.653 9.781,0 18.82,-1.055 27.129,-3.149 8.34,-2.09 15.551,-5.058 21.66,-8.89 6.109,-3.813 10.855,-8.356 14.207,-13.606 3.348,-5.242 5.035,-10.941 5.035,-17.09 0,-7.285 -1.859,-13.7653 -5.601,-19.4567 -3.715,-5.668 -8.797,-10.418 -15.25,-14.2305 -6.481,-3.8008 -13.79,-6.668 -21.926,-8.5781 -8.145,-1.918 -16.625,-2.8672 -25.449,-2.8672 -9.145,0 -16.8911,0.625 -23.27,1.8711 -6.3828,1.2461 -11.4688,2.5234 -15.2578,3.8437 V 90.668 c 10,-5.4492 21.7812,-8.1797 35.3708,-8.1797 7.016,0 13.032,0.8437 18.094,2.5273 5.059,1.6719 8.969,3.8985 11.684,6.6641 2.711,2.7578 4.277,5.7578 4.64,8.9763 H 92.5547 Z M 211.754,149.68 H 315.84 V 66.5625 H 277.516 V 129.73 h -27.43 V 96.9727 c 0,-4.0821 -0.441,-7.7618 -1.32,-11.0586 -0.879,-3.293 -2.883,-6.5118 -6.086,-9.6602 -3.18,-3.1601 -8.192,-5.7266 -15.059,-7.7461 -6.844,-2.0078 -15.918,-3.0117 -27.18,-3.0117 -6.168,0 -11.519,0.3555 -16.039,1.0664 v 19.9609 c 3.547,-0.5625 6.332,-0.8476 8.407,-0.8476 5.402,0 9.488,0.6719 12.226,2.0234 2.735,1.336 4.52,3.2774 5.399,5.8164 0.882,2.5391 1.32,5.9961 1.32,10.3324 z M 343.918,66.5625 V 149.68 h 82.109 v -19.95 h -43.781 v -11.621 h 39.672 V 99.8086 H 382.246 V 86.5117 h 43.781 V 66.5625 Z m 106.074,0 V 149.68 h 38.328 v -34.907 l 41.266,34.907 h 44.977 L 522.566,109.441 575.953,66.5625 H 527.996 L 488.32,102.301 V 66.5625 Z m 159.469,0 V 129.73 h -30.07 v 19.95 h 98.535 V 129.73 H 647.785 V 66.5625 Z m 85.609,0 V 149.68 h 57.641 c 9.211,0 17.113,-0.86 23.637,-2.567 6.55,-1.707 11.707,-3.965 15.523,-6.754 3.789,-2.793 6.527,-5.773 8.211,-8.937 1.664,-3.16 2.5,-6.336 2.5,-9.527 0,-3.192 -0.836,-6.368 -2.473,-9.543 -1.66,-3.192 -4.425,-6.176 -8.281,-8.977 -3.867,-2.809 -9.047,-5.082 -15.551,-6.8008 -6.504,-1.7383 -14.375,-2.5976 -23.566,-2.5976 H 733.402 V 66.5625 Z m 38.332,64.8165 v -19.102 h 10.922 c 12.52,0 18.778,3.203 18.778,9.618 0,6.324 -6.258,9.484 -18.778,9.484 z M 891.344,64.1875 c -12.071,0 -22.754,1.2188 -32.067,3.6367 -9.316,2.4336 -17.015,5.7149 -23.125,9.8399 -6.113,4.1406 -10.711,8.8476 -13.765,14.1172 -3.055,5.2812 -4.571,10.7267 -4.571,16.3557 0,7.687 2.743,14.886 8.192,21.582 5.453,6.691 13.738,12.094 24.859,16.187 11.121,4.102 24.613,6.149 40.477,6.149 12.054,0 22.761,-1.2 32.125,-3.606 9.359,-2.406 17.058,-5.672 23.125,-9.781 6.062,-4.129 10.633,-8.82 13.687,-14.113 3.055,-5.285 4.571,-10.766 4.571,-16.418 0,-5.715 -1.516,-11.219 -4.571,-16.4768 -3.035,-5.2696 -7.601,-9.9727 -13.687,-14.1289 -6.09,-4.1407 -13.789,-7.4063 -23.098,-9.7813 -9.316,-2.375 -20.023,-3.5625 -32.152,-3.5625 z m 0,19.9492 c 6.094,0 11.758,0.9024 16.941,2.7305 5.18,1.8086 9.34,4.5273 12.445,8.1328 3.102,3.6211 4.641,8.004 4.641,13.137 0,5.121 -1.539,9.484 -4.617,13.09 -3.106,3.609 -7.234,6.308 -12.445,8.136 -5.207,1.821 -10.871,2.742 -16.965,2.742 -6.106,0 -11.778,-0.921 -16.989,-2.742 -5.207,-1.828 -9.335,-4.527 -12.441,-8.136 -3.078,-3.606 -4.617,-7.969 -4.617,-13.09 0,-5.133 1.539,-9.5159 4.644,-13.137 3.106,-3.6055 7.258,-6.3242 12.442,-8.1328 5.183,-1.8281 10.855,-2.7305 16.961,-2.7305"
         style="fill:#231f20;fill-opacity:1;fill-rule:evenodd;stroke:none"
         id="path22" />
    </g>
  </g>
</svg>
