<svg width="409" height="87" viewBox="0 0 409 87" fill="none" xmlns="http://www.w3.org/2000/svg">
<path d="M130.254 39.574C130.479 36.318 131.643 33.7273 133.747 31.838C135.868 29.9473 138.779 28.994 142.534 28.994C146.195 28.994 148.918 29.8993 150.702 31.694C152.486 33.506 153.423 36.1273 153.536 39.574H130.254ZM166.015 43.53C166.015 35.4913 163.996 29.3113 159.962 24.99C155.926 20.6847 149.906 18.5247 141.899 18.5247C133.082 18.5247 126.235 21.066 121.326 26.166C116.418 31.25 113.971 38.0647 113.971 46.5953C113.971 55.318 116.608 62.038 121.866 66.7567C127.124 71.4753 134.686 73.8273 144.552 73.8273C147.252 73.8273 149.54 73.6993 151.415 73.4287C153.29 73.174 155.116 72.8087 156.88 72.3327C158.802 71.8713 160.327 71.41 161.423 70.9647C162.519 70.522 163.743 70.03 165.078 69.5047V56.0487H163.362C162.647 56.5727 161.726 57.1767 160.582 57.8607C159.454 58.5433 158.214 59.1793 156.88 59.7673C155.37 60.45 153.687 61.0047 151.86 61.418C150.032 61.8487 148.158 62.054 146.268 62.054C144.059 62.054 142.026 61.8487 140.167 61.418C138.308 61.0047 136.672 60.322 135.29 59.3527C133.86 58.3847 132.7 57.098 131.842 55.462C130.97 53.8407 130.46 51.806 130.302 49.3927H166.015V43.53Z" fill="#2E3192"/>
<path d="M186.147 73.9387H169.863V9.49335e-06H186.147V73.9387Z" fill="#2E3192"/>
<path d="M275.216 73.8273C270.896 73.8273 266.94 73.286 263.367 72.1887C259.776 71.1087 256.678 69.442 254.026 67.1687C251.419 64.898 249.386 62.054 247.94 58.622C246.479 55.2073 245.747 51.1553 245.747 46.5007C245.747 41.5127 246.542 37.254 248.115 33.7433C249.703 30.2487 251.85 27.3567 254.55 25.086C257.154 22.926 260.222 21.3207 263.732 20.2713C267.258 19.2393 270.927 18.7153 274.74 18.7153C277.634 18.7153 280.508 19.0487 283.399 19.7167C286.29 20.3833 289.183 21.4473 292.104 22.91V36.874H290.008C289.356 36.254 288.563 35.5713 287.61 34.8247C286.672 34.0767 285.638 33.394 284.526 32.774C283.336 32.1233 282 31.5673 280.523 31.122C279.028 30.662 277.362 30.4393 275.534 30.4393C271.372 30.4393 268.164 31.8847 265.875 34.7927C263.604 37.6993 262.462 41.5913 262.462 46.5007C262.462 51.7433 263.683 55.6687 266.115 58.242C268.544 60.814 271.787 62.1007 275.82 62.1007C277.87 62.1007 279.667 61.8633 281.222 61.4033C282.763 60.942 284.099 60.3687 285.211 59.718C286.304 59.0673 287.227 58.4007 288.006 57.702C288.784 57.002 289.451 56.366 290.008 55.8113H292.104V69.7753C291.167 70.1713 290.104 70.6473 288.864 71.174C287.64 71.6967 286.402 72.142 285.131 72.4753C283.542 72.906 282.066 73.2393 280.683 73.4753C279.3 73.7153 277.474 73.8273 275.216 73.8273Z" fill="#2E3192"/>
<path d="M356.435 35.5552H355.086C354.466 35.3325 353.56 35.1739 352.386 35.0619C351.208 34.9512 349.907 34.9032 348.476 34.9032C346.76 34.9032 344.982 35.1579 343.091 35.6499C341.216 36.1419 339.391 36.7299 337.626 37.4139V73.9392H321.342V20.1619H337.626V27.6432C338.372 26.9605 339.407 26.1032 340.724 25.0699C342.042 24.0219 343.25 23.1952 344.331 22.5765C345.506 21.8605 346.888 21.2565 348.446 20.7325C350.018 20.2245 351.495 19.9712 352.894 19.9712C353.416 19.9712 354.02 19.9859 354.672 20.0179C355.323 20.0499 355.911 20.0979 356.435 20.1619V35.5552Z" fill="#2E3192"/>
<path d="M408.948 73.9392H392.664V66.6605C389.836 69.0125 387.246 70.8059 384.896 72.0299C382.53 73.2539 379.716 73.8739 376.459 73.8739C371.282 73.8739 367.246 72.2392 364.339 68.9659C361.43 65.6912 359.984 60.7672 359.984 54.1885V20.1619H376.364V46.0872C376.364 48.7885 376.427 50.9805 376.571 52.6965C376.714 54.3965 377.047 55.8432 377.571 57.0179C378.063 58.0979 378.842 58.9232 379.875 59.4805C380.922 60.0352 382.37 60.3219 384.227 60.3219C385.388 60.3219 386.738 60.0352 388.31 59.4805C389.883 58.9232 391.328 58.1605 392.664 57.2099V20.1619H408.948V73.9392Z" fill="#2E3192"/>
<path fill-rule="evenodd" clip-rule="evenodd" d="M297.864 63.7153L306.574 55.0073L315.434 63.866L306.724 72.5753L297.864 63.7153Z" fill="#2E3192"/>
<path d="M205.587 39.574C205.812 36.318 206.976 33.7273 209.082 31.838C211.2 29.9473 214.112 28.994 217.867 28.994C221.528 28.994 224.251 29.8993 226.035 31.694C227.819 33.506 228.756 36.1273 228.868 39.574H205.587ZM241.943 43.53C241.943 35.4913 239.927 29.3113 235.891 24.99C231.858 20.6847 225.835 18.5247 217.823 18.5247C209.002 18.5247 202.155 21.066 197.246 26.166C192.336 31.25 189.891 38.0647 189.891 46.5953C189.891 55.318 192.527 62.038 197.786 66.7567C203.044 71.4753 210.607 73.8273 220.479 73.8273C223.18 73.8273 225.468 73.6993 227.343 73.4287C229.219 73.174 231.047 72.8087 232.81 72.3327C234.732 71.8713 236.255 71.41 237.352 70.9647C238.448 70.522 239.672 70.03 241.006 69.5047V56.0487H239.292C238.576 56.5727 237.654 57.1767 236.511 57.8607C235.383 58.5433 234.143 59.1793 232.81 59.7673C231.3 60.45 229.618 61.0047 227.788 61.418C225.96 61.8487 224.087 62.054 222.196 62.054C219.987 62.054 217.951 61.8487 216.088 61.418C214.228 61.0047 212.591 60.322 211.21 59.3527C209.779 58.3847 208.62 57.098 207.763 55.462C206.888 53.8407 206.38 51.806 206.222 49.3927H241.943V43.53Z" fill="#2E3192"/>
<path fill-rule="evenodd" clip-rule="evenodd" d="M33.0784 71.8963C36.0651 70.3856 39.1264 68.8363 42.1877 67.323C43.3971 67.399 44.5691 67.4376 45.7771 67.4376C65.0904 67.4376 80.6997 57.8363 80.6997 46.0083C80.6997 37.1256 71.8184 29.4523 59.1944 26.2403L68.4171 19.7403C85.8024 23.8216 98.1251 34.1016 98.1251 46.1203C98.1251 61.7296 77.4504 74.3549 51.9384 74.3549C45.5891 74.3549 39.2011 73.5603 33.0784 71.8963ZM7.07573 39.355C12.0264 27.035 30.2437 17.8883 51.9384 17.8883C54.0557 17.8883 56.1344 18.0016 58.1744 18.1523C53.9784 20.2683 49.6331 22.423 45.2864 24.6163C29.9797 24.767 14.4451 30.8896 8.88906 39.355H7.07573ZM23.9691 68.571C15.7304 64.7536 9.64506 59.2349 7.07573 52.8856H9.04106C12.6317 58.1776 20.1144 62.5243 28.9971 65.055L23.9691 68.571Z" fill="#2E3192"/>
<path fill-rule="evenodd" clip-rule="evenodd" d="M12.0947 46.1411C12.0947 44.5157 12.9267 42.8904 14.3627 42.0211C32.5413 32.1184 86.8533 5.35974 86.8533 5.35974L35.6027 41.4157H70.072C72.68 41.4157 74.796 43.5317 74.796 46.1411C74.796 47.7664 73.928 49.3531 72.5293 50.2224C54.3493 60.1237 0 86.8837 0 86.8837L51.2893 50.8277H16.8187C14.2107 50.8277 12.0947 48.7477 12.0947 46.1411Z" fill="#FBC707"/>
</svg>
