<svg width="41" height="29" viewBox="0 0 41 29" fill="none" xmlns="http://www.w3.org/2000/svg">
<path d="M20.4105 29C24.6182 28.8316 28.826 28.6826 33.0337 28.4948C34.023 28.4494 35.0187 28.3134 35.9952 28.1386C38.3721 27.7046 39.8881 26.0853 40.3378 23.5593C40.9545 20.094 41.0766 16.5964 40.9609 13.0988C40.8774 10.6505 40.6462 8.20864 40.4085 5.76678C40.235 3.97912 39.5155 2.45701 37.9545 1.44659C37.0037 0.824789 35.9245 0.649908 34.8324 0.533321C30.6119 0.0864029 26.3656 -0.017231 22.1257 0.00220108C17.8281 0.0216312 13.5304 0.151173 9.23917 0.293669C7.86443 0.339008 6.48969 0.513889 5.12137 0.721155C2.78303 1.06444 1.18988 2.6837 0.701656 5.11908C0.219855 7.54798 0.104223 10.0157 0.0335591 12.4835C-0.0628011 15.7285 0.0399831 18.967 0.45112 22.1926C0.541056 22.918 0.663113 23.6435 0.842985 24.3495C1.39545 26.5128 3.1492 27.9701 5.47469 28.2681C9.47685 28.7733 13.5047 28.8186 17.5326 28.8834C18.4833 28.9028 19.4405 28.8834 20.3912 28.8834C20.4105 28.9093 20.4105 28.9547 20.4105 29ZM16.4598 20.6122C16.4598 16.4669 16.4598 12.3863 16.4598 8.25398C20.0187 10.3202 23.5262 12.3604 27.0979 14.4331C23.5197 16.5122 20.0122 18.546 16.4598 20.6122Z" fill="white"/>
</svg>
