<svg width="27" height="35" viewBox="0 0 27 35" fill="none" xmlns="http://www.w3.org/2000/svg">
<path d="M13.5 18.5C16.2614 18.5 18.5 16.2614 18.5 13.5C18.5 10.7386 16.2614 8.5 13.5 8.5C10.7386 8.5 8.5 10.7386 8.5 13.5C8.5 16.2614 10.7386 18.5 13.5 18.5Z" stroke="white" stroke-width="2" stroke-linecap="round" stroke-linejoin="round"/>
<path d="M26 13.5C26 24.75 13.5 33.5 13.5 33.5C13.5 33.5 1 24.75 1 13.5C1 10.1848 2.31696 7.00537 4.66117 4.66117C7.00537 2.31696 10.1848 1 13.5 1C16.8152 1 19.9946 2.31696 22.3388 4.66117C24.683 7.00537 26 10.1848 26 13.5V13.5Z" stroke="white" stroke-width="2" stroke-linecap="round" stroke-linejoin="round"/>
</svg>
