<svg width="33" height="33" viewBox="0 0 33 33" xmlns="http://www.w3.org/2000/svg">
<path fill="currentColor" d="M17.604 0.0467968C7.13375 -0.776605 -1.933 9.40441 0.357368 19.6626C1.82113 27.7422 9.70826 33.7119 17.8881 32.9314C38.2001 30.6928 37.9676 2.03668 17.604 0.0467968ZM17.1046 8.28939C19.1969 8.20362 21.2634 7.96346 23.2869 7.4231C23.5452 7.35448 23.6485 7.38879 23.7518 7.65468C24.7851 10.3222 25.3017 13.1354 25.3534 15.983C22.5722 15.983 19.8427 15.983 17.1046 15.983C17.1046 13.4099 17.1046 10.8625 17.1046 8.28939ZM7.80536 15.9916C7.79675 13.0926 8.38226 10.2707 9.41551 7.56033C9.51022 7.32018 9.64799 7.37164 9.82019 7.41452C11.8436 7.96346 13.9274 8.17789 16.0283 8.28081C16.0283 10.8625 16.0283 13.4185 16.0283 15.983C13.2816 15.9916 10.5607 15.9916 7.80536 15.9916ZM17.096 17.0552C19.8599 17.0552 22.598 17.0552 25.3447 17.0552C25.3017 20.04 24.742 22.9048 23.6227 25.6923C21.4787 25.1177 19.3089 24.8175 17.096 24.766C17.096 22.1757 17.096 19.6283 17.096 17.0552ZM7.79675 17.0552C10.5693 17.0552 13.3074 17.0552 16.0369 17.0552C16.0369 19.6369 16.0369 22.1929 16.0369 24.7403C13.9101 24.8518 11.8006 25.0662 9.7427 25.6409C9.51022 25.7009 9.45856 25.5808 9.4069 25.4178C8.52864 22.6903 7.72787 19.9714 7.79675 17.0552ZM24.6042 7.08002C25.5342 6.65974 26.4985 6.34239 27.4371 5.93069C27.6523 5.84491 27.7643 5.84491 27.9279 6.02503C30.4938 8.77828 31.8886 12.2434 32.0695 15.983C30.1493 15.983 28.2809 15.983 26.3866 15.983C26.3349 12.9039 25.758 9.95334 24.6042 7.08002ZM6.75489 15.983C4.84339 15.983 2.97493 15.983 1.06342 15.983C1.28729 12.2177 2.64774 8.74397 5.24808 5.99073C5.36862 5.86207 5.46334 5.83634 5.63554 5.90495C6.5913 6.31666 7.58149 6.65116 8.53724 7.08859C7.39206 9.94477 6.80656 12.8953 6.75489 15.983ZM24.5956 25.9754C25.758 23.0849 26.3349 20.1172 26.3866 17.0466C28.2895 17.0466 30.1666 17.0466 32.0522 17.0466C31.9059 20.8034 30.4679 24.2942 27.8934 27.0475C27.7557 27.2019 27.6437 27.1847 27.4801 27.1161C26.5071 26.713 25.6117 26.3099 24.5956 25.9754ZM8.52864 25.9411C7.55566 26.3442 6.61713 26.713 5.69581 27.1161C5.47194 27.2105 5.36001 27.1762 5.21363 27.0046C2.65634 24.2514 1.26146 20.7862 1.08064 17.0466C3.00076 17.0466 4.86922 17.0466 6.7635 17.0466C6.80655 20.1258 7.38345 23.0935 8.52864 25.9411ZM17.1046 7.24298C17.1046 5.19306 17.1046 3.16886 17.1046 1.15324C19.4552 1.23044 21.9522 3.67491 23.1577 6.39385C21.1773 6.91705 19.1797 7.19152 17.1046 7.24298ZM16.0369 1.11893C16.0369 3.17744 16.0369 5.19306 16.0369 7.24298C13.979 7.2001 11.9642 6.93421 10.001 6.40243C11.0945 3.9408 13.1696 1.46202 16.0369 1.11893ZM9.98379 26.6444C11.9814 26.1212 13.9962 25.8381 16.0369 25.8038C16.0369 27.8623 16.0369 29.8779 16.0369 31.9021C13.6174 31.7477 11.2323 29.389 9.98379 26.6444ZM23.261 26.6701C21.8059 29.0803 20.101 31.5419 17.1046 31.945C17.1046 29.8522 17.1046 27.8366 17.1046 25.7952C19.1625 25.8381 21.1687 26.1126 23.261 26.6701ZM12.1967 31.2932C9.94935 30.6499 7.97757 29.5606 6.18661 27.9652C7.14236 27.5964 8.04645 27.2533 8.95915 26.9017C9.75992 28.6171 10.8448 30.0581 12.1967 31.2932ZM12.1622 1.71933C10.8534 3.06593 9.82881 4.45542 8.89027 6.10223C8.03784 5.7763 7.14236 5.43321 6.18661 5.0644C7.97757 3.48621 9.94935 2.37977 12.1622 1.71933ZM20.9362 31.2932C22.3053 30.0495 23.3816 28.6085 24.1823 26.9017C25.1037 27.2533 25.9991 27.605 26.9463 27.9738C25.1467 29.5606 23.1749 30.667 20.9362 31.2932ZM24.1823 6.13654C23.3816 4.41254 22.2967 2.98874 20.9534 1.74506C23.1921 2.37977 25.1725 3.47764 26.9549 5.07298C25.9991 5.43321 25.1037 5.7763 24.1823 6.13654Z" fill="white"/>
</svg>
