<svg width="30" height="29" viewBox="0 0 30 29" fill="none" xmlns="http://www.w3.org/2000/svg">
<path d="M29.1957 14.9531C28.9891 22.8778 22.3359 28.9197 15.0627 28.9996C15.0627 28.4918 15.0512 27.984 15.0627 27.4763C15.1144 25.7418 15.189 24.0074 15.5105 22.2958C15.7573 20.9722 16.1534 19.7056 16.9341 18.5817C18.0305 17.007 19.5805 16.1113 21.4174 15.6435C22.996 15.2384 24.6148 15.1072 26.2337 15.0273C27.0718 14.9874 27.9099 14.9759 28.7537 14.9531C28.8915 14.9531 29.035 14.9531 29.1957 14.9531Z" fill="white"/>
<path d="M15.0459 0C23.1285 0.228212 29.1215 6.93764 29.1789 14.0407C28.5991 14.0407 28.0193 14.0579 27.4453 14.035C25.7576 13.978 24.0699 13.9038 22.4052 13.59C20.9184 13.3105 19.5062 12.8483 18.3065 11.8898C16.8771 10.7545 16.1079 9.23117 15.6888 7.50247C15.3272 6.00197 15.2009 4.47295 15.1263 2.93823C15.0861 2.08814 15.0746 1.23234 15.0516 0.37655C15.0459 0.262444 15.0459 0.142632 15.0459 0Z" fill="white"/>
<path d="M14.156 28.9997C7.10095 28.9541 0.25258 23.1119 0 14.9875C0.0574046 14.9761 0.12055 14.959 0.183695 14.959C2.37655 14.9818 4.57515 15.0332 6.7393 15.4211C8.28922 15.7007 9.7473 16.1856 10.9815 17.2012C12.2731 18.2624 13.0194 19.6544 13.4442 21.2405C13.8517 22.7809 13.9895 24.3556 14.0699 25.9417C14.1158 26.8602 14.1273 27.7788 14.1502 28.703C14.156 28.7943 14.156 28.897 14.156 28.9997Z" fill="white"/>
<path d="M14.1274 0C14.1274 0.604762 14.1446 1.19241 14.1216 1.77435C14.0642 3.53728 13.9781 5.30022 13.6222 7.03463C13.3409 8.39249 12.8817 9.68189 12.0034 10.7887C10.9242 12.1466 9.48909 12.9339 7.83009 13.3675C6.28017 13.7726 4.6958 13.9095 3.10569 13.9894C2.17 14.035 1.23431 14.0464 0.304351 14.0693C0.212503 14.0693 0.120656 14.0693 0.0288086 14.0693C0.0402895 7.14874 5.87834 0.256738 14.1274 0Z" fill="white"/>
</svg>
