<svg width="42" height="25" viewBox="0 0 42 25" fill="none" xmlns="http://www.w3.org/2000/svg">
<path d="M0 1.83745C0.246974 1.42531 0.602625 1.21923 1.05706 1.20893C2.0252 1.18832 2.99334 1.16772 3.97135 1.15741C4.99877 1.14711 6.02618 1.14711 7.04371 1.13681C7.95258 1.1265 8.5552 1.54895 8.96024 2.43506C10.0173 4.74308 11.1237 7.03048 12.2499 9.30758C12.7241 10.2555 13.3267 11.1313 14.1467 11.8011C14.3344 11.9556 14.5517 12.0999 14.779 12.1926C15.2828 12.3987 15.6681 12.2235 15.9348 11.7289C16.33 10.9974 16.3596 10.1731 16.4485 9.3694C16.656 7.50445 16.6362 5.64979 16.2707 3.79514C16.0533 2.69265 15.4112 2.09504 14.3838 1.87867C13.8602 1.76533 13.8207 1.63138 14.1961 1.20893C14.6308 0.724661 15.1544 0.40525 15.7866 0.302213C18.1477 -0.0687171 20.5186 -0.120234 22.8896 0.271304C24.0652 0.467073 24.4999 0.889521 24.6085 2.32172C24.6876 3.42421 24.5986 4.54731 24.5888 5.64979C24.569 7.13351 24.5394 8.61724 24.5591 10.101C24.569 10.544 24.6678 11.0077 24.816 11.4301C25.0432 12.069 25.6656 12.5223 26.4361 11.8114C27.513 10.8325 28.2736 9.59608 29.0343 8.35965C30.1902 6.48439 31.1287 4.49579 31.919 2.42476C32.0079 2.18778 32.1166 1.95079 32.245 1.73442C32.4426 1.3944 32.729 1.20893 33.1242 1.20893C35.5841 1.17802 38.0439 1.13681 40.5038 1.1265C41.8375 1.1265 42.2721 1.77563 41.8375 3.08419C41.2941 4.70186 40.3556 6.09285 39.4072 7.46323C38.3403 8.99847 37.224 10.4925 36.1472 12.0174C35.9002 12.3678 35.6631 12.7387 35.4557 13.1302C35.0111 13.9751 35.0901 14.7067 35.7125 15.4073C36.246 16.0152 36.8189 16.5922 37.3919 17.1692C38.9133 18.6839 40.4347 20.2088 41.5312 22.1047C41.6893 22.3726 41.8078 22.6611 41.8869 22.9599C42.1733 24.0624 41.709 24.7527 40.6125 24.8248C39.6838 24.8764 38.7552 24.8867 37.8266 24.9176C36.6411 24.9485 35.4458 25 34.2603 25C33.2428 25 32.3141 24.6188 31.5535 23.9284C30.7236 23.1763 29.9827 22.3004 29.2121 21.4865C28.649 20.8888 28.0958 20.2809 27.5129 19.6936C27.345 19.5185 27.1178 19.3845 26.9005 19.2815C26.4658 19.0651 26.0706 19.1166 25.6952 19.467C24.9543 20.1676 24.7567 21.1052 24.6382 22.0841C24.5888 22.5168 24.5888 22.9702 24.5591 23.4029C24.5097 24.2787 24.1047 24.763 23.2749 24.8351C19.669 25.1442 16.2509 24.6909 13.1489 22.455C11.0743 20.961 9.40479 19.1269 7.91307 17.0456C4.7518 12.646 2.32156 7.81356 0.197579 2.79569C0.148185 2.67205 0.0889156 2.5484 0.0296417 2.41446C4.82254e-06 2.23929 0 2.04352 0 1.83745Z" fill="white"/>
</svg>
