<svg width="35" height="29" viewBox="0 0 35 29" fill="none" xmlns="http://www.w3.org/2000/svg">
<path d="M0 13.2001C0.292494 12.6007 0.83178 12.2828 1.42591 12.0558C3.76586 11.1476 6.12409 10.2576 8.46405 9.36764C16.5076 6.30713 24.5512 3.24663 32.604 0.186124C32.7959 0.113471 32.997 0.0498998 33.1889 0.022655C34.2675 -0.131732 35.0353 0.513062 34.9987 1.64826C34.9805 2.38388 34.8159 3.12857 34.6606 3.8551C33.0061 11.5926 31.3426 19.3211 29.679 27.0495C29.5967 27.4401 29.4596 27.8396 29.2768 28.1938C28.9204 28.884 28.2988 29.1474 27.5493 28.9204C27.1837 28.8114 26.8181 28.6479 26.5073 28.4299C23.9937 26.6227 21.4983 24.7973 19.003 22.981C18.9024 22.9083 18.8019 22.8357 18.6739 22.7539C18.5734 22.8448 18.482 22.9174 18.3906 22.9991C17.1109 24.207 15.8312 25.4239 14.5607 26.6409C14.186 27.0041 13.7472 27.213 13.1622 27.2039C13.1988 26.7135 13.2262 26.2322 13.2628 25.7509C13.4182 23.6258 13.5644 21.5007 13.7289 19.3847C13.7381 19.2303 13.8386 19.0396 13.9575 18.9306C18.8019 14.5986 23.6555 10.2667 28.509 5.93479C28.5456 5.90754 28.5913 5.8803 28.6096 5.84397C28.701 5.6805 28.7832 5.50795 28.8747 5.3354C28.6644 5.29907 28.4451 5.19009 28.2531 5.22642C28.0155 5.27183 27.7869 5.40805 27.5767 5.5352C21.5349 9.2859 15.5022 13.0366 9.4695 16.7782C9.33239 16.86 9.12216 16.9054 8.97591 16.86C6.40745 16.079 3.84813 15.2798 1.27966 14.4897C0.758657 14.3262 0.283354 14.0992 0 13.6088C0 13.4725 0 13.3363 0 13.2001Z" fill="white"/>
</svg>
