<svg width="389" height="59" viewBox="0 0 389 59" fill="none" xmlns="http://www.w3.org/2000/svg">
<path d="M236.7 23.7002V38.6002H232.5V33.5002C231.3 33.9002 230.3 34.1002 229.3 34.1002C227.2 34.1002 225.6 33.6002 224.5 32.6002C223.4 31.6002 222.8 30.2002 222.8 28.3002V23.7002H227V27.8002C227 29.7002 227.9 30.7002 229.8 30.7002C230.8 30.7002 231.7 30.5002 232.4 30.2002V23.7002H236.7Z" fill="white"/>
<path d="M252.7 35.3002V38.6002H240.7V23.7002H252.4V27.0002H244.9V29.5002H251.5V32.7002H244.9V35.4002H252.7V35.3002Z" fill="white"/>
<path d="M269.5 38.6002V30.7002L265.7 37.1002H263.8L260 30.8002V38.5002H256.1V23.7002H259.6L264.8 32.3002L269.9 23.7002H273.4V38.6002H269.5Z" fill="white"/>
<path d="M291.4 23.7002V38.6002H287.2V27.0002H281.5V38.6002H277.3V23.7002H291.4Z" fill="white"/>
<path d="M295.4 23.7002H299.6V32.5002L305.8 23.7002H309.8V38.6002H305.6V29.9002L299.5 38.6002H295.5V23.7002H295.4Z" fill="white"/>
<path d="M316.8 37.8998C315.5 37.1998 314.6 36.2998 313.8 35.0998C313.1 33.8998 312.7 32.5998 312.7 31.0998C312.7 29.5998 313.1 28.2998 313.8 27.0998C314.5 25.8998 315.5 24.9998 316.8 24.2998C318.1 23.5998 319.5 23.2998 321 23.2998C322.6 23.2998 324 23.5998 325.2 24.2998C326.5 24.9998 327.4 25.8998 328.2 27.0998C328.9 28.2998 329.3 29.5998 329.3 31.0998C329.3 32.5998 328.9 33.8998 328.2 35.0998C327.5 36.2998 326.5 37.1998 325.2 37.8998C323.9 38.5998 322.5 38.8998 321 38.8998C319.5 38.8998 318.1 38.5998 316.8 37.8998ZM323.1 34.8998C323.7 34.4998 324.2 33.9998 324.5 33.3998C324.8 32.7998 325 31.9998 325 31.1998C325 30.3998 324.8 29.5998 324.5 28.9998C324.2 28.3998 323.7 27.8998 323.1 27.4998C322.5 27.0998 321.8 26.9998 321.1 26.9998C320.4 26.9998 319.7 27.1998 319.1 27.4998C318.5 27.7998 318 28.3998 317.7 28.9998C317.4 29.5998 317.2 30.3998 317.2 31.1998C317.2 31.9998 317.4 32.7998 317.7 33.3998C318 33.9998 318.5 34.4998 319.1 34.8998C319.7 35.2998 320.4 35.3998 321.1 35.3998C321.8 35.3998 322.5 35.1998 323.1 34.8998Z" fill="white"/>
<path d="M346.7 23.7002V38.6002H342.5V32.8002H336.7V38.6002H332.5V23.7002H336.7V29.3002H342.5V23.7002H346.7Z" fill="white"/>
<path d="M361 35.7002H354.7L353.5 38.6002H349.2L355.8 23.7002H360L366.6 38.6002H362.2L361 35.7002ZM359.8 32.6002L357.9 27.8002L356 32.6002H359.8Z" fill="white"/>
<path d="M379.5 27.0002H374.9V38.6002H370.7V27.0002H366.1V23.7002H379.4V27.0002H379.5Z" fill="white"/>
<path d="M233 43.9C234.2 44.6 235.1 45.5 235.8 46.7C236.5 47.9 236.8 49.2 236.8 50.7C236.8 52.2 236.5 53.5 235.8 54.7C235.1 55.9 234.2 56.8 233 57.5C231.8 58.2 230.5 58.5 229 58.5C227.6 58.5 226.4 58.3 225.3 57.8C224.2 57.3 223.3 56.6 222.6 55.7L225.3 53.3C226.3 54.5 227.5 55 228.9 55C229.8 55 230.6 54.8 231.2 54.3C231.8 53.8 232.3 53.1 232.5 52.3H227.1V49.2H232.4C232.2 48.4 231.7 47.7 231.1 47.3C230.5 46.8 229.7 46.6 228.8 46.6C227.4 46.6 226.2 47.2 225.2 48.3L222.5 45.9C223.2 45 224.1 44.3 225.2 43.8C226.3 43.3 227.5 43.1 228.9 43.1C230.4 43 231.8 43.3 233 43.9Z" fill="#FFC629"/>
<path d="M253.7 43.3002V58.2002H249.5V46.6002H245.2L245.1 49.0002C245 51.1002 244.9 52.9002 244.6 54.2002C244.3 55.5002 243.9 56.6002 243.2 57.3002C242.5 58.0002 241.6 58.4002 240.4 58.4002C239.8 58.4002 239.2 58.3002 238.5 58.1002L238.7 54.6002C238.9 54.6002 239.1 54.7002 239.3 54.7002C239.9 54.7002 240.3 54.5002 240.6 54.0002C240.9 53.6002 241.1 52.9002 241.2 52.2002C241.3 51.4002 241.4 50.4002 241.5 49.1002L241.7 43.2002H253.7V43.3002Z" fill="#FFC629"/>
<path d="M269.7 54.9008V58.2008H257.7V43.3008H269.4V46.6008H261.9V49.0008H268.5V52.2008H261.9V54.9008H269.7Z" fill="#FFC629"/>
<path d="M279.1 52.5002H277.2V58.2002H273V43.3002H277.2V49.0002H279.2L282.8 43.2002H287.2L282.5 50.4002L287.2 58.1002H282.4L279.1 52.5002Z" fill="#FFC629"/>
<path d="M302.5 46.6008H297.9V58.2008H293.7V46.6008H289.1V43.3008H302.4V46.6008H302.5Z" fill="#FFC629"/>
<path d="M315.5 43.9008C316.5 44.3008 317.3 45.0008 317.8 45.8008C318.3 46.6008 318.6 47.6008 318.6 48.7008C318.6 49.8008 318.3 50.8008 317.8 51.6008C317.3 52.4008 316.5 53.1008 315.5 53.5008C314.5 53.9008 313.3 54.2008 312 54.2008H309.4V58.1008H305.2V43.3008H312C313.3 43.3008 314.5 43.5008 315.5 43.9008ZM313.7 50.4008C314.1 50.0008 314.4 49.5008 314.4 48.8008C314.4 48.1008 314.2 47.6008 313.7 47.2008C313.3 46.8008 312.6 46.6008 311.7 46.6008H309.4V51.0008H311.7C312.6 50.9008 313.3 50.8008 313.7 50.4008Z" fill="#FFC629"/>
<path d="M321.4 43.3002H325.6V52.0002L331.8 43.2002H335.8V58.1002H331.6V49.4002L325.5 58.1002H321.5V43.3002H321.4Z" fill="#FFC629"/>
<path d="M345.8 52.5002H343.9V58.2002H339.7V43.3002H343.9V49.0002H345.9L349.5 43.2002H353.9L349.2 50.4002L353.9 58.1002H349.1L345.8 52.5002Z" fill="#FFC629"/>
<path d="M359.1 57.5004C357.8 56.8004 356.9 55.9004 356.1 54.7004C355.4 53.5004 355 52.2004 355 50.7004C355 49.2004 355.4 47.9004 356.1 46.7004C356.8 45.5004 357.8 44.6004 359.1 43.9004C360.4 43.2004 361.8 42.9004 363.3 42.9004C364.9 42.9004 366.3 43.2004 367.5 43.9004C368.8 44.6004 369.7 45.5004 370.5 46.7004C371.2 47.9004 371.6 49.2004 371.6 50.7004C371.6 52.2004 371.2 53.5004 370.5 54.7004C369.8 55.9004 368.8 56.8004 367.5 57.5004C366.2 58.2004 364.8 58.5004 363.3 58.5004C361.7 58.5004 360.3 58.1004 359.1 57.5004ZM365.4 54.4004C366 54.0004 366.5 53.5004 366.8 52.9004C367.1 52.3004 367.3 51.5004 367.3 50.7004C367.3 49.9004 367.1 49.1004 366.8 48.5004C366.5 47.9004 366 47.4004 365.4 47.0004C364.8 46.6004 364.1 46.5004 363.4 46.5004C362.7 46.5004 362 46.7004 361.4 47.0004C360.8 47.4004 360.3 47.9004 360 48.5004C359.7 49.1004 359.5 49.9004 359.5 50.7004C359.5 51.5004 359.7 52.3004 360 52.9004C360.3 53.5004 360.8 54.0004 361.4 54.4004C362 54.8004 362.7 54.9004 363.4 54.9004C364.1 54.9004 364.7 54.8004 365.4 54.4004Z" fill="#FFC629"/>
<path d="M387.6 51.7008C388.1 52.3008 388.3 53.0008 388.3 53.9008C388.3 55.2008 387.8 56.3008 386.8 57.0008C385.8 57.8008 384.3 58.1008 382.4 58.1008H374.8V43.3008H382C383.8 43.3008 385.2 43.6008 386.2 44.3008C387.2 45.0008 387.7 45.9008 387.7 47.2008C387.7 47.9008 387.5 48.6008 387.2 49.1008C386.9 49.7008 386.4 50.1008 385.7 50.4008C386.5 50.7008 387.1 51.1008 387.6 51.7008ZM378.9 49.2008H381.6C382.8 49.2008 383.4 48.7008 383.4 47.7008C383.4 46.7008 382.8 46.2008 381.6 46.2008H378.9V49.2008ZM384 53.6008C384 52.6008 383.4 52.1008 382.2 52.1008H378.9V55.2008H382.2C383.4 55.1008 384 54.6008 384 53.6008Z" fill="#FFC629"/>
<path d="M226.8 18.3002C225.5 17.6002 224.6 16.7002 223.8 15.5002C223.1 14.3002 222.7 13.0002 222.7 11.5002C222.7 10.0002 223.1 8.7002 223.8 7.5002C224.5 6.3002 225.5 5.4002 226.8 4.7002C228.1 4.0002 229.5 3.7002 231 3.7002C232.6 3.7002 234 4.0002 235.2 4.7002C236.5 5.4002 237.4 6.3002 238.2 7.5002C238.9 8.7002 239.3 10.0002 239.3 11.5002C239.3 13.0002 238.9 14.3002 238.2 15.5002C237.5 16.7002 236.5 17.6002 235.2 18.3002C233.9 19.0002 232.5 19.3002 231 19.3002C229.5 19.3002 228.1 19.0002 226.8 18.3002ZM233.1 15.3002C233.7 14.9002 234.2 14.4002 234.5 13.8002C234.9 13.2002 235 12.4002 235 11.6002C235 10.8002 234.8 10.0002 234.5 9.4002C234.1 8.8002 233.7 8.3002 233.1 7.9002C232.5 7.5002 231.8 7.4002 231.1 7.4002C230.3 7.4002 229.7 7.6002 229.1 7.9002C228.5 8.3002 228 8.8002 227.7 9.4002C227.3 10.0002 227.2 10.8002 227.2 11.6002C227.2 12.4002 227.4 13.2002 227.7 13.8002C228.1 14.4002 228.5 14.9002 229.1 15.3002C229.7 15.7002 230.4 15.8002 231.1 15.8002C231.9 15.8002 232.5 15.7002 233.1 15.3002Z" fill="white"/>
<path d="M254.4 7.49961H249.8V18.9996H245.6V7.49961H241V4.09961H254.3V7.49961H254.4Z" fill="white"/>
<path d="M263.1 13.2996H261.2V18.9996H257V4.09961H261.2V9.89961H263.2L266.8 4.09961H271.2L266.5 11.2996L271.2 18.9996H266.4L263.1 13.2996Z" fill="white"/>
<path d="M284.2 4.79961C285.2 5.19961 286 5.89961 286.5 6.69961C287 7.49961 287.3 8.49961 287.3 9.59961C287.3 10.6996 287 11.6996 286.5 12.4996C286 13.2996 285.2 13.9996 284.2 14.3996C283.2 14.7996 282 15.0996 280.7 15.0996H278.1V18.9996H273.9V4.09961H280.7C282 4.09961 283.2 4.29961 284.2 4.79961ZM282.4 11.2996C282.8 10.8996 283.1 10.3996 283.1 9.69961C283.1 8.99961 282.9 8.49961 282.4 8.09961C282 7.69961 281.3 7.49961 280.4 7.49961H278.1V11.8996H280.4C281.3 11.7996 281.9 11.5996 282.4 11.2996Z" fill="white"/>
<path d="M301.9 10.0996C302.9 10.8996 303.4 12.0996 303.4 13.6996C303.4 15.3996 302.8 16.6996 301.7 17.5996C300.6 18.4996 299.1 18.9996 297.1 18.9996H290V4.09961H294.2V8.89961H297.7C299.5 8.89961 300.9 9.29961 301.9 10.0996ZM298.5 15.3996C298.9 14.9996 299.1 14.4996 299.1 13.7996C299.1 12.4996 298.3 11.8996 296.8 11.8996H294.2V15.9996H296.8C297.6 15.9996 298.1 15.7996 298.5 15.3996ZM305.1 4.09961H309.3V18.9996H305.1V4.09961Z" fill="white"/>
<path d="M325.2 7.49961H320.6V18.9996H316.4V7.49961H311.8V4.09961H325.1V7.49961H325.2Z" fill="white"/>
<path d="M339.7 10.0996C340.7 10.8996 341.2 12.0996 341.2 13.6996C341.2 15.3996 340.6 16.6996 339.5 17.5996C338.4 18.4996 336.9 18.9996 334.9 18.9996H327.8V4.09961H332V8.89961H335.5C337.3 8.89961 338.7 9.29961 339.7 10.0996ZM336.3 15.3996C336.7 14.9996 336.9 14.4996 336.9 13.7996C336.9 12.4996 336.1 11.8996 334.6 11.8996H332V15.9996H334.6C335.3 15.9996 335.9 15.7996 336.3 15.3996ZM342.8 4.09961H347V18.9996H342.8V4.09961Z" fill="white"/>
<path d="M351 4.1H355.2V12.9L361.4 4.1H365.4V19H361.2V10.3L355 19H351V4.1ZM355 2.7H361.2V0H355V2.7Z" fill="white"/>
<path d="M187.6 4.09961V41.0996H205.8V4.09961H187.6ZM153.9 35.6996L141 4.09961H121.4L144.3 58.0996H162.2L185.1 4.09961H167.2L153.9 35.6996Z" fill="#FFC629"/>
<path d="M183.7 49.6994V46.8994L182.3 49.1994H181.6L180.2 46.9994V49.6994H178.8V44.3994H180L181.9 47.3994L183.7 44.3994H184.9V49.6994H183.7Z" fill="white"/>
<path d="M187.3 49.4998C186.9 49.2998 186.5 48.8998 186.3 48.4998C186 48.0998 185.9 47.5998 185.9 47.0998C185.9 46.5998 186 46.0998 186.3 45.6998C186.6 45.2998 186.9 44.9998 187.3 44.6998C187.7 44.4998 188.2 44.2998 188.8 44.2998C189.4 44.2998 189.9 44.3998 190.3 44.6998C190.7 44.8998 191.1 45.2998 191.3 45.6998C191.6 46.0998 191.7 46.5998 191.7 47.0998C191.7 47.5998 191.6 48.0998 191.3 48.4998C191 48.8998 190.7 49.1998 190.3 49.4998C189.9 49.6998 189.4 49.8998 188.8 49.8998C188.3 49.7998 187.8 49.6998 187.3 49.4998ZM189.5 48.3998C189.7 48.2998 189.9 48.0998 190 47.8998C190.1 47.6998 190.2 47.3998 190.2 47.0998C190.2 46.7998 190.1 46.4998 190 46.2998C189.9 46.0998 189.7 45.8998 189.5 45.7998C189.3 45.6998 189 45.5998 188.8 45.5998C188.5 45.5998 188.3 45.6998 188.1 45.7998C187.9 45.8998 187.7 46.0998 187.6 46.2998C187.5 46.4998 187.4 46.7998 187.4 47.0998C187.4 47.3998 187.5 47.6998 187.6 47.8998C187.7 48.0998 187.9 48.2998 188.1 48.3998C188.3 48.4998 188.6 48.5998 188.8 48.5998C189.1 48.5998 189.3 48.4998 189.5 48.3998Z" fill="white"/>
<path d="M193.7 49.4994C193.3 49.2994 192.9 48.8994 192.7 48.4994C192.4 48.0994 192.3 47.5994 192.3 47.0994C192.3 46.5994 192.4 46.0994 192.7 45.6994C193 45.2994 193.3 44.9994 193.7 44.6994C194.1 44.4994 194.6 44.3994 195.2 44.3994C195.7 44.3994 196.1 44.4994 196.5 44.6994C196.9 44.8994 197.2 45.0994 197.5 45.3994L196.6 46.2994C196.3 45.8994 195.8 45.6994 195.4 45.6994C195.1 45.6994 194.9 45.7994 194.6 45.8994C194.4 45.9994 194.2 46.1994 194.1 46.3994C194 46.5994 193.9 46.8994 193.9 47.1994C193.9 47.4994 194 47.7994 194.1 47.9994C194.2 48.1994 194.4 48.3994 194.6 48.4994C194.8 48.5994 195.1 48.6994 195.4 48.6994C195.9 48.6994 196.3 48.4994 196.6 48.0994L197.5 48.9994C197.2 49.2994 196.9 49.5994 196.5 49.6994C196.1 49.8994 195.7 49.9994 195.2 49.9994C194.7 49.7994 194.2 49.6994 193.7 49.4994Z" fill="white"/>
<path d="M200.3 47.6994H199.6V49.6994H198.1V44.3994H199.6V46.3994H200.3L201.6 44.3994H203.2L201.6 46.8994L203.3 49.5994H201.6L200.3 47.6994Z" fill="white"/>
<path d="M208.4 47.3994C208.6 47.5994 208.6 47.8994 208.6 48.1994C208.6 48.6994 208.4 48.9994 208.1 49.2994C207.7 49.5994 207.2 49.6994 206.6 49.6994H203.9V44.3994H206.5C207.1 44.3994 207.6 44.4994 208 44.7994C208.3 44.9994 208.5 45.3994 208.5 45.7994C208.5 46.0994 208.4 46.2994 208.3 46.4994C208.2 46.6994 208 46.8994 207.8 46.9994C208 47.0994 208.2 47.1994 208.4 47.3994ZM205.3 46.5994H206.2C206.6 46.5994 206.8 46.3994 206.8 46.0994C206.8 45.7994 206.6 45.5994 206.2 45.5994H205.3V46.5994ZM207.1 48.0994C207.1 47.6994 206.9 47.5994 206.5 47.5994H205.3V48.6994H206.5C206.9 48.6994 207.1 48.4994 207.1 48.0994Z" fill="white"/>
<path d="M213.1 48.6994H210.9L210.5 49.6994H209L211.3 44.3994H212.8L215.1 49.6994H213.6L213.1 48.6994ZM212.6 47.5994L211.9 45.8994L211.2 47.5994H212.6Z" fill="white"/>
<path d="M191.4 56.8998V58.0998H187.3V57.1998L189.3 55.3998C189.5 55.1998 189.6 55.0998 189.7 54.8998C189.8 54.7998 189.8 54.5998 189.8 54.4998C189.8 54.2998 189.7 54.1998 189.6 54.0998C189.5 53.9998 189.3 53.9998 189.1 53.9998C188.9 53.9998 188.7 53.9998 188.6 54.0998C188.5 54.1998 188.3 54.2998 188.2 54.4998L187.1 53.8998C187.3 53.5998 187.6 53.2998 188 53.0998C188.4 52.8998 188.8 52.7998 189.3 52.7998C189.7 52.7998 190.1 52.8998 190.4 52.9998C190.7 53.0998 190.9 53.2998 191.1 53.5998C191.3 53.7998 191.4 54.0998 191.4 54.3998C191.4 54.6998 191.3 54.9998 191.2 55.1998C191.1 55.4998 190.8 55.6998 190.5 56.0998L189.5 56.9998H191.4V56.8998Z" fill="#FFC629"/>
<path d="M193.1 57.8998C192.7 57.6998 192.5 57.3998 192.3 56.9998C192.1 56.5998 192 56.0998 192 55.4998C192 54.8998 192.1 54.3998 192.3 53.9998C192.5 53.5998 192.8 53.2998 193.1 53.0998C193.5 52.8998 193.9 52.7998 194.3 52.7998C194.7 52.7998 195.1 52.8998 195.5 53.0998C195.9 53.2998 196.1 53.5998 196.3 53.9998C196.5 54.3998 196.6 54.8998 196.6 55.4998C196.6 56.0998 196.5 56.5998 196.3 56.9998C196.1 57.3998 195.8 57.6998 195.5 57.8998C195.1 58.0998 194.8 58.1998 194.3 58.1998C193.9 58.1998 193.5 58.0998 193.1 57.8998ZM194.9 56.5998C195 56.3998 195.1 55.9998 195.1 55.3998C195.1 54.8998 195 54.4998 194.9 54.1998C194.8 53.9998 194.6 53.7998 194.3 53.7998C194 53.7998 193.8 53.8998 193.7 54.1998C193.6 54.3998 193.5 54.7998 193.5 55.3998C193.5 55.8998 193.6 56.2998 193.7 56.5998C193.8 56.7998 194 56.9998 194.3 56.9998C194.6 56.9998 194.8 56.8998 194.9 56.5998Z" fill="#FFC629"/>
<path d="M201.3 56.8998V58.0998H197.2V57.1998L199.2 55.3998C199.4 55.1998 199.5 55.0998 199.6 54.8998C199.7 54.7998 199.7 54.5998 199.7 54.4998C199.7 54.2998 199.6 54.1998 199.5 54.0998C199.4 53.9998 199.2 53.9998 199 53.9998C198.8 53.9998 198.6 53.9998 198.5 54.0998C198.4 54.1998 198.2 54.2998 198.1 54.4998L197 53.8998C197.2 53.5998 197.5 53.2998 197.9 53.0998C198.3 52.8998 198.7 52.7998 199.2 52.7998C199.6 52.7998 200 52.8998 200.3 52.9998C200.6 53.0998 200.8 53.2998 201 53.5998C201.2 53.7998 201.3 54.0998 201.3 54.3998C201.3 54.6998 201.2 54.9998 201.1 55.1998C201 55.4998 200.7 55.6998 200.4 56.0998L199.4 56.9998H201.3V56.8998Z" fill="#FFC629"/>
<path d="M205.7 55.4998C205.9 55.7998 206 56.0998 206 56.4998C206 56.7998 205.9 57.0998 205.7 57.3998C205.5 57.6998 205.3 57.8998 204.9 57.9998C204.6 58.1998 204.1 58.1998 203.6 58.1998C203.2 58.1998 202.9 58.1998 202.5 58.0998C202.1 57.9998 201.8 57.8998 201.6 57.6998L202.1 56.5998C202.3 56.6998 202.5 56.7998 202.8 56.8998C203.1 56.9998 203.3 56.9998 203.6 56.9998C203.9 56.9998 204.1 56.9998 204.2 56.8998C204.3 56.7998 204.4 56.6998 204.4 56.4998C204.4 56.1998 204.1 55.9998 203.6 55.9998H203V54.9998L203.9 53.9998H202V52.7998H205.8V53.6998L204.7 54.8998C205.2 55.0998 205.5 55.1998 205.7 55.4998Z" fill="#FFC629"/>
<path d="M54.0001 4.09961H19.6001V18.7996H54.0001V4.09961Z" fill="#FFC629"/>
<path d="M0 58.0996H14.7V23.8996H0V58.0996ZM19.6 23.6996V58.0996H34.3H54V43.3996H34.4V38.4996H54V23.6996H19.6ZM0 18.7996H14.7V4.09961H0V18.7996ZM92.5 4.09961L78.8 23.6996H73.7V4.09961H59V58.0996H73.7V38.4996H78.8L92.5 58.1996H109.8L90.9 31.1996L109.9 4.19961H92.5V4.09961Z" fill="white"/>
</svg>
