<svg width="23" height="37" viewBox="0 0 23 37" fill="none" xmlns="http://www.w3.org/2000/svg">
<path d="M12.0929 0C12.6844 0.122197 13.2946 0.187995 13.8673 0.36659C17.5851 1.53216 20.0168 3.9573 20.5895 7.8676C21.1528 11.6651 19.6131 14.6542 16.4398 16.7128C11.5953 19.8617 4.97643 17.9535 2.58236 12.7931C0.704669 8.76058 2.18804 3.9291 6.03732 1.51336C7.30476 0.714382 8.68488 0.225595 10.1776 0.0657995C10.2528 0.0563997 10.3279 0.0281993 10.4124 0C10.9663 0 11.5296 0 12.0929 0ZM11.2291 13.6202C11.5577 13.5827 11.8863 13.5639 12.2056 13.5075C14.7968 13.0187 16.4304 10.4243 15.7356 7.9334C15.0784 5.58346 12.5435 4.15469 10.1119 4.75628C8.15912 5.23567 6.69451 6.92762 6.60063 8.79817C6.48796 11.4583 8.53466 13.592 11.2291 13.6202Z" fill="white"/>
<path d="M9.22011 25.3598C8.92906 25.3222 8.47842 25.2564 8.03716 25.1906C5.52105 24.8334 3.21149 23.9874 1.21174 22.38C1.0803 22.2766 0.958254 22.1732 0.836204 22.0604C-0.102644 21.1957 -0.243474 20.3497 0.376166 19.2687C0.911309 18.3287 1.9722 17.9152 3.0331 18.2629C3.40864 18.3851 3.77479 18.5637 4.094 18.7893C6.58195 20.5001 9.34216 21.1487 12.3183 20.9137C14.5715 20.7445 16.637 20.0489 18.4865 18.7235C18.9747 18.3757 19.5287 18.1501 20.1483 18.1407C21.1059 18.1313 21.8852 18.6577 22.2701 19.5789C22.655 20.5095 22.5424 21.2239 21.7631 21.9288C20.261 23.3012 18.5147 24.2694 16.5337 24.7394C15.5104 24.9838 14.4683 25.1342 13.4355 25.3222C13.3417 25.341 13.2572 25.3598 13.1633 25.3786C13.1257 25.4162 13.0976 25.4632 13.06 25.5008C13.1727 25.5572 13.3041 25.6042 13.3886 25.6888C15.5855 27.7943 17.773 29.9186 19.9887 32.0054C21.2092 33.1522 20.8618 34.4117 20.1107 35.1919C19.1062 36.2353 17.7448 36.2917 16.7403 35.3235C14.9189 33.5657 13.1069 31.808 11.2574 30.022C11.1448 30.1254 11.0415 30.21 10.9476 30.304C9.21072 31.9772 7.47385 33.6597 5.73698 35.3329C5.04224 36.0003 4.24421 36.1977 3.35231 35.8217C2.44163 35.4363 1.83138 34.7783 1.72811 33.7537C1.653 33.077 1.97221 32.56 2.44163 32.1088C4.15972 30.4638 5.87781 28.8189 7.57712 27.1551C8.18737 26.5817 8.71313 25.9331 9.22011 25.3598Z" fill="white"/>
</svg>
