<svg width="54" height="54" viewBox="0 0 54 54" fill="none" xmlns="http://www.w3.org/2000/svg">
<path d="M27 54C41.9117 54 54 41.9117 54 27C54 12.0883 41.9117 0 27 0C12.0883 0 0 12.0883 0 27C0 41.9117 12.0883 54 27 54Z" fill="#FFCC18"/>
<path d="M36.2401 41.9632C38.2431 40.5325 39.9726 38.6569 41.3352 36.4543C42.0935 35.2285 41.1368 33.75 39.6954 33.75L36.2401 33.75L27 33.75L17.7599 33.75L14.3046 33.75C12.8632 33.75 11.9065 35.2285 12.6648 36.4543C14.0274 38.6569 15.7569 40.5325 17.7599 41.9632C20.5399 43.9489 23.7381 45 27 45C30.2619 45 33.4601 43.9489 36.2401 41.9632Z" fill="white"/>
<path d="M27 31.5C31.9706 31.5 36 27.4706 36 22.5C36 17.5294 31.9706 13.5 27 13.5C22.0294 13.5 18 17.5294 18 22.5C18 27.4706 22.0294 31.5 27 31.5Z" fill="white"/>
</svg>
