<svg width="223" height="42" viewBox="0 0 223 42" fill="none" xmlns="http://www.w3.org/2000/svg">
<path fill-rule="evenodd" clip-rule="evenodd" d="M3.99881 17.7479H1.10281L4.83747 1.10921H7.43481L6.86014 3.66121C8.03747 1.68388 9.44547 0.695881 11.0828 0.695881C12.3175 0.695881 13.2948 1.16655 14.0188 2.10388C14.7495 3.03855 15.0775 4.30388 15.0015 5.89455C14.9041 7.87721 14.3015 9.69188 13.1921 11.3345C12.0721 12.9745 10.6801 13.7945 9.00814 13.7945C7.20547 13.7945 6.02147 12.9492 5.45214 11.2599L3.99881 17.7479ZM8.56681 11.5772C9.57881 11.5772 10.3761 10.9799 10.9855 9.78921C11.5828 8.59455 11.9161 7.36521 11.9735 6.11188C12.0721 3.98255 11.4335 2.91988 10.0548 2.91988C9.00814 2.91988 8.11214 3.49855 7.34947 4.65988C6.59614 5.81988 6.18814 7.09588 6.12547 8.49721C6.07347 9.51988 6.28547 10.2905 6.76947 10.8079C7.24547 11.3199 7.84814 11.5772 8.56681 11.5772ZM27.0548 13.4452L29.8188 1.10921H32.7135L29.9508 13.4452H27.0548ZM14.7081 13.4452L17.4761 1.10921H20.3788L19.3628 5.63721H22.2748C25.0668 5.63721 26.4108 6.76388 26.3081 9.01588C26.2495 10.2905 25.7615 11.3545 24.8535 12.1852C23.9468 13.0252 22.5561 13.4452 20.6948 13.4452H14.7081ZM18.0935 11.2599H20.9468C22.5628 11.2599 23.4015 10.5652 23.4695 9.17721C23.5108 8.14255 22.8321 7.62388 21.4175 7.62388H18.9081L18.0935 11.2599ZM31.9788 13.4452L34.7521 1.10921H37.6481L36.5921 5.81455H41.6935L42.7455 1.10921H45.6455L42.8775 13.4452H39.9828L41.2055 8.00388H36.1028L34.8855 13.4452H31.9788ZM50.6401 13.7599C49.6681 13.7599 48.7375 13.5585 47.8468 13.1519C46.9561 12.7492 46.2895 12.1105 45.8535 11.2265C45.4108 10.3545 45.2281 9.30788 45.2775 8.09588C45.3721 6.13055 46.0668 4.43588 47.3641 2.99855C48.6628 1.56255 50.3121 0.843879 52.2988 0.843879C53.9375 0.843879 55.2281 1.35721 56.1601 2.38921C57.0975 3.42388 57.5215 4.80388 57.4468 6.54521C57.3601 8.33055 56.7015 9.98121 55.4601 11.4905C54.2135 13.0079 52.6095 13.7599 50.6401 13.7599ZM50.7708 11.5425C51.9495 11.5425 52.8321 10.9679 53.4375 9.83588C54.0401 8.69855 54.3788 7.51055 54.4308 6.26921C54.5361 4.13188 53.7015 3.05721 51.9441 3.05721C50.7081 3.05721 49.8015 3.67855 49.2028 4.89455C48.6108 6.11188 48.2895 7.33188 48.2335 8.53721C48.1855 9.56655 48.4028 10.3252 48.9041 10.8132C49.3988 11.2945 50.0241 11.5425 50.7708 11.5425ZM57.0055 13.4452L59.7748 1.10921H62.6708L61.4801 6.42388L67.8815 1.10921H70.8868L65.7161 5.40655L68.6055 13.4452H65.3295L63.2948 7.41321L60.8135 9.34788L59.8948 13.4452H57.0055Z" fill="#EF7800"/>
<path fill-rule="evenodd" clip-rule="evenodd" d="M8.29641 27.6677L8.86041 24.5371H17.7884C17.9991 22.6931 17.7364 21.1411 16.9831 19.9011C16.2364 18.6584 14.9217 18.0384 13.0764 18.0384C10.5031 18.0384 8.50974 19.2917 7.08441 21.8024L3.17107 20.8304C5.53374 16.7611 9.03774 14.7237 13.6857 14.7237C17.0577 14.7237 19.4604 15.8144 20.8844 18.0091C22.3151 20.1984 22.7284 22.9851 22.1191 26.3517C21.5111 29.7317 20.0804 32.5677 17.8177 34.8424C15.5711 37.1171 12.7271 38.2557 9.29641 38.2557C6.73374 38.2557 4.74041 37.6357 3.33241 36.4064C1.91374 35.1771 1.05241 33.5397 0.760406 31.5171L5.02841 30.7637C5.49774 33.5437 7.10707 34.9397 9.84174 34.9397C11.7671 34.9397 13.3871 34.2504 14.6964 32.8664C16.0124 31.4877 16.8511 29.7531 17.2244 27.6677H8.29641Z" fill="#00539D"/>
<path fill-rule="evenodd" clip-rule="evenodd" d="M219.043 9.20881C220.727 9.20881 222.093 10.4888 222.093 12.0701C222.093 13.6435 220.727 14.9301 219.043 14.9301C217.352 14.9301 215.992 13.6435 215.992 12.0701C215.992 10.4888 217.352 9.20881 219.043 9.20881Z" fill="#00539D"/>
<path fill-rule="evenodd" clip-rule="evenodd" d="M157.016 10.1788C158.126 10.1788 159.028 11.0255 159.028 12.0695C159.028 13.1095 158.126 13.9548 157.016 13.9548C155.903 13.9548 155 13.1095 155 12.0695C155 11.0255 155.903 10.1788 157.016 10.1788ZM210.178 10.1788C211.292 10.1788 212.195 11.0255 212.195 12.0695C212.195 13.1095 211.292 13.9548 210.178 13.9548C209.07 13.9548 208.167 13.1095 208.167 12.0695C208.167 11.0255 209.07 10.1788 210.178 10.1788ZM201.32 10.1788C202.428 10.1788 203.335 11.0255 203.335 12.0695C203.335 13.1095 202.428 13.9548 201.32 13.9548C200.211 13.9548 199.302 13.1095 199.302 12.0695C199.302 11.0255 200.211 10.1788 201.32 10.1788ZM192.459 10.1788C193.568 10.1788 194.476 11.0255 194.476 12.0695C194.476 13.1095 193.568 13.9548 192.459 13.9548C191.351 13.9548 190.443 13.1095 190.443 12.0695C190.443 11.0255 191.351 10.1788 192.459 10.1788ZM183.595 10.1788C184.711 10.1788 185.611 11.0255 185.611 12.0695C185.616 13.1095 184.711 13.9548 183.595 13.9548C182.487 13.9548 181.584 13.1095 181.584 12.0695C181.584 11.0255 182.487 10.1788 183.595 10.1788ZM174.736 10.1788C175.846 10.1788 176.752 11.0255 176.752 12.0695C176.752 13.1095 175.846 13.9548 174.736 13.9548C173.626 13.9548 172.724 13.1095 172.724 12.0695C172.724 11.0255 173.626 10.1788 174.736 10.1788ZM165.878 10.1788C166.986 10.1788 167.892 11.0255 167.892 12.0695C167.892 13.1095 166.986 13.9548 165.878 13.9548C164.767 13.9548 163.86 13.1095 163.86 12.0695C163.86 11.0255 164.767 10.1788 165.878 10.1788ZM139.356 10.1788C140.466 10.1788 141.362 11.0255 141.362 12.0695C141.362 13.1095 140.466 13.9548 139.356 13.9548C138.24 13.9548 137.339 13.1095 137.339 12.0695C137.339 11.0255 138.24 10.1788 139.356 10.1788ZM130.496 10.1788C131.606 10.1788 132.502 11.0255 132.502 12.0695C132.502 13.1095 131.606 13.9548 130.496 13.9548C129.378 13.9548 128.475 13.1095 128.475 12.0695C128.475 11.0255 129.378 10.1788 130.496 10.1788ZM121.631 10.1788C122.74 10.1788 123.643 11.0255 123.643 12.0695C123.643 13.1095 122.74 13.9548 121.631 13.9548C120.516 13.9548 119.615 13.1095 119.615 12.0695C119.615 11.0255 120.516 10.1788 121.631 10.1788ZM112.772 10.1788C113.88 10.1788 114.783 11.0255 114.783 12.0695C114.783 13.1095 113.88 13.9548 112.772 13.9548C111.658 13.9548 110.755 13.1095 110.755 12.0695C110.755 11.0255 111.658 10.1788 112.772 10.1788ZM103.914 10.1788C105.023 10.1788 105.919 11.0255 105.919 12.0695C105.919 13.1095 105.023 13.9548 103.914 13.9548C102.794 13.9548 101.898 13.1095 101.898 12.0695C101.898 11.0255 102.794 10.1788 103.914 10.1788ZM95.0537 10.1788C96.1631 10.1788 97.0591 11.0255 97.0591 12.0695C97.0591 13.1095 96.1631 13.9548 95.0537 13.9548C93.9404 13.9548 93.0377 13.1095 93.0377 12.0695C93.0377 11.0255 93.9404 10.1788 95.0537 10.1788ZM86.1897 10.1788C87.2964 10.1788 88.1991 11.0255 88.1991 12.0695C88.1991 13.1095 87.2964 13.9548 86.1897 13.9548C85.0804 13.9548 84.1724 13.1095 84.1724 12.0695C84.1724 11.0255 85.0804 10.1788 86.1897 10.1788ZM77.5831 10.1788C78.6977 10.1788 79.5951 11.0255 79.5951 12.0695C79.5951 13.1095 78.6977 13.9548 77.5831 13.9548C76.4684 13.9548 75.5724 13.1095 75.5724 12.0695C75.5724 11.0255 76.4684 10.1788 77.5831 10.1788Z" fill="#EF7800"/>
<path fill-rule="evenodd" clip-rule="evenodd" d="M140.376 2.66721L141.692 6.66588H142.94L143.633 4.17121L143.779 3.51121H143.801L143.949 4.17788L144.685 6.66588H145.932L147.241 2.66721H146.185L145.555 4.87788L145.357 5.70588H145.341L145.139 4.88321L144.46 2.66721H143.22L142.565 4.86054L142.376 5.69921H142.364L142.163 4.88321L141.492 2.66721H140.376ZM147.507 2.66721L148.828 6.66588H150.071L150.771 4.17121L150.908 3.51121H150.932L151.085 4.17788L151.815 6.66588H153.064L154.377 2.66721H153.32L152.688 4.87788L152.488 5.70588H152.469L152.276 4.88321L151.591 2.66721H150.349L149.695 4.86054L149.512 5.69921H149.495L149.292 4.88321L148.633 2.66721H147.507ZM154.635 2.66721L155.963 6.66588H157.211L157.9 4.17121L158.037 3.51121H158.061L158.216 4.17788L158.952 6.66588H160.192L161.507 2.66721H160.451L159.819 4.87788L159.628 5.70588H159.612L159.411 4.88321L158.728 2.66721H157.487L156.825 4.86054L156.641 5.69921H156.625L156.423 4.88321L155.763 2.66721H154.635ZM162.755 5.56721H161.679V6.66454H162.755V5.56721ZM164.713 6.66588V4.45788C164.713 3.73921 165.157 3.46054 165.541 3.46054C166.069 3.46054 166.117 3.94188 166.117 4.41921V6.66588H167.167V4.45788C167.167 3.78054 167.579 3.46054 167.983 3.46054C168.58 3.46054 168.575 4.04454 168.575 4.41921V6.66588H169.625V3.99921C169.625 2.68988 168.7 2.60321 168.344 2.60321C167.833 2.60321 167.309 2.81521 167.035 3.35121H167.012C166.907 3.00588 166.627 2.60321 165.909 2.60321C165.399 2.60321 164.915 2.83388 164.68 3.34454H164.661V2.66721H163.661V6.66588H164.713ZM170.723 3.69521C171.195 3.43121 171.596 3.33788 172.011 3.33788C172.137 3.33388 172.871 3.35654 172.905 4.02188L172.911 4.19521H172.821C172.625 4.19521 172.429 4.18988 172.235 4.18988C170.535 4.18988 170.245 4.95921 170.245 5.50988C170.245 6.13521 170.66 6.72854 171.665 6.72854C172.544 6.72854 172.833 6.25121 172.923 6.07921H172.935V6.66588H173.964V4.14188C173.964 3.53388 173.813 2.60321 172.193 2.60321C171.653 2.60321 171.205 2.67121 170.723 2.86721V3.69521ZM172.911 4.84988V4.94721C172.911 5.81521 172.383 6.01521 171.953 6.01521C171.493 6.01521 171.313 5.78588 171.313 5.49921C171.313 4.86054 172.153 4.84988 172.735 4.84988H172.911ZM174.848 2.66721V6.66588H175.904V4.74054C175.904 3.62054 176.496 3.38988 176.876 3.38988C176.98 3.38988 177.135 3.40854 177.215 3.41254L177.256 2.64854C177.14 2.62588 177.008 2.60321 176.904 2.60321C176.285 2.60321 175.924 3.03921 175.831 3.52854H175.808V2.66721H174.848ZM177.767 0.873876V6.66588H178.819V4.63788H178.853L180.169 6.66588H181.449L179.847 4.47654L181.312 2.66721H180.105L178.853 4.32721H178.819V0.873876H177.767ZM185.311 4.98188V4.74054C185.311 4.38988 185.276 2.60321 183.46 2.60321C182.387 2.60321 181.484 3.37388 181.484 4.66588C181.484 6.07921 182.444 6.72854 183.637 6.72854C184.123 6.72854 184.616 6.63654 185.024 6.48188V5.69521C184.644 5.86721 184.236 5.96988 183.776 5.96988C182.983 5.96988 182.615 5.49254 182.588 4.98188H185.311ZM182.588 4.26321C182.592 3.73921 182.937 3.32721 183.404 3.32721C183.788 3.32721 184.247 3.59254 184.232 4.26321H182.588ZM186.345 3.43521V5.49254C186.345 5.75121 186.356 6.72854 187.511 6.72854C187.883 6.72854 188.263 6.64188 188.321 6.62454L188.327 5.88988C188.199 5.92454 188.052 5.95388 187.913 5.95388C187.397 5.95388 187.397 5.60188 187.397 5.25121V3.43521H188.327V2.66721H187.397V1.53921L186.345 1.86721V2.66721H185.559V3.43521H186.345ZM192.445 4.98188V4.74054C192.445 4.38988 192.421 2.60321 190.601 2.60321C189.532 2.60321 188.625 3.37388 188.625 4.66588C188.625 6.07921 189.579 6.72854 190.78 6.72854C191.256 6.72854 191.756 6.63654 192.171 6.48188V5.69521C191.787 5.86721 191.377 5.96988 190.917 5.96988C190.125 5.96988 189.756 5.49254 189.723 4.98188H192.445ZM189.723 4.26321C189.735 3.73921 190.079 3.32721 190.539 3.32721C190.929 3.32721 191.389 3.59254 191.372 4.26321H189.723ZM193.14 6.66588H194.192V0.869876H193.14V6.66588ZM198.685 4.98188V4.74054C198.685 4.38988 198.656 2.60321 196.841 2.60321C195.767 2.60321 194.857 3.37388 194.857 4.66588C194.857 6.07921 195.819 6.72854 197.015 6.72854C197.496 6.72854 197.991 6.63654 198.404 6.48188V5.69521C198.017 5.86721 197.612 5.96988 197.152 5.96988C196.357 5.96988 195.991 5.49254 195.961 4.98188H198.685ZM195.961 4.26321C195.968 3.73921 196.313 3.32721 196.772 3.32721C197.163 3.32721 197.624 3.59254 197.605 4.26321H195.961ZM202.196 2.71254C201.892 2.63254 201.564 2.60321 201.3 2.60321C199.88 2.60321 199.145 3.55788 199.145 4.62588C199.145 5.68321 199.8 6.72854 201.231 6.72854C201.684 6.72854 202.057 6.63654 202.259 6.57388L202.219 5.80854C201.949 5.92454 201.649 5.96988 201.415 5.96988C200.68 5.96988 200.237 5.41254 200.237 4.68321C200.237 3.87788 200.781 3.35654 201.484 3.35654C201.731 3.35654 201.937 3.38988 202.132 3.47121L202.196 2.71254ZM203.333 3.43521V5.49254C203.333 5.75121 203.339 6.72854 204.5 6.72854C204.873 6.72854 205.252 6.64188 205.316 6.62454V5.88988C205.184 5.92454 205.04 5.95388 204.903 5.95388C204.385 5.95388 204.385 5.60188 204.385 5.25121V3.43521H205.316V2.66721H204.385V1.53921L203.333 1.86721V2.66721H202.545V3.43521H203.333ZM205.936 2.66721V6.66588H206.987V4.74054C206.987 3.62054 207.58 3.38988 207.964 3.38988C208.068 3.38988 208.224 3.40854 208.297 3.41254L208.337 2.64854C208.235 2.62588 208.091 2.60321 207.993 2.60321C207.373 2.60321 207.011 3.03921 206.917 3.52854H206.897V2.66721H205.936ZM208.572 4.66588C208.572 6.00321 209.447 6.72854 210.635 6.72854C211.831 6.72854 212.699 6.00321 212.699 4.66588C212.699 3.32721 211.831 2.60321 210.635 2.60321C209.447 2.60321 208.572 3.32721 208.572 4.66588ZM209.676 4.66588C209.676 3.73921 210.171 3.35654 210.635 3.35654C211.101 3.35654 211.6 3.73921 211.6 4.66588C211.6 5.59654 211.101 5.96988 210.635 5.96988C210.171 5.96988 209.676 5.59654 209.676 4.66588ZM214.388 5.56721H213.307V6.66454H214.388V5.56721ZM215.293 2.66721V6.66588H216.347V4.74054C216.347 3.62054 216.937 3.38988 217.317 3.38988C217.425 3.38988 217.58 3.40854 217.656 3.41254L217.696 2.64854C217.587 2.62588 217.449 2.60321 217.347 2.60321C216.731 2.60321 216.369 3.03921 216.277 3.52854H216.248V2.66721H215.293ZM220.885 2.66721V4.78054C220.885 5.32188 220.551 5.87254 219.943 5.87254C219.288 5.87254 219.26 5.34854 219.26 5.08454V2.66721H218.215V5.25121C218.215 6.62454 219.156 6.72854 219.632 6.72854C219.943 6.72854 220.513 6.62454 220.904 6.04054H220.925V6.66588H221.931V2.66721H220.885Z" fill="#00539D"/>
<path fill-rule="evenodd" clip-rule="evenodd" d="M91.5757 38.9504L92.3891 39.0597C92.2877 39.4157 92.0811 39.7144 91.7704 39.9504C91.4664 40.1797 91.0864 40.2957 90.6211 40.2957C90.0691 40.2957 89.6211 40.1104 89.2877 39.7437C88.9491 39.3744 88.7824 38.8691 88.7824 38.2437C88.7824 37.6411 88.9491 37.1517 89.2944 36.7504C89.6331 36.3664 90.0917 36.1624 90.6784 36.1624C91.2424 36.1624 91.6891 36.3597 91.9944 36.7451C92.3051 37.1371 92.4597 37.6357 92.4597 38.2384V38.3411H89.7184C89.7184 38.6104 89.7477 38.8291 89.7944 38.9904C89.8464 39.1517 89.9491 39.2957 90.0997 39.4157C90.2597 39.5357 90.4491 39.5931 90.6784 39.5931C91.1211 39.5931 91.4197 39.3744 91.5757 38.9504ZM91.5171 37.7677C91.5171 37.4797 91.4371 37.2451 91.2597 37.0651C91.0917 36.8891 90.8811 36.7957 90.6331 36.7957C90.3851 36.7957 90.1784 36.8824 90.0131 37.0491C89.8464 37.2157 89.7477 37.4517 89.7184 37.7677H91.5171ZM96.6491 37.8424L98.1024 40.2131H97.1251L96.0037 38.4224L95.7464 38.5011V40.2131H94.8784V38.5011L94.6077 38.4224L93.4597 40.2131H92.5744L93.9984 38.1117L92.7184 36.2464H93.6597L94.7344 37.8024L94.8784 37.8424V36.2464H95.7464V37.8424L95.8837 37.8024L96.9584 36.2464H97.8531L96.6491 37.8424ZM100.974 38.9504L101.784 39.0597C101.681 39.4157 101.473 39.7144 101.169 39.9504C100.858 40.1797 100.481 40.2957 100.02 40.2957C99.4637 40.2957 99.0211 40.1104 98.6811 39.7437C98.3424 39.3744 98.1704 38.8691 98.1704 38.2437C98.1704 37.6411 98.3491 37.1517 98.6811 36.7504C99.0264 36.3664 99.4864 36.1624 100.072 36.1624C100.64 36.1624 101.077 36.3597 101.388 36.7451C101.704 37.1371 101.858 37.6357 101.858 38.2384L101.853 38.3411H99.1131C99.1131 38.6104 99.1344 38.8291 99.1877 38.9904C99.2411 39.1517 99.3491 39.2957 99.4971 39.4157C99.6477 39.5357 99.8357 39.5931 100.072 39.5931C100.516 39.5931 100.813 39.3744 100.974 38.9504ZM100.917 37.7677C100.91 37.4797 100.825 37.2451 100.658 37.0651C100.486 36.8891 100.278 36.7957 100.026 36.7957C99.7797 36.7957 99.5731 36.8824 99.4064 37.0491C99.2411 37.2157 99.1424 37.4517 99.1131 37.7677H100.917ZM104.916 37.6237L106.306 40.2131H105.34L104.296 38.2957L103.584 39.0477V40.2131H102.681V36.2464H103.584V37.4224C103.584 37.6757 103.572 37.9051 103.554 38.1064C103.681 37.9264 103.813 37.7837 103.926 37.6584L105.272 36.2464H106.157L104.916 37.6237ZM106.748 40.2131V36.2464H108.822C109.3 36.2464 109.632 36.3477 109.812 36.5491C109.989 36.7504 110.081 36.9784 110.081 37.2344C110.081 37.6704 109.822 37.9677 109.31 38.1171C109.913 38.2677 110.225 38.5944 110.225 39.1117C110.225 39.4384 110.121 39.7037 109.909 39.9051C109.694 40.1104 109.402 40.2131 109.01 40.2131H106.748ZM107.65 37.8771H108.684C109.029 37.8771 109.201 37.7077 109.201 37.3757C109.201 37.0611 109.029 36.8997 108.684 36.8997H107.65V37.8771ZM107.65 39.5197H108.684C108.909 39.5197 109.07 39.4731 109.161 39.3811C109.258 39.2957 109.305 39.1517 109.305 38.9624C109.305 38.5944 109.098 38.4051 108.684 38.4051H107.65V39.5197ZM114.453 40.2131H113.597C113.522 39.9784 113.482 39.7077 113.464 39.4157C113.224 40.0064 112.77 40.2957 112.108 40.2957C111.712 40.2957 111.39 40.1797 111.15 39.9504C110.909 39.7197 110.793 39.4264 110.793 39.0717C110.793 38.1637 111.59 37.7077 113.206 37.7077H113.464V37.4117C113.464 37.0024 113.184 36.7957 112.614 36.7957C112.064 36.7957 111.758 37.0024 111.685 37.4117L110.913 37.3024C110.96 36.9677 111.128 36.6984 111.432 36.4784C111.729 36.2717 112.165 36.1624 112.734 36.1624C113.038 36.1624 113.293 36.1931 113.486 36.2384C113.688 36.2917 113.85 36.3811 113.981 36.4971C114.121 36.6251 114.204 36.7557 114.264 36.8997C114.313 37.0384 114.34 37.2784 114.34 37.6237V39.4157C114.34 39.6744 114.384 39.9384 114.453 40.2131ZM113.464 38.1931C112.293 38.1931 111.712 38.4757 111.712 39.0251C111.712 39.1931 111.776 39.3291 111.892 39.4451C112.012 39.5584 112.184 39.6171 112.418 39.6171C112.764 39.6171 113.021 39.5131 113.2 39.3024C113.373 39.0771 113.464 38.8357 113.464 38.5664V38.1931ZM116.344 41.5517H115.424V36.2464H116.286V36.9344C116.566 36.4224 116.968 36.1624 117.509 36.1624C117.953 36.1624 118.301 36.3597 118.566 36.7384C118.829 37.1251 118.968 37.6117 118.968 38.2037C118.968 38.7651 118.837 39.2544 118.584 39.6744C118.33 40.0891 117.958 40.2957 117.464 40.2957C116.946 40.2957 116.577 40.0824 116.344 39.6624V41.5517ZM116.344 38.5891C116.344 38.8757 116.429 39.1117 116.594 39.3064C116.773 39.4971 116.964 39.5891 117.176 39.5891C117.464 39.5891 117.676 39.4677 117.802 39.2157C117.941 38.9677 118.01 38.6451 118.01 38.2611C118.01 37.8584 117.941 37.5317 117.802 37.2784C117.67 37.0277 117.468 36.8997 117.205 36.8997C116.964 36.8997 116.761 37.0024 116.589 37.2091C116.424 37.4171 116.344 37.6877 116.344 38.0251V38.5891ZM120.308 40.2131V36.9397H119.204V36.2464H122.3V36.9397H121.209V40.2131H120.308ZM126.26 40.2131H125.404C125.329 39.9784 125.276 39.7077 125.265 39.4157C125.022 40.0064 124.57 40.2957 123.914 40.2957C123.518 40.2957 123.196 40.1797 122.956 39.9504C122.714 39.7197 122.586 39.4264 122.586 39.0717C122.586 38.1637 123.398 37.7077 125.008 37.7077H125.265V37.4117C125.265 37.0024 124.977 36.7957 124.42 36.7957C123.869 36.7957 123.553 37.0024 123.484 37.4117L122.721 37.3024C122.76 36.9677 122.933 36.6984 123.233 36.4784C123.529 36.2717 123.966 36.1624 124.534 36.1624C124.846 36.1624 125.098 36.1931 125.289 36.2384C125.482 36.2917 125.654 36.3811 125.788 36.4971C125.925 36.6251 126.013 36.7557 126.065 36.8997C126.117 37.0384 126.144 37.2784 126.144 37.6237V39.4157C126.144 39.6744 126.18 39.9384 126.26 40.2131ZM125.265 38.1931C124.098 38.1931 123.518 38.4757 123.518 39.0251C123.518 39.1931 123.57 39.3291 123.69 39.4451C123.805 39.5584 123.99 39.6171 124.225 39.6171C124.565 39.6171 124.824 39.5131 125.001 39.3024C125.18 39.0771 125.265 38.8357 125.265 38.5664V38.1931ZM126.644 40.2131L127.918 36.2464H128.988L130.229 40.2131H129.28L128.378 36.9397L127.368 40.2131H126.644ZM130.729 40.2131V36.2464H131.637V37.6931H132.688C133.142 37.6931 133.481 37.8171 133.693 38.0597C133.906 38.3077 134.016 38.6064 134.016 38.9677C134.021 39.3637 133.901 39.6744 133.665 39.8864C133.429 40.1037 133.108 40.2131 132.688 40.2131H130.729ZM131.637 39.5197H132.51C132.729 39.5197 132.89 39.4731 132.988 39.3864C133.085 39.3024 133.124 39.1571 133.124 38.9624C133.124 38.5544 132.924 38.3531 132.51 38.3531H131.637V39.5197ZM134.694 40.2131V36.2464H135.594V37.7717H137.164V36.2464H138.06V40.2131H137.164V38.4691H135.594V40.2131H134.694ZM139.181 40.2131V36.2464H140.082V37.6931H141.133C141.586 37.6931 141.926 37.8171 142.145 38.0597C142.358 38.3077 142.461 38.6064 142.461 38.9677C142.461 39.3637 142.348 39.6744 142.112 39.8864C141.881 40.1037 141.554 40.2131 141.133 40.2131H139.181ZM140.082 39.5197H140.956C141.18 39.5197 141.336 39.4731 141.433 39.3864C141.524 39.3024 141.576 39.1571 141.576 38.9624C141.576 38.5544 141.369 38.3531 140.956 38.3531H140.082V39.5197ZM142.978 36.2464H143.88V40.2091H142.978V36.2464ZM145.902 39.8077V40.2077H145V36.2384H145.902V37.9677C145.902 38.2264 145.897 38.5011 145.88 38.7957C146.018 38.5837 146.201 38.3237 146.454 38.0197L147.469 36.7504V36.2384H148.38V40.2077H147.469V38.5837C147.469 38.2557 147.481 37.9677 147.5 37.7197C147.38 37.9224 147.206 38.1637 146.981 38.4451L145.902 39.8077ZM145.488 34.4971H146.006C146.045 34.8357 146.276 35.0091 146.694 35.0091C147.09 35.0091 147.316 34.8357 147.368 34.4971H147.884C147.872 34.7904 147.752 35.0491 147.533 35.2557C147.316 35.4704 147.028 35.5717 146.677 35.5717C146.333 35.5717 146.052 35.4757 145.828 35.2744C145.609 35.0784 145.494 34.8131 145.488 34.4971ZM154.916 37.8424L156.37 40.2131H155.393L154.28 38.4224L154.009 38.5011V40.2131H153.146V38.5011L152.877 38.4224L151.728 40.2131H150.844L152.268 38.1117L150.986 36.2464H151.929L153.005 37.8024L153.146 37.8424V36.2464H154.009V37.8424L154.158 37.8024L155.232 36.2464H156.124L154.916 37.8424ZM159.713 36.2464L158.161 40.7611C158.066 41.0411 157.938 41.2557 157.766 41.4104C157.605 41.5651 157.374 41.6397 157.072 41.6397C156.957 41.6397 156.784 41.6344 156.56 41.6117V40.9051L156.984 40.9091C157.176 40.9091 157.312 40.8744 157.409 40.8184C157.502 40.7557 157.566 40.6451 157.622 40.4904C157.674 40.3291 157.702 40.2437 157.702 40.2131C157.702 40.1971 157.674 40.1184 157.617 39.9731L156.249 36.2464H157.192L158.161 38.8597L158.996 36.2464H159.713ZM161.23 41.5517H160.316V36.2464H161.173V36.9344C161.454 36.4224 161.857 36.1624 162.397 36.1624C162.84 36.1624 163.196 36.3597 163.46 36.7384C163.724 37.1251 163.852 37.6117 163.852 38.2037C163.852 38.7651 163.73 39.2544 163.477 39.6744C163.224 40.0891 162.846 40.2957 162.352 40.2957C161.834 40.2957 161.46 40.0824 161.23 39.6624V41.5517ZM161.23 38.5891C161.23 38.8757 161.316 39.1117 161.489 39.3064C161.661 39.4971 161.85 39.5891 162.069 39.5891C162.352 39.5891 162.558 39.4677 162.696 39.2157C162.828 38.9677 162.892 38.6451 162.892 38.2611C162.892 37.8584 162.828 37.5317 162.696 37.2784C162.558 37.0277 162.357 36.8997 162.092 36.8997C161.85 36.8997 161.65 37.0024 161.484 37.2091C161.316 37.4171 161.23 37.6877 161.23 38.0251V38.5891ZM164.678 40.2131V36.2464H165.574V37.7717H167.137V36.2464H168.044V40.2131H167.137V38.4691H165.574V40.2131H164.678ZM172.53 40.2131H171.669C171.601 39.9784 171.549 39.7077 171.532 39.4157C171.297 40.0064 170.842 40.2957 170.184 40.2957C169.78 40.2957 169.465 40.1797 169.222 39.9504C168.98 39.7197 168.86 39.4264 168.86 39.0717C168.86 38.1637 169.665 37.7077 171.278 37.7077H171.532V37.4117C171.532 37.0024 171.25 36.7957 170.693 36.7957C170.141 36.7957 169.825 37.0024 169.75 37.4117L168.986 37.3024C169.026 36.9677 169.205 36.6984 169.498 36.4784C169.802 36.2717 170.233 36.1624 170.808 36.1624C171.12 36.1624 171.37 36.1931 171.561 36.2384C171.754 36.2917 171.924 36.3811 172.056 36.4971C172.186 36.6251 172.285 36.7557 172.337 36.8997C172.382 37.0384 172.409 37.2784 172.409 37.6237V39.4157C172.409 39.6744 172.452 39.9384 172.53 40.2131ZM171.532 38.1931C170.37 38.1931 169.785 38.4757 169.785 39.0251C169.785 39.1931 169.842 39.3291 169.965 39.4451C170.078 39.5584 170.256 39.6171 170.492 39.6171C170.837 39.6171 171.096 39.5131 171.266 39.3024C171.446 39.0771 171.532 38.8357 171.532 38.5664V38.1931ZM172.91 40.2131L174.186 36.2464H175.249L176.496 40.2131H175.553L174.652 36.9397L173.64 40.2131H172.91ZM178.43 38.5424H176.444V37.8131H178.43V38.5424ZM181.253 38.7557L182.029 38.8357C181.93 39.3291 181.736 39.7037 181.454 39.9384C181.166 40.1797 180.817 40.2957 180.409 40.2957C179.856 40.2957 179.437 40.0917 179.138 39.6984C178.84 39.3024 178.689 38.8117 178.689 38.2317C178.689 37.6357 178.852 37.1411 179.18 36.7504C179.506 36.3597 179.938 36.1624 180.482 36.1624C181.352 36.1624 181.866 36.6251 182.029 37.5317L181.253 37.6357C181.189 37.1464 180.949 36.8997 180.524 36.8997C180.224 36.8997 180.001 37.0331 179.856 37.2957C179.725 37.5664 179.649 37.8811 179.649 38.2611C179.649 38.6624 179.725 38.9731 179.862 39.1931C180.013 39.4037 180.213 39.5197 180.472 39.5197C180.866 39.5197 181.126 39.2651 181.253 38.7557ZM182.724 40.2131V36.2464H185.918V40.2131H185.016V36.8997H183.626V40.2131H182.724ZM187.917 41.5517H186.992V36.2464H187.86V36.9344C188.136 36.4224 188.542 36.1624 189.076 36.1624C189.526 36.1624 189.87 36.3597 190.134 36.7384C190.4 37.1251 190.538 37.6117 190.538 38.2037C190.538 38.7651 190.41 39.2544 190.152 39.6744C189.905 40.0891 189.532 40.2957 189.032 40.2957C188.517 40.2957 188.146 40.0824 187.917 39.6624V41.5517ZM187.917 38.5891C187.917 38.8757 187.997 39.1117 188.17 39.3064C188.348 39.4971 188.537 39.5891 188.745 39.5891C189.038 39.5891 189.245 39.4677 189.377 39.2157C189.509 38.9677 189.577 38.6451 189.577 38.2611C189.577 37.8584 189.509 37.5317 189.377 37.2784C189.238 37.0277 189.042 36.8997 188.773 36.8997C188.537 36.8997 188.332 37.0024 188.165 37.2091C187.992 37.4171 187.917 37.6877 187.917 38.0251V38.5891ZM194.765 40.2131H193.909C193.834 39.9784 193.789 39.7077 193.773 39.4157C193.529 40.0064 193.081 40.2957 192.421 40.2957C192.02 40.2957 191.704 40.1797 191.462 39.9504C191.221 39.7197 191.094 39.4264 191.094 39.0717C191.094 38.1637 191.905 37.7077 193.514 37.7077H193.773V37.4117C193.773 37.0024 193.49 36.7957 192.926 36.7957C192.374 36.7957 192.066 37.0024 191.997 37.4117L191.228 37.3024C191.268 36.9677 191.438 36.6984 191.742 36.4784C192.037 36.2717 192.472 36.1624 193.044 36.1624C193.353 36.1624 193.605 36.1931 193.8 36.2384C193.996 36.2917 194.157 36.3811 194.296 36.4971C194.428 36.6251 194.525 36.7557 194.577 36.8997C194.628 37.0384 194.645 37.2784 194.645 37.6237V39.4157C194.645 39.6744 194.686 39.9384 194.765 40.2131ZM193.773 38.1931C192.606 38.1931 192.02 38.4757 192.02 39.0251C192.02 39.1931 192.081 39.3291 192.204 39.4451C192.317 39.5584 192.49 39.6171 192.733 39.6171C193.076 39.6171 193.336 39.5131 193.508 39.3024C193.68 39.0771 193.773 38.8357 193.773 38.5664V38.1931ZM195.732 40.2131V36.2464H197.804C198.288 36.2464 198.621 36.3477 198.798 36.5491C198.977 36.7504 199.069 36.9784 199.069 37.2344C199.069 37.6704 198.81 37.9677 198.293 38.1171C198.908 38.2677 199.212 38.5944 199.212 39.1117C199.212 39.4384 199.109 39.7037 198.896 39.9051C198.689 40.1104 198.39 40.2131 198.001 40.2131H195.732ZM196.632 37.8771H197.666C198.018 37.8771 198.196 37.7077 198.196 37.3757C198.196 37.0611 198.018 36.8997 197.666 36.8997H196.632V37.8771ZM196.632 39.5197H197.666C197.892 39.5197 198.053 39.4731 198.15 39.3811C198.241 39.2957 198.293 39.1517 198.293 38.9624C198.293 38.5944 198.078 38.4051 197.666 38.4051H196.632V39.5197ZM201.59 40.2957C201.005 40.2957 200.557 40.0891 200.242 39.6624C199.929 39.2437 199.776 38.7597 199.776 38.2157C199.776 37.6304 199.948 37.1411 200.294 36.7504C200.636 36.3597 201.092 36.1624 201.654 36.1624C202.193 36.1624 202.63 36.3544 202.976 36.7331C203.321 37.1171 203.486 37.6117 203.486 38.2157C203.486 38.8411 203.309 39.3411 202.953 39.7264C202.597 40.1037 202.144 40.2957 201.59 40.2957ZM201.626 39.5531C202.234 39.5531 202.534 39.1064 202.534 38.2091C202.534 37.8077 202.465 37.4851 202.321 37.2504C202.177 37.0157 201.953 36.8997 201.648 36.8997C201.34 36.8997 201.109 37.0211 200.96 37.2597C200.809 37.5024 200.736 37.8251 200.736 38.2264C200.736 38.6571 200.816 38.9904 200.97 39.2157C201.132 39.4451 201.352 39.5531 201.626 39.5531ZM206.412 40.2131V38.6504C206.118 38.8811 205.773 39.0024 205.377 39.0024C205.004 39.0024 204.705 38.8997 204.498 38.7037C204.285 38.5091 204.184 38.2264 204.184 37.8691V36.2464H205.085V37.7451C205.085 38.0944 205.285 38.2677 205.677 38.2677C205.957 38.2677 206.198 38.2091 206.412 38.1064V36.2464H207.318V40.2131H206.412ZM208.394 40.2131V36.2464H209.297V37.7717H210.857V36.2464H211.76V40.2131H210.857V38.4691H209.297V40.2131H208.394ZM213.742 39.8131V40.2131H212.834V36.2464H213.742V37.9677C213.742 38.2264 213.737 38.5091 213.72 38.8024C213.852 38.5891 214.041 38.3304 214.288 38.0251L215.31 36.7557V36.2464H216.213V40.2131H215.31V38.5891C215.31 38.2611 215.322 37.9757 215.34 37.7277C215.218 37.9264 215.04 38.1691 214.817 38.4504L213.742 39.8131ZM219.533 37.6237L220.929 40.2131H219.96L218.912 38.2957L218.201 39.0477V40.2131H217.298V36.2464H218.201V37.4224C218.201 37.6757 218.189 37.9051 218.172 38.1064C218.304 37.9264 218.43 37.7837 218.552 37.6584L219.89 36.2464H220.774L219.533 37.6237Z" fill="#EF7800"/>
<path fill-rule="evenodd" clip-rule="evenodd" d="M144.308 14.4549H144.327L144.355 14.3629L144.579 14.0189H144.797V14.6843H144.579V14.3336L144.591 14.2549H144.579L144.539 14.3336L144.327 14.6843H144.103V14.0189H144.327V14.3629L144.308 14.4549ZM145.269 14.4083V14.6843H145.051V14.0189H145.269V14.2589H145.476V14.0189H145.693V14.6843H145.476V14.4083H145.269ZM145.872 14.5349H145.957C146.027 14.4203 146.056 14.2923 146.056 14.1429V14.0189H146.636V14.5349H146.739L146.727 14.8576H146.556V14.6843H146.067V14.8576H145.884L145.872 14.5349ZM146.411 14.1683H146.249V14.2296C146.249 14.2923 146.245 14.3443 146.233 14.3976C146.223 14.4483 146.205 14.4949 146.181 14.5349H146.411V14.1683ZM147.117 14.2363H146.919C146.929 14.0816 147.039 14.0003 147.239 14.0003C147.371 14.0003 147.452 14.0229 147.492 14.0749C147.527 14.1203 147.539 14.1843 147.539 14.2549V14.5523L147.544 14.6389L147.572 14.6843H147.343L147.325 14.6269C147.268 14.6843 147.187 14.7136 147.089 14.7069C146.957 14.7029 146.893 14.6389 146.889 14.5229C146.889 14.4723 146.9 14.4309 146.929 14.3976C146.957 14.3629 146.991 14.3389 147.039 14.3269C147.061 14.3216 147.1 14.3109 147.16 14.3043C147.227 14.2989 147.268 14.2883 147.291 14.2816L147.321 14.2363V14.2176C147.321 14.1603 147.291 14.1323 147.227 14.1323C147.187 14.1323 147.16 14.1429 147.14 14.1683L147.117 14.2363ZM147.321 14.3749L147.256 14.3976L147.192 14.4136C147.136 14.4309 147.108 14.4603 147.113 14.5069L147.136 14.5576L147.187 14.5749L147.284 14.5349C147.301 14.5069 147.313 14.4656 147.313 14.4083L147.321 14.3749ZM148.199 14.4256H148.412C148.405 14.5069 148.371 14.5749 148.313 14.6216C148.256 14.6789 148.181 14.7069 148.084 14.7069C147.941 14.7069 147.843 14.6683 147.795 14.5816C147.757 14.5003 147.733 14.4203 147.733 14.3389C147.733 14.2656 147.757 14.1789 147.795 14.0976C147.843 14.0229 147.947 13.9843 148.089 13.9883C148.164 13.9963 148.227 14.0069 148.268 14.0349C148.313 14.0709 148.348 14.0976 148.365 14.1376C148.389 14.1789 148.4 14.2176 148.405 14.2656H148.199C148.193 14.1843 148.153 14.1429 148.089 14.1429L148.008 14.1789C147.98 14.2069 147.964 14.2589 147.964 14.3336C147.964 14.4136 147.976 14.4723 148.003 14.5069L148.089 14.5576L148.175 14.5176L148.199 14.4256ZM148.749 14.1723H148.537V14.0189H149.187V14.1723H148.975V14.6843H148.749V14.1723ZM149.352 14.0189H149.537V14.0936H149.543C149.612 14.0229 149.687 13.9883 149.767 13.9883C149.831 13.9883 149.888 14.0069 149.935 14.0403C149.973 14.0749 150.009 14.1096 150.025 14.1683C150.055 14.2243 150.059 14.2883 150.059 14.3496C150.059 14.4136 150.049 14.4723 150.032 14.5229C150.013 14.5749 149.98 14.6216 149.935 14.6536C149.893 14.6909 149.836 14.7069 149.761 14.7069C149.687 14.7029 149.617 14.6736 149.571 14.6216H149.565L149.571 14.6843V14.9309H149.352V14.0189ZM149.692 14.5403C149.732 14.5403 149.767 14.5229 149.796 14.4883C149.819 14.4549 149.831 14.4016 149.831 14.3443C149.831 14.2923 149.819 14.2469 149.796 14.2123C149.773 14.1789 149.739 14.1563 149.692 14.1563L149.6 14.2069C149.577 14.2416 149.559 14.2883 149.559 14.3443C149.559 14.4136 149.577 14.4656 149.6 14.4949L149.692 14.5403ZM150.48 14.4549H150.491L150.525 14.3629L150.744 14.0189H150.968V14.6843H150.744V14.3336L150.761 14.2549H150.744L150.709 14.3336L150.491 14.6843H150.267V14.0189H150.491V14.3629L150.48 14.4549ZM151.416 14.2363H151.215C151.221 14.0816 151.331 14.0003 151.529 14.0003C151.664 14.0003 151.748 14.0229 151.784 14.0749C151.819 14.1203 151.836 14.1843 151.836 14.2549V14.5523L151.845 14.6389L151.871 14.6843H151.635L151.615 14.6269C151.565 14.6843 151.485 14.7136 151.388 14.7069C151.255 14.7029 151.187 14.6389 151.18 14.5229C151.18 14.4723 151.197 14.4309 151.221 14.3976C151.249 14.3629 151.289 14.3389 151.331 14.3269C151.359 14.3216 151.399 14.3109 151.451 14.3043C151.517 14.2989 151.565 14.2883 151.583 14.2816L151.612 14.2363V14.2176C151.612 14.1603 151.583 14.1323 151.525 14.1323C151.48 14.1323 151.451 14.1429 151.44 14.1683L151.416 14.2363ZM151.612 14.3749L151.549 14.3976L151.485 14.4136C151.428 14.4309 151.399 14.4603 151.404 14.5069L151.428 14.5576L151.485 14.5749L151.577 14.5349C151.605 14.5069 151.612 14.4656 151.612 14.4083V14.3749ZM151.991 14.6909V14.5349H152.037L152.088 14.5109L152.116 14.4429C152.123 14.4083 152.128 14.3629 152.128 14.3043L152.135 14.0189H152.721V14.6843H152.496V14.1683H152.341L152.335 14.3163C152.331 14.4016 152.331 14.4723 152.319 14.5296C152.307 14.5749 152.284 14.6216 152.244 14.6496C152.209 14.6789 152.151 14.6963 152.083 14.6963L151.991 14.6909Z" fill="#1A69AC"/>
<path fill-rule="evenodd" clip-rule="evenodd" d="M151.546 10.6275L152.024 10.3635C151.881 9.97948 151.673 9.61815 151.425 9.30081L150.914 9.55948C150.914 9.55948 150.822 9.45015 150.73 9.35815C150.64 9.26081 150.574 9.20881 150.574 9.20881L150.874 8.73148C150.553 8.46215 150.19 8.24348 149.794 8.09548L149.508 8.59548C149.508 8.59548 149.388 8.55415 149.237 8.51415C149.105 8.47948 149.018 8.46215 149.018 8.46215L149.037 7.88881C148.83 7.85948 148.624 7.83681 148.409 7.83681C148.198 7.83681 147.99 7.85948 147.784 7.88881L147.806 8.46215C147.806 8.46215 147.709 8.47948 147.589 8.51415C147.432 8.55415 147.318 8.59548 147.318 8.59548L147.025 8.09548C146.634 8.24348 146.266 8.46215 145.946 8.73148L146.244 9.20881C146.244 9.20881 146.181 9.26081 146.082 9.35815C145.996 9.45015 145.912 9.55948 145.912 9.55948L145.401 9.30081C145.141 9.61815 144.94 9.97948 144.792 10.3635L145.266 10.6275C145.266 10.6275 145.21 10.7608 145.186 10.8701C145.169 10.9448 145.157 10.9941 145.146 11.0408H146.134C146.261 10.5075 146.577 10.0368 146.996 9.71948C147.388 9.41548 147.882 9.24348 148.417 9.24348C148.685 9.24348 148.94 9.29015 149.18 9.36481C149.9 9.61815 150.462 10.2088 150.673 10.9448H150.669L150.692 11.0408H151.673C151.668 10.9941 151.656 10.9448 151.638 10.8701C151.605 10.7608 151.546 10.6275 151.546 10.6275Z" fill="#1A69AC"/>
<path fill-rule="evenodd" clip-rule="evenodd" d="M143.916 13.4888L144.647 11.0408H152.171L152.896 13.4941L143.916 13.4888Z" fill="#F39100"/>
<path fill-rule="evenodd" clip-rule="evenodd" d="M148.41 11.0148L149.262 10.5855L151.794 11.2441L152.334 13.2908L149.324 12.8308L148.406 13.2441L147.492 12.7908L144.48 13.2561L145.027 11.2055L147.594 10.5735L148.41 11.0148Z" fill="#F5F6F6"/>
<path fill-rule="evenodd" clip-rule="evenodd" d="M152.395 13.3488L149.338 12.8768L148.406 13.2928L147.487 12.8368L144.421 13.3101L144.987 11.1715L147.607 10.5235L148.413 10.9595L149.257 10.5395L151.825 11.2128L152.395 13.3488ZM149.319 12.7875L152.275 13.2355L151.757 11.2875L149.267 10.6315L148.413 11.0688L147.59 10.6221L145.07 11.2461L144.547 13.2008L147.499 12.7461L148.406 13.1941L149.319 12.7875Z" fill="#F39100"/>
<path fill-rule="evenodd" clip-rule="evenodd" d="M148.453 13.244H148.363V11.032H148.453V13.244Z" fill="#F39100"/>
<path fill-rule="evenodd" clip-rule="evenodd" d="M148.837 10.0395H149.234V10.1648H149.361V9.91814H148.922H148.798L148.406 8.69014L148.017 9.91814H147.895H147.441V10.1648H147.562V10.0395H147.981L147.763 10.7221L147.178 12.5835L148.429 11.9048L149.647 12.5835L148.837 10.0395ZM149.125 11.3595L148.531 11.0208L148.951 10.7968L149.125 11.3595ZM148.413 10.9515L147.975 10.6995L148.406 10.3448L148.847 10.7061L148.413 10.9515ZM148.505 10.2621L148.717 10.0848L148.877 10.5728L148.505 10.2621ZM148.406 9.09014L148.67 9.91814H148.147L148.406 9.09014ZM148.585 10.0395L148.406 10.1821L148.234 10.0395H148.585ZM148.09 10.0848L148.309 10.2621L147.941 10.5781L148.09 10.0848ZM147.871 10.7861L148.279 11.0208L147.694 11.3488L147.871 10.7861ZM147.385 12.3315L147.653 11.4688L148.303 11.8301L147.385 12.3315ZM147.814 11.4168L148.406 11.0955L149.021 11.4408L148.434 11.7675L147.814 11.4168ZM149.175 11.5048L149.434 12.3261L148.555 11.8301L149.175 11.5048Z" fill="#1A1A18"/>
<path fill-rule="evenodd" clip-rule="evenodd" d="M146.48 15.8449L146.332 15.3929H146.313L146.332 15.4836V15.8449H146.119V15.1783H146.399L146.539 15.5876L146.549 15.6636H146.561L146.565 15.5876L146.705 15.1783H146.991V15.8449H146.78V15.4836L146.796 15.3929H146.78L146.624 15.8449H146.48ZM147.693 15.6569H147.916C147.904 15.7423 147.859 15.7996 147.784 15.8289C147.705 15.8569 147.636 15.8703 147.577 15.8703C147.504 15.8703 147.416 15.8529 147.332 15.8063C147.249 15.7609 147.204 15.6676 147.204 15.5183C147.197 15.4036 147.235 15.3116 147.301 15.2489C147.365 15.1863 147.456 15.1556 147.563 15.1556C147.665 15.1556 147.745 15.1783 147.795 15.2249C147.855 15.2649 147.889 15.3223 147.904 15.3863C147.916 15.4436 147.923 15.5009 147.923 15.5583H147.447C147.452 15.6329 147.468 15.6796 147.504 15.7023L147.589 15.7316C147.648 15.7316 147.687 15.7089 147.693 15.6569ZM147.447 15.4436H147.693C147.693 15.3476 147.648 15.2943 147.572 15.2943C147.499 15.2943 147.452 15.3476 147.447 15.4436ZM148.051 15.6969H148.141C148.211 15.5823 148.239 15.4556 148.239 15.3063V15.1783H148.819V15.6969H148.923L148.904 16.0169H148.739V15.8449H148.251V16.0169H148.065L148.051 15.6969ZM148.596 15.3289H148.435V15.3929C148.435 15.4556 148.428 15.5076 148.417 15.5583C148.405 15.6103 148.389 15.6569 148.365 15.6969H148.596V15.3289ZM149.313 15.6103H149.325L149.36 15.5249L149.583 15.1783H149.801V15.8449H149.583V15.4956L149.595 15.4156H149.583L149.543 15.4956L149.325 15.8449H149.107V15.1783H149.325V15.5249L149.313 15.6103ZM150.251 15.3983H150.049C150.055 15.2423 150.165 15.1636 150.371 15.1636C150.496 15.1636 150.583 15.1863 150.617 15.2356C150.659 15.2836 150.669 15.3476 150.669 15.4156V15.7143L150.675 15.7996L150.703 15.8449H150.473L150.451 15.7889C150.397 15.8449 150.319 15.8743 150.221 15.8703C150.089 15.8636 150.02 15.7996 150.02 15.6849C150.013 15.6329 150.032 15.5929 150.055 15.5583C150.081 15.5249 150.123 15.5009 150.169 15.4903C150.191 15.4836 150.231 15.4729 150.284 15.4676C150.352 15.4609 150.397 15.4503 150.423 15.4436L150.445 15.3983V15.3809C150.445 15.3223 150.423 15.2943 150.359 15.2943C150.312 15.2943 150.284 15.3063 150.273 15.3289L150.251 15.3983ZM150.445 15.5356L150.388 15.5649L150.325 15.5769C150.261 15.5929 150.239 15.6223 150.239 15.6676L150.261 15.7196L150.319 15.7356L150.409 15.6969C150.435 15.6676 150.445 15.6276 150.445 15.5703V15.5356Z" fill="#F39100"/>
<path fill-rule="evenodd" clip-rule="evenodd" d="M210.666 31.0728V32.6541H206.885V16.9461H210.666V23.7715C210.666 24.8061 210.637 25.9021 210.585 27.0581C211.137 26.2168 211.937 25.1968 212.974 23.9795L217.267 18.9741V16.9461H221.053V32.6541H217.267V26.2021C217.267 24.9195 217.306 23.7835 217.387 22.8128C216.854 23.6208 216.123 24.5768 215.199 25.6781L210.666 31.0728ZM200.542 22.3848L206.379 32.6541H202.317L197.917 25.0635L194.93 28.0221V32.6541H191.149V16.9461H194.93V21.6168C194.93 22.6168 194.901 23.5181 194.814 24.3061C195.366 23.6208 195.895 23.0355 196.394 22.5528L202.021 16.9461H205.735L200.542 22.3848ZM177.531 31.0728V32.6541H173.751V16.9461H177.531V23.7715C177.531 24.8061 177.51 25.9021 177.459 27.0581C178.003 26.2168 178.802 25.1968 179.849 23.9795L184.138 18.9741V16.9461H187.919V32.6541H184.138V26.2021C184.138 24.9195 184.181 23.7835 184.254 22.8128C183.726 23.6208 182.995 24.5768 182.066 25.6781L177.531 31.0728ZM156.414 32.6541V16.9461H160.194V23.0008H166.749V16.9461H170.535V32.6541H166.749V25.7475H160.194V32.6541H156.414ZM155.482 32.6541H151.174L147.613 26.9328L143.733 32.6541H140.481L146.055 24.5701L141.229 16.9461H145.554L148.311 21.5715L151.449 16.9461H154.614L149.887 23.7608L155.482 32.6541ZM137.09 22.9555C137.081 21.8235 136.718 20.8995 136.006 20.1808C135.294 19.4675 134.414 19.1048 133.357 19.1048C132.318 19.1048 131.45 19.4435 130.754 20.1101C130.058 20.7835 129.645 21.7261 129.525 22.9555H137.09ZM137.321 27.6501L140.746 28.0861C140.303 29.5035 139.435 30.6835 138.161 31.6021C136.867 32.5275 135.265 32.9875 133.33 32.9875C131.007 32.9875 129.135 32.2568 127.715 30.7928C126.302 29.3261 125.594 27.3501 125.594 24.8448C125.594 22.4795 126.307 20.5075 127.734 18.9555C129.158 17.3995 131.099 16.6195 133.541 16.6195C135.931 16.6195 137.774 17.3875 139.086 18.9221C140.389 20.4555 141.038 22.4275 141.038 24.8288L141.027 25.2355H129.525C129.525 26.3115 129.634 27.1595 129.853 27.8115C130.066 28.4475 130.495 29.0101 131.134 29.4875C131.785 29.9661 132.578 30.1995 133.541 30.1995C135.41 30.1995 136.673 29.3488 137.321 27.6501ZM117.546 32.6541V19.7035H112.898V16.9461H125.911V19.7035H121.326V32.6541H117.546ZM105.378 30.0635C107.917 30.0635 109.198 28.2861 109.198 24.7315C109.198 23.1141 108.889 21.8515 108.285 20.9221C107.67 19.9955 106.734 19.5261 105.475 19.5261C104.171 19.5261 103.206 20.0075 102.574 20.9675C101.942 21.9275 101.626 23.2021 101.626 24.7888C101.626 26.4995 101.959 27.8115 102.633 28.7128C103.305 29.6075 104.217 30.0635 105.378 30.0635ZM105.246 32.9875C102.769 32.9875 100.879 32.1488 99.5688 30.4768C98.2661 28.8035 97.6101 26.8968 97.6101 24.7355C97.6101 22.4155 98.3275 20.4861 99.7755 18.9381C101.218 17.3941 103.125 16.6195 105.493 16.6195C107.739 16.6195 109.583 17.3715 111.026 18.8768C112.467 20.3795 113.193 22.3355 113.193 24.7355C113.193 27.2168 112.445 29.2115 110.945 30.7168C109.446 32.2288 107.551 32.9875 105.246 32.9875ZM85.5675 26.2168C85.5675 27.3621 85.9248 28.3101 86.6541 29.0568C87.3781 29.8035 88.1821 30.1835 89.0675 30.1835C90.2755 30.1835 91.1528 29.6955 91.7155 28.6941C92.2741 27.7075 92.5435 26.4488 92.5435 24.9315C92.5435 23.3275 92.2741 22.0355 91.7035 21.0315C91.1355 20.0315 90.3021 19.5261 89.1821 19.5261C88.1768 19.5261 87.3195 19.9381 86.6195 20.7608C85.9128 21.5768 85.5675 22.6515 85.5675 23.9795V26.2168ZM85.5901 40.6568H81.6048L81.7128 16.9461H85.3328V19.6915C86.4928 17.6408 88.2061 16.6195 90.4568 16.6195C92.3141 16.6195 93.7955 17.3768 94.9048 18.8941C96.0141 20.4035 96.5648 22.3408 96.5648 24.6968C96.5648 26.9261 96.0368 28.8608 94.9795 30.5101C93.9275 32.1581 92.3475 32.9875 90.2555 32.9875C88.1021 32.9875 86.5381 32.1488 85.5675 30.4701L85.5901 40.6568ZM72.5901 32.6541V19.7035H67.9421V16.9461H81.7128V19.7035H76.3688V32.6541H72.5901ZM64.0408 22.3848L69.8781 32.6541H65.8088L61.4141 25.0635L58.4275 28.0221V32.6541H54.6461V16.9461H58.4275V21.6168C58.4275 22.6168 58.3928 23.5181 58.3115 24.3061C58.8595 23.6208 59.3875 23.0355 59.8861 22.5528L65.5115 16.9461H69.2341L64.0408 22.3848ZM48.5675 22.9555C48.5555 21.8235 48.1941 20.8995 47.4835 20.1808C46.7701 19.4675 45.8915 19.1048 44.8395 19.1048C43.7955 19.1048 42.9275 19.4435 42.2315 20.1101C41.5355 20.7835 41.1288 21.7261 41.0008 22.9555H48.5675ZM48.7981 27.6501L52.2235 28.0861C51.7795 29.5035 50.9128 30.6835 49.6381 31.6021C48.3488 32.5275 46.7421 32.9875 44.8061 32.9875C42.4835 32.9875 40.6101 32.2568 39.1928 30.7928C37.7781 29.3261 37.0715 27.3501 37.0715 24.8448C37.0715 22.4795 37.7848 20.5075 39.2155 18.9555C40.6395 17.3995 42.5768 16.6195 45.0181 16.6195C47.4088 16.6195 49.2515 17.3875 50.5621 18.9221C51.8608 20.4555 52.5208 22.4275 52.5208 24.8288L52.5035 25.2355H41.0008C41.0008 26.3115 41.1061 27.1595 41.3235 27.8115C41.5421 28.4475 41.9715 29.0101 42.6101 29.4875C43.2541 29.9661 44.0541 30.1995 45.0181 30.1995C46.8861 30.1995 48.1501 29.3488 48.7981 27.6501ZM22.3181 32.6541L27.6728 16.9461H32.1381L37.3488 32.6541H33.4008L29.6141 19.7035L25.3875 32.6541H22.3181Z" fill="#00539D"/>
</svg>
