<svg width="229" height="59" viewBox="0 0 229 59" fill="none" xmlns="http://www.w3.org/2000/svg">
<path fill-rule="evenodd" clip-rule="evenodd" d="M35.2224 17.0356L37.5077 17.0396L38.4304 27.1169H34.0171L35.2224 17.0356ZM35.5584 15.7769L36.4757 9.23028L37.1664 15.7916L35.5584 15.7769ZM33.5331 28.8756H38.7104L43.3264 58.5903L228.397 58.7849V56.3969H46.1117C44.2864 50.5889 41.3291 33.9276 40.7757 28.8863L50.9691 28.8249L50.9531 33.1863C52.6691 33.0076 53.3677 31.7529 54.1011 27.2956H40.3837L38.9171 17.0396L46.9037 17.0196L47.0011 20.1796C49.0264 19.6303 48.9557 17.7636 48.9557 15.8689L38.6757 15.8463L36.2251 0.0556116L34.2944 15.7916H22.7797C23.3051 18.0023 23.3611 19.8369 25.6677 20.1143L25.6944 17.0196H33.5277L32.0624 27.3343L17.8557 27.2956C18.1691 29.1689 19.7064 32.9996 21.7104 33.1863L21.5317 28.9249L31.8117 28.9076C31.3251 34.9396 28.0451 51.6689 25.8344 56.3969L0.842407 56.4036V58.7703H28.8757L33.5331 28.8756Z" fill="#EF7C00"/>
<path d="M195.575 29.7759H200.436L200.459 38.9119L204.161 29.7759H209.775L205.052 39.2385L209.976 51.4079H204.459L202.06 43.9852L200.459 46.1199L200.436 51.4079H195.575V29.7759ZM176.617 29.7759V34.0959H172.775V51.4079H167.563V34.0959H163.697V29.7759H176.617ZM150.127 29.7759H162.177V34.0959H155.415V38.0305H161.564V42.1359H155.415V47.0865H162.373V51.4079H150.127V29.7759ZM147.749 34.0959H140.8V51.4079H135.471V29.7759H147.749V34.0959ZM123.777 33.4665V38.9759C124.108 38.9865 124.389 38.9825 124.629 38.9919C126.793 39.0692 127.436 37.4545 127.436 36.0452C127.436 34.2092 126.079 33.3359 123.777 33.4665ZM118.511 29.7759H125.064C130.32 29.7759 132.491 31.0945 132.528 35.8225C132.544 38.6385 131.957 42.6839 126.769 42.6839H123.761V51.4079H118.511V29.7759ZM100.696 29.7759V51.4079H95.5372V42.3305H92.1172V51.4079H86.8679V29.7759H92.1172V37.5159H95.5372V29.7759H100.696ZM83.9639 45.4105C83.9639 47.5359 83.3945 49.0985 82.2492 50.0879C81.1025 51.0812 79.3519 51.5772 76.9679 51.5772C74.4425 51.5772 72.6252 51.0919 71.5172 50.1265C70.4092 49.1585 69.8612 47.5212 69.8612 45.1799V43.4559H75.0132V46.8372C75.0132 47.8732 76.0719 48.2639 76.9399 48.2212C77.9159 48.1719 78.7199 47.5359 78.7199 46.3972V41.4679H75.2345V38.2532H78.7199V34.4865C78.7199 33.4545 77.6079 33.0105 76.7119 33.0652C75.7559 33.1319 75.0132 33.7519 75.0132 34.7812V36.4465H69.8612V34.5745C69.8612 32.5119 70.9679 31.2252 72.0052 30.4545C73.0425 29.6879 74.2465 29.1839 76.8039 29.1839C79.1652 29.1839 80.9465 29.6492 82.1519 30.5692C83.3559 31.4959 83.9639 32.8585 83.9639 34.6492V45.4105ZM108.816 12.7359V18.8079C111.167 18.7399 112.845 18.6839 112.845 15.7745C112.845 13.0385 111.259 12.8092 108.816 12.7359ZM103.86 0.867878H109.999C111.937 0.867878 113.403 1.00254 114.408 1.27988C117.197 2.05188 117.821 3.37587 117.741 7.02387C117.723 7.92521 116.953 10.2972 114.516 10.8119C118.576 11.6545 117.985 15.7585 117.985 16.3865C117.985 20.1332 115.46 22.5065 110.981 22.5065H103.86V0.867878ZM100.997 13.5545C100.997 15.7265 100.939 17.2612 100.829 18.1639C100.716 19.0705 100.376 19.9012 99.7892 20.6439C99.2025 21.3932 98.4145 21.9692 97.4159 22.3705C96.4172 22.7732 95.2612 22.9679 93.9305 22.9679C92.6759 22.9679 91.5519 22.7772 90.5479 22.4025C89.5492 22.0239 88.7425 21.4585 88.1385 20.6972C87.5305 19.9385 87.1612 19.1185 87.0479 18.2279C86.9332 17.3332 86.8745 15.7745 86.8745 13.5545V9.84654C86.8745 7.67587 86.9279 6.13988 87.0412 5.23321C87.1505 4.33188 87.4985 3.49988 88.0839 2.75054C88.6719 2.00921 89.4572 1.43321 90.4559 1.03054C91.4505 0.634542 92.6119 0.434538 93.9305 0.434538C95.1959 0.434538 96.3185 0.623877 97.3172 0.998544C98.3239 1.37854 99.1252 1.94388 99.7332 2.70388C100.341 3.45721 100.7 4.28387 100.825 5.17321C100.935 6.06787 100.997 7.62654 100.997 9.84654V13.5545ZM95.7332 6.44254C95.7332 5.65054 95.4892 4.09721 93.9905 4.09721C92.2039 4.09721 92.1399 5.66654 92.1399 6.44254V16.5399C92.1399 17.4185 92.0759 19.3039 93.9039 19.3039C95.7985 19.3039 95.7332 17.2519 95.7332 16.3839V6.44254ZM192.505 51.4079H187.241V44.2319L187.784 39.5025L183.968 51.4079H178.495V29.7759H183.751V37.7812L183.337 42.1745L187.272 29.7759H192.505V51.4079ZM226.06 51.4079H220.793V44.2319L221.336 39.5025L217.521 51.4079H212.045V29.7759H217.309V37.7812L216.896 42.1745L220.825 29.7759H226.06V51.4079ZM103.871 29.7759H115.921V34.0959H109.159V38.0305H115.315V42.1359H109.159V47.0865H116.117V51.4079H103.871V29.7759ZM182.589 22.5065H177.333V15.3252L177.872 10.6012L174.055 22.5065H168.579V0.867878H173.844V8.86921L173.431 13.2665L177.361 0.867878H182.589V22.5065ZM166.497 0.867878V5.19454H162.656V22.5065H157.451V5.19454H153.579V0.867878H166.497ZM137.369 16.7372C137.369 18.8585 137.944 20.4212 139.096 21.4145C140.236 22.4079 141.993 22.8905 144.372 22.8905C146.897 22.8905 148.72 22.4145 149.817 21.4545C150.924 20.4879 151.479 18.8359 151.479 16.5025V14.2825H146.332V18.1532C146.332 19.1999 145.268 19.5892 144.4 19.5425C143.423 19.4879 142.619 18.8639 142.619 17.7132V5.80788C142.619 4.77588 143.736 4.33188 144.635 4.39054C145.587 4.45188 146.332 5.07587 146.332 6.10121V7.76121H151.479V5.89587C151.479 3.83187 150.371 2.54121 149.335 1.77988C148.301 1.01454 147.093 0.498544 144.541 0.498544C142.18 0.498544 140.399 0.967874 139.188 1.89321C137.983 2.82254 137.369 4.17987 137.369 5.97054V16.7372ZM83.7145 0.867878V22.5065H78.5519V13.4252H75.1385V22.5065H69.8825V0.867878H75.1385V8.61054H78.5519V0.867878H83.7145ZM134.76 13.5545C134.76 15.7265 134.704 17.2612 134.596 18.1639C134.483 19.0705 134.135 19.9012 133.548 20.6439C132.967 21.3932 132.173 21.9692 131.175 22.3705C130.183 22.7732 129.021 22.9679 127.696 22.9679C126.441 22.9679 125.32 22.7772 124.315 22.4025C123.309 22.0239 122.505 21.4585 121.897 20.6972C121.285 19.9385 120.927 19.1185 120.813 18.2279C120.695 17.3332 120.633 15.7745 120.633 13.5545V9.84654C120.633 7.67587 120.695 6.13988 120.808 5.23321C120.909 4.33188 121.264 3.49988 121.845 2.75054C122.424 2.00921 123.223 1.43321 124.217 1.03054C125.216 0.634542 126.377 0.434538 127.696 0.434538C128.961 0.434538 130.085 0.623877 131.084 0.998544C132.088 1.37854 132.891 1.94388 133.495 2.70388C134.107 3.45721 134.467 4.28387 134.591 5.17321C134.699 6.06787 134.76 7.62654 134.76 9.84654V13.5545ZM129.493 6.44254C129.493 5.65054 129.255 4.09721 127.757 4.09721C125.969 4.09721 125.899 5.66654 125.899 6.44254V16.5399C125.899 17.4185 125.833 19.3039 127.667 19.3039C129.559 19.3039 129.493 17.2519 129.493 16.3839V6.44254ZM108.816 4.22254V9.24521C111.167 9.18521 112.845 9.13721 112.845 6.73854C112.845 4.47321 111.259 4.28388 108.816 4.22254Z" fill="#1A1A18"/>
</svg>
