<?xml version="1.0" encoding="UTF-8" standalone="no"?>
<!-- Created with Inkscape (http://www.inkscape.org/) -->

<svg
   version="1.1"
   id="svg2"
   width="847.1333"
   height="344.72"
   viewBox="0 0 847.1333 344.72"
   sodipodi:docname="2_5438293465710472036 (2).eps"
   xmlns:inkscape="http://www.inkscape.org/namespaces/inkscape"
   xmlns:sodipodi="http://sodipodi.sourceforge.net/DTD/sodipodi-0.dtd"
   xmlns="http://www.w3.org/2000/svg"
   xmlns:svg="http://www.w3.org/2000/svg">
  <defs
     id="defs6" />
  <sodipodi:namedview
     id="namedview4"
     pagecolor="#ffffff"
     bordercolor="#000000"
     borderopacity="0.25"
     inkscape:showpageshadow="2"
     inkscape:pageopacity="0.0"
     inkscape:pagecheckerboard="0"
     inkscape:deskcolor="#d1d1d1" />
  <g
     id="g8"
     inkscape:groupmode="layer"
     inkscape:label="ink_ext_XXXXXX"
     transform="matrix(1.3333333,0,0,-1.3333333,0,344.72)">
    <g
       id="g10"
       transform="scale(0.1)">
      <path
         d="m 2331.47,932.75 620.07,361.09 c -11.08,21.12 -20.29,43.42 -27.36,66.68 -230.83,-65.6 -461.59,-131.2 -689.8,-196.8 20.99,-79.63 55.1,-156.62 97.09,-230.97 z m 170.58,-233.629 507.01,512.869 c -16.11,17.56 -30.64,36.63 -43.31,56.98 -206.59,-123.6 -411.9,-248.48 -617.22,-370.74 40.68,-73 93.17,-138.039 153.52,-199.109 z m 224.41,-179.211 359.27,627.82 c -20.37,12.95 -39.43,27.8 -56.96,44.31 -167.69,-173.62 -334.08,-348.509 -501.79,-520.802 59.06,-59.726 125.97,-108.847 199.48,-151.328 z M 2988.9,404.422 3175.95,1105.8 c -23.35,7.28 -45.74,16.79 -66.94,28.23 -116.98,-211.811 -232.75,-424.882 -351.06,-635.358 72.16,-42.481 149.58,-71.684 230.95,-94.25 z m 283.42,-42.473 1.32,727.101 c -24.41,0.94 -48.24,4.16 -71.26,9.55 -59.73,-235.42 -116.95,-472.08 -176.75,-706.12 80.04,-21.23 162.72,-29.21 246.69,-30.531 z m 284.75,33.192 -184.55,703.039 c -23.01,-5.26 -46.85,-8.38 -71.27,-9.2 2.64,-243.242 7.84,-486.46 10.42,-728.359 82.68,0.02 164.02,14.609 245.4,34.52 z m 266.35,106.211 -357.41,631.748 c -21.28,-11.35 -43.74,-20.73 -67.18,-27.89 65.04,-234.038 132.59,-468.069 196.27,-700.788 80.04,21.226 154.84,57.09 228.32,96.93 z m 230.92,172.546 -507.98,516.572 c -17.59,-16.37 -36.72,-31.07 -57.12,-43.9 122.38,-209.289 247.26,-417.308 368.29,-625.34 72.16,41.161 135.17,95.602 196.81,152.668 z m 178.47,227.012 -622.7,366.58 c -12.85,-20.46 -27.6,-39.6 -43.92,-57.2 170.63,-169.91 345.12,-338.571 515.72,-508.509 59.05,59.731 106.29,128.758 150.9,199.129 z m 114.15,266.8 -694.99,190.68 c -7.31,-23.54 -16.78,-46.08 -28.2,-67.44 208.32,-118.49 420.46,-235.71 628.72,-355.54 41.99,73.01 69.55,152.66 94.47,232.3 z m -95.77,845.6 -625.21,-361.25 c 11.19,-21.58 20.42,-44.39 27.46,-68.12 229.92,65.75 462.37,134.02 692.22,198.38 -21,80.99 -57.74,157.98 -94.47,230.99 z m -170.59,233.62 -511.34,-513.32 c 16.2,-17.86 30.74,-37.27 43.43,-57.97 205.4,123.67 412.1,249.87 617.5,372.17 -40.68,73.02 -95.8,138.06 -149.59,199.12 z m -224.36,180.54 -363.27,-629.22 c 20.28,-13.04 39.23,-27.98 56.67,-44.56 166.52,172.44 334.29,348.73 502.09,521.11 -59.03,59.75 -128.59,107.54 -195.49,152.67 z m -263.76,115.48 -189.54,-702.21 c 23.32,-7.42 45.67,-17.04 66.82,-28.61 115.7,210.5 232.73,424.83 351.04,635.25 -72.16,42.48 -152.21,70.35 -228.32,95.57 z m -283.42,42.49 -3.94,-727.34 c 24.46,-1.08 48.31,-4.49 71.37,-10 58.43,233.91 116.9,471.64 176.63,705.47 -80.04,21.25 -165.33,27.89 -244.06,31.87 z m -284.74,-33.2 181.53,-702.87 c 23.14,5.18 47.06,8.22 71.57,8.92 -3.9,241.57 -7.77,485.65 -10.35,727.14 -82.67,0.01 -166.64,-15.93 -242.75,-33.19 z m -267.69,-106.19 355.17,-631.41 c 21.4,11.35 44.02,20.68 67.58,27.79 -66.14,232.25 -132.21,467.02 -195.75,699.19 -80.04,-21.23 -157.46,-58.41 -227,-95.57 z m -230.95,-172.56 505.16,-516.34 c 17.73,16.44 36.99,31.18 57.57,44.01 -123.29,206.2 -246.52,416.22 -367.2,623.66 -72.19,-41.16 -137.79,-96.9 -195.53,-151.33 z m -178.45,-226.99 619.42,-366.76 c 12.96,20.6 27.8,39.85 44.27,57.54 -171.4,166.85 -344.04,337.58 -514.11,506.99 -59.05,-59.73 -107.6,-130.1 -149.58,-197.77 z m 750.01,-533.46 h 570.13 c -1.53,15 -3.88,29.75 -7.04,44.22 l 695.83,185.23 c 17.05,-79.63 32.79,-163.28 32.79,-246.88 -234.86,-2.68 -472.37,-7.99 -705.94,-10.64 v -29.2 l 705.94,-1.34 c -3.93,-82.3 -10.5,-167.25 -31.49,-248.22 -231.44,60.51 -466.74,118.4 -698.26,178.88 3.82,16.28 6.58,32.99 8.25,50.01 h -570.21 v 77.94 z m -864.16,262.66 691.57,-187.46 c 7.14,23.16 16.39,45.37 27.53,66.4 -209.1,119.51 -418.16,236.45 -625.95,356 -40.68,-73.01 -72.17,-151.32 -93.15,-234.94 v 0"
         style="fill:#c41036;"
         id="path12" />
      <path
         d="M 661.328,2570.25 H 13.125 v -87.62 c 81.3672,0 160.098,0 204.707,0 60.352,0 60.352,-37.17 60.352,-76.99 0,-130.08 7.871,-390.27 7.871,-483.21 V 865.789 l -7.871,-225.66 c 0,-135.41 -183.6918,-154 -272.93009,-154 L 0,398.531 h 677.07 l -2.617,87.598 c -244.062,0 -293.906,92.922 -293.906,154 V 2472 h 7.851 L 999.863,398.531 h 81.357 L 1655.94,2408.29 V 640.129 c 0,-154 -70.85,-154 -301.79,-154 v -87.598 h 889.64 l 5.24,87.598 c -238.81,0 -270.3,0 -270.3,154 0,124.762 0,1603.551 0,1768.161 0,74.34 47.24,84.95 286.06,84.95 v 77.01 H 1619.2 L 1136.35,945.441 661.328,2570.25 Z M 4895.66,2377.77 c 1.32,51.75 43.31,115.47 122.04,115.47 h 166.65 v 75.67 h -897.53 v -75.67 c 97.12,0 157.46,0 204.71,0 78.73,0 107.6,-57.07 107.6,-115.49 0,-605.3 5.25,-1134.97 0,-1738.961 0,-45.129 0,-152.66 -104.99,-152.66 -10.48,0 -196.81,0 -207.32,0 v -88.938 h 897.53 v 88.938 c -52.5,0 -115.47,0 -177.15,0 -34.12,2.66 -61.68,22.57 -51.17,45.133 L 5773.5,2336.61 c 11.8,21.23 17.05,-5.32 13.11,-78.32 0.01,-550.9 -10.48,-1067.27 -10.48,-1619.501 0,-82.309 -38.07,-148.68 -93.18,-152.66 -27.54,0 -108.91,0 -194.2,0 v -88.938 h 864.72 v 88.938 c -74.8,0 -131.23,0 -177.15,0 -81.35,18.59 -111.52,71.68 -111.52,152.66 V 2377.77 c 18.37,65.03 72.16,115.47 102.34,115.47 h 186.33 v 75.67 h -864.72 v -75.67 c 53.81,0 139.09,0 217.82,0 28.86,-1.31 40.69,-35.83 22.3,-65.04 -153.51,-353.11 -674.43,-1486.739 -820.09,-1784.091 -10.48,-9.3 -9.18,5.289 -13.12,-5.32 v 1738.981 0"
         style="fill:white;"
         id="path14" />
      <path
         d="M 3.61328,188.379 H 6349.86 V 0 H 3.61328 v 188.379 0"
         style="fill:white;"
         id="path16" />
    </g>
  </g>
</svg>
