<svg width="676" height="132" viewBox="0 0 676 132" fill="none" xmlns="http://www.w3.org/2000/svg">
<path fill-rule="evenodd" clip-rule="evenodd" d="M442.395 124.629H85.7116L62.7722 124.627C88.3951 113.529 94.0859 92.1327 65.0444 77.7028H94.9095V77.7041H442.395V124.629Z" fill="#FFCB00"/>
<path fill-rule="evenodd" clip-rule="evenodd" d="M35.0228 45.1304C35.0228 50.6203 33.6773 54.6448 30.9744 57.2032C28.2836 59.7621 24.1271 61.0355 18.517 61.0355C12.5587 61.0355 8.28188 59.7983 5.67508 57.3115C3.06842 54.8247 1.77081 50.5603 1.77081 44.5296V40.0609H15.9822V48.7944C15.9822 51.0889 16.7994 52.242 18.4211 52.242C19.5863 52.242 20.2831 51.7975 20.4871 50.8967C20.7036 50.0075 20.8115 47.8453 20.8115 44.3856V34.9553H12.6065V26.6543H20.8115V16.9359C20.8115 15.11 20.6915 13.8367 20.4629 13.1157C20.2228 12.4072 19.5984 12.0467 18.5894 12.0467C16.8592 12.0467 15.9822 13.176 15.9822 15.4223V21.9695H1.77081V17.1523C1.77081 11.8185 2.98428 8.17866 5.43495 6.20839C7.87348 4.23813 12.102 3.25319 18.1327 3.25319C23.6946 3.25319 27.8993 4.44252 30.7463 6.83319C33.6053 9.23559 35.0228 12.7435 35.0228 17.3563V45.1304ZM62.0288 60.6151V23.6992H56.9951V47.2808C56.9951 51.5693 56.5027 54.6327 55.5177 56.4827C54.5324 58.3205 52.971 59.4736 50.8567 59.9303C48.7303 60.3869 45.2461 60.6151 40.4168 60.6151H38.0983V52.9747C39.9003 52.9509 41.1379 52.7224 41.8223 52.2899C42.5071 51.8577 42.8433 50.3321 42.8433 47.7012V13.9087H76.144V60.6151H62.0288ZM113.06 38.0907H94.6439V48.1937C94.6439 50.308 94.7999 51.6655 95.1004 52.2783C95.4127 52.8785 96.0013 53.1911 96.8663 53.1911C97.9475 53.1911 98.668 52.7828 99.0285 51.9777C99.3889 51.1609 99.5813 49.5991 99.5813 47.2808V41.1179H113.06V44.5659C113.06 47.4489 112.868 49.6711 112.507 51.2209C112.147 52.7707 111.294 54.4163 109.96 56.1821C108.615 57.9363 106.921 59.2576 104.867 60.1347C102.825 61.0235 100.242 61.4559 97.1424 61.4559C94.1394 61.4559 91.4964 61.0235 89.1898 60.1584C86.8956 59.2937 85.1056 58.1044 83.8323 56.5908C82.5468 55.0769 81.658 53.4072 81.1652 51.5935C80.6727 49.7672 80.4324 47.1244 80.4324 43.6529V30.0303C80.4324 25.9457 80.985 22.7263 82.0784 20.3717C83.1832 18.0173 84.9974 16.2032 87.508 14.954C90.019 13.6927 92.9022 13.0679 96.1575 13.0679C100.146 13.0679 103.437 13.8247 106.032 15.3383C108.627 16.8517 110.441 18.8583 111.486 21.3567C112.531 23.8556 113.06 27.3632 113.06 31.8923V38.0907ZM98.8004 30.4865V27.0748C98.8004 24.6603 98.668 23.0984 98.4158 22.3899C98.1518 21.6931 97.6231 21.3327 96.8301 21.3327C95.8452 21.3327 95.2324 21.6331 95.0043 22.2339C94.7641 22.8345 94.6439 24.4443 94.6439 27.0748V30.4865H98.8004ZM131.74 13.9087V32.0721C134.719 32.0721 136.209 30.4865 136.209 27.3271V19.3985C136.209 16.2153 136.737 14.3773 137.794 13.9087H151.477C150.432 15.4344 149.904 17.6927 149.904 20.672V27.1829C149.904 29.4533 148.967 31.3395 147.117 32.8411C146.444 33.4059 145.002 34.2105 142.828 35.2437C141.422 35.9164 139.836 36.2889 138.071 36.3369C138.899 36.4689 140.437 36.8535 142.684 37.49C147.537 39.0397 149.964 41.7548 149.964 45.6228V53.8276C149.964 56.8311 150.492 59.0893 151.55 60.6151H137.867C136.809 59.1855 136.281 57.3593 136.281 55.1252V45.2744C136.281 42.1032 134.767 40.5176 131.74 40.5176V60.6151H117.697V13.9087H131.74ZM182.699 13.9087V23.6992H174.566V60.6151H160.379V23.6992H152.222V13.9087H182.699ZM200.009 13.9087L199.769 18.0291C201.031 16.3593 202.424 15.1221 203.95 14.3051C205.475 13.4761 207.145 13.0679 208.947 13.0679C211.157 13.0679 213.056 13.6564 214.665 14.8457C216.275 16.0351 217.284 17.3925 217.681 18.9423C218.077 20.4917 218.281 23.1225 218.281 26.8225V46.4999C218.281 50.7525 218.029 53.7677 217.524 55.5697C217.02 57.3593 215.987 58.7892 214.425 59.8583C212.863 60.9272 210.977 61.4559 208.779 61.4559C207.013 61.4559 205.379 61.0475 203.878 60.2308C202.376 59.4016 201.007 58.1885 199.769 56.5667V67.2701H185.546V13.9087H200.009ZM204.058 27.4952C204.058 24.6124 203.95 22.8583 203.746 22.2576C203.529 21.6452 202.941 21.3327 201.98 21.3327C201.043 21.3327 200.442 21.6931 200.166 22.3899C199.901 23.0984 199.769 24.8044 199.769 27.4952V46.8483C199.769 49.6711 199.901 51.4252 200.19 52.1339C200.466 52.8427 201.079 53.1911 202.016 53.1911C202.929 53.1911 203.505 52.8668 203.722 52.2179C203.95 51.5813 204.058 50.0075 204.058 47.5211V27.4952ZM255.126 30.3184V41.7548C255.126 45.9471 254.909 49.0345 254.489 50.9928C254.068 52.9509 253.168 54.7768 251.774 56.4827C250.393 58.1764 248.615 59.4377 246.452 60.2425C244.278 61.0596 241.779 61.4559 238.968 61.4559C235.82 61.4559 233.165 61.1196 230.979 60.4227C228.793 59.7263 227.099 58.6809 225.897 57.2873C224.684 55.894 223.819 54.2001 223.303 52.2179C222.786 50.236 222.534 47.2688 222.534 43.3045V31.3275C222.534 26.9907 223.002 23.6029 223.939 21.1644C224.876 18.7259 226.57 16.7677 229.009 15.2903C231.448 13.8125 234.571 13.0679 238.367 13.0679C241.563 13.0679 244.302 13.5483 246.584 14.4973C248.879 15.4464 250.645 16.6836 251.882 18.2093C253.131 19.7349 253.972 21.3088 254.441 22.9185C254.897 24.54 255.126 27.0027 255.126 30.3184ZM240.902 26.7987C240.902 24.396 240.77 22.8944 240.518 22.2696C240.254 21.6452 239.7 21.3327 238.86 21.3327C238.019 21.3327 237.454 21.6452 237.178 22.2696C236.889 22.8944 236.745 24.396 236.745 26.7987V47.8695C236.745 50.0799 236.889 51.5211 237.178 52.182C237.454 52.8548 238.007 53.1911 238.823 53.1911C239.676 53.1911 240.229 52.8785 240.494 52.2783C240.77 51.6655 240.902 50.3439 240.902 48.3377V26.7987ZM287.957 13.9087V23.6992H279.824V60.6151H265.637V23.6992H257.48V13.9087H287.957ZM323.01 38.0907H304.595V48.1937C304.595 50.308 304.751 51.6655 305.051 52.2783C305.363 52.8785 305.952 53.1911 306.817 53.1911C307.898 53.1911 308.619 52.7828 308.979 51.9777C309.34 51.1609 309.532 49.5991 309.532 47.2808V41.1179H323.01V44.5659C323.01 47.4489 322.818 49.6711 322.458 51.2209C322.098 52.7707 321.245 54.4163 319.911 56.1821C318.566 57.9363 316.872 59.2576 314.818 60.1347C312.775 61.0235 310.193 61.4559 307.093 61.4559C304.09 61.4559 301.447 61.0235 299.141 60.1584C296.846 59.2937 295.056 58.1044 293.783 56.5908C292.497 55.0769 291.609 53.4072 291.116 51.5935C290.624 49.7672 290.383 47.1244 290.383 43.6529V30.0303C290.383 25.9457 290.936 22.7263 292.029 20.3717C293.134 18.0173 294.948 16.2032 297.459 14.954C299.97 13.6927 302.853 13.0679 306.108 13.0679C310.097 13.0679 313.388 13.8247 315.983 15.3383C318.578 16.8517 320.392 18.8583 321.437 21.3567C322.482 23.8556 323.01 27.3632 323.01 31.8923V38.0907ZM308.751 30.4865V27.0748C308.751 24.6603 308.619 23.0984 308.367 22.3899C308.103 21.6931 307.574 21.3327 306.781 21.3327C305.796 21.3327 305.183 21.6331 304.955 22.2339C304.715 22.8345 304.595 24.4443 304.595 27.0748V30.4865H308.751ZM355.806 13.9087L350.136 36.2287L356.995 60.6151H343.169C341.811 54.4645 340.778 49.1787 340.069 44.7461C339.132 50.2839 338.111 55.5697 337.006 60.6151H325.113L331.239 36.2287L325.113 13.9087H337.006C338.904 23.4348 339.925 28.8409 340.069 30.1381C341.427 22.1856 342.46 16.7797 343.169 13.9087H355.806ZM392.266 60.6151H378.127V43.4003H373.021V60.6151H358.906V13.9087H373.021V30.7029H378.127V13.9087H392.266V60.6151ZM432.57 60.6151H420.172V35.3757L410.285 60.6151H397.335V13.9087H409.721V38.9316L419.439 13.9087H432.57V60.6151ZM470.038 60.6151H455.863V47.7733C454.073 49.4551 451.238 50.308 447.346 50.308C444.643 50.308 442.457 49.8276 440.799 48.8544C439.129 47.8932 438.108 46.4999 437.736 44.6737C437.351 42.8359 437.171 39.8807 437.171 35.8083V13.9087H451.382V36.4689C451.382 38.9557 451.502 40.6375 451.742 41.5025C451.971 42.3675 452.595 42.8117 453.604 42.8117C454.445 42.8117 455.034 42.4153 455.37 41.6465C455.695 40.8656 455.863 39.3161 455.863 36.9617V13.9087H470.038V60.6151ZM506.966 38.0907H488.55V48.1937C488.55 50.308 488.706 51.6655 489.007 52.2783C489.319 52.8785 489.908 53.1911 490.773 53.1911C491.854 53.1911 492.574 52.7828 492.935 51.9777C493.296 51.1609 493.488 49.5991 493.488 47.2808V41.1179H506.966V44.5659C506.966 47.4489 506.774 49.6711 506.414 51.2209C506.053 52.7707 505.2 54.4163 503.867 56.1821C502.521 57.9363 500.828 59.2576 498.773 60.1347C496.731 61.0235 494.148 61.4559 491.049 61.4559C488.046 61.4559 485.403 61.0235 483.096 60.1584C480.802 59.2937 479.012 58.1044 477.739 56.5908C476.453 55.0769 475.564 53.4072 475.072 51.5935C474.579 49.7672 474.339 47.1244 474.339 43.6529V30.0303C474.339 25.9457 474.891 22.7263 475.985 20.3717C477.09 18.0173 478.904 16.2032 481.414 14.954C483.925 13.6927 486.809 13.0679 490.064 13.0679C494.052 13.0679 497.344 13.8247 499.938 15.3383C502.533 16.8517 504.347 18.8583 505.393 21.3567C506.438 23.8556 506.966 27.3632 506.966 31.8923V38.0907ZM492.707 30.4865V27.0748C492.707 24.6603 492.574 23.0984 492.322 22.3899C492.058 21.6931 491.53 21.3327 490.737 21.3327C489.752 21.3327 489.139 21.6331 488.911 22.2339C488.671 22.8345 488.55 24.4443 488.55 27.0748V30.4865H492.707ZM543.029 31.5439H529.623V26.1619C529.623 24.2877 529.467 23.0144 529.166 22.3417C528.854 21.6689 528.302 21.3327 527.472 21.3327C526.655 21.3327 526.103 21.6331 525.826 22.2217C525.538 22.8104 525.394 24.1196 525.394 26.1619V48.1937C525.394 49.8513 525.61 51.1007 526.03 51.9419C526.451 52.7707 527.076 53.1911 527.893 53.1911C528.854 53.1911 529.515 52.7587 529.851 51.8816C530.187 51.0165 530.356 49.3709 530.356 46.9561V41.3943H543.029C543.005 45.1304 542.873 47.9293 542.621 49.7913C542.381 51.6535 541.6 53.5753 540.266 55.5335C538.945 57.4917 537.215 58.9691 535.077 59.9664C532.938 60.9635 530.308 61.4559 527.16 61.4559C523.148 61.4559 519.964 60.7712 517.621 59.4016C515.279 58.0324 513.609 56.1101 512.636 53.6236C511.663 51.1489 511.183 47.6409 511.183 43.0881V29.8259C511.183 25.8496 511.579 22.8583 512.372 20.8401C513.177 18.822 514.87 17.032 517.477 15.4464C520.084 13.8608 523.255 13.0679 526.979 13.0679C530.692 13.0679 533.851 13.8488 536.482 15.4223C539.113 16.9961 540.855 18.9781 541.732 21.3688C542.597 23.7715 543.029 27.1588 543.029 31.5439ZM561.301 13.9087V32.0721C564.281 32.0721 565.77 30.4865 565.77 27.3271V19.3985C565.77 16.2153 566.299 14.3773 567.356 13.9087H581.039C579.993 15.4344 579.465 17.6927 579.465 20.672V27.1829C579.465 29.4533 578.528 31.3395 576.678 32.8411C576.005 33.4059 574.564 34.2105 572.389 35.2437C570.984 35.9164 569.398 36.2889 567.632 36.3369C568.461 36.4689 569.999 36.8535 572.245 37.49C577.098 39.0397 579.525 41.7548 579.525 45.6228V53.8276C579.525 56.8311 580.053 59.0893 581.111 60.6151H567.428C566.371 59.1855 565.842 57.3593 565.842 55.1252V45.2744C565.842 42.1032 564.328 40.5176 561.301 40.5176V60.6151H547.258V13.9087H561.301ZM619.336 60.6151H606.938V35.3757L597.052 60.6151H584.102V13.9087H596.487V38.9316L606.206 13.9087H619.336V60.6151ZM659.628 60.6151H647.23V35.3757L637.344 60.6151H624.394V13.9087H636.779V38.9316L646.498 13.9087H659.628V60.6151ZM645.933 0.153992H651.915C651.771 3.33733 650.846 5.90827 649.116 7.85427C647.399 9.8004 644.996 10.7853 641.921 10.7853C638.821 10.7853 636.431 9.8004 634.725 7.84227C633.019 5.88413 632.106 3.31319 631.962 0.153992H637.944C638.221 3.36146 639.554 4.97119 641.921 4.97119C644.311 4.97119 645.657 3.36146 645.933 0.153992Z" fill="#102A83"/>
<path fill-rule="evenodd" clip-rule="evenodd" d="M469.609 78.4729L469.368 82.5933C470.63 80.9236 472.024 79.6864 473.549 78.8693C475.074 78.0405 476.745 77.6321 478.546 77.6321C480.757 77.6321 482.655 78.2206 484.265 79.41C485.874 80.5993 486.883 81.9568 487.28 83.5065C487.676 85.056 487.88 87.6869 487.88 91.3868V111.064C487.88 115.317 487.628 118.332 487.124 120.134C486.619 121.924 485.586 123.353 484.024 124.423C482.463 125.492 480.576 126.02 478.378 126.02C476.612 126.02 474.979 125.612 473.477 124.795C471.975 123.966 470.606 122.753 469.368 121.131V131.834H455.145V78.4729H469.609ZM473.657 92.0594C473.657 89.1766 473.549 87.4225 473.345 86.8218C473.128 86.2094 472.54 85.8969 471.579 85.8969C470.642 85.8969 470.041 86.2573 469.765 86.9543C469.5 87.6628 469.368 89.3686 469.368 92.0594V111.413C469.368 114.235 469.5 115.99 469.789 116.698C470.065 117.407 470.678 117.755 471.615 117.755C472.528 117.755 473.105 117.431 473.321 116.782C473.549 116.146 473.657 114.572 473.657 112.085V92.0594ZM525.638 111.845C525.638 116.109 525.133 119.173 524.136 121.023C523.139 122.885 521.577 124.038 519.439 124.495C517.301 124.951 513.817 125.179 508.988 125.179H492.554V78.4729H506.669V94.0297H508.988C513.516 94.0297 516.892 94.3061 519.127 94.8468C521.349 95.3872 522.995 96.5644 524.052 98.3905C525.109 100.229 525.638 103.124 525.638 107.088V111.845ZM511.486 110.115V108.253C511.486 105.839 511.246 104.373 510.766 103.856C510.285 103.34 508.916 103.04 506.669 102.968V115.365C508.543 115.365 509.817 115.125 510.489 114.644C511.15 114.163 511.486 112.65 511.486 110.115ZM544.078 125.179H529.962V78.4729H544.078V125.179ZM582.435 125.179H568.296V107.965H563.19V125.179H549.075V78.4729H563.19V95.2672H568.296V78.4729H582.435V125.179ZM619.676 94.8826V106.319C619.676 110.511 619.459 113.599 619.039 115.557C618.619 117.515 617.718 119.341 616.324 121.047C614.943 122.741 613.165 124.002 611.002 124.807C608.828 125.624 606.33 126.02 603.518 126.02C600.371 126.02 597.716 125.684 595.529 124.987C593.343 124.291 591.649 123.245 590.448 121.852C589.235 120.458 588.37 118.765 587.853 116.782C587.336 114.8 587.084 111.833 587.084 107.869V95.8917C587.084 91.5549 587.553 88.1673 588.49 85.7287C589.427 83.2901 591.12 81.332 593.559 79.8546C595.998 78.3768 599.122 77.6321 602.918 77.6321C606.113 77.6321 608.852 78.1125 611.135 79.0616C613.429 80.0107 615.195 81.2479 616.432 82.7736C617.682 84.2992 618.522 85.8731 618.991 87.4829C619.447 89.1043 619.676 91.567 619.676 94.8826ZM605.452 91.3631C605.452 88.9603 605.32 87.4588 605.068 86.834C604.804 86.2094 604.251 85.8969 603.41 85.8969C602.569 85.8969 602.005 86.2094 601.728 86.834C601.44 87.4588 601.296 88.9603 601.296 91.3631V112.434C601.296 114.644 601.44 116.085 601.728 116.746C602.005 117.419 602.557 117.755 603.374 117.755C604.227 117.755 604.78 117.443 605.044 116.843C605.32 116.23 605.452 114.908 605.452 112.902V91.3631ZM638.392 78.4729V96.6364C641.371 96.6364 642.861 95.0508 642.861 91.8913V83.9629C642.861 80.7796 643.389 78.9417 644.446 78.4729H658.129C657.084 79.9987 656.555 82.2569 656.555 85.2362V91.7472C656.555 94.0176 655.618 95.9037 653.768 97.4053C653.096 97.9701 651.654 98.7748 649.48 99.808C648.074 100.481 646.488 100.853 644.723 100.901C645.551 101.033 647.089 101.418 649.336 102.054C654.189 103.604 656.616 106.319 656.616 110.187V118.392C656.616 121.395 657.144 123.654 658.201 125.179H644.519C643.461 123.75 642.933 121.924 642.933 119.689V109.839C642.933 106.667 641.419 105.082 638.392 105.082V125.179H624.349V78.4729H638.392Z" fill="#102A83"/>
<path fill-rule="evenodd" clip-rule="evenodd" d="M2.24454 104.64L2.63828 105.55L3.54468 107.225L4.50214 108.467L5.54441 109.572L6.57601 110.544L7.43921 111.209L8.47961 111.959L9.43468 112.599L10.3885 113.154L11.2583 113.655L12.4363 114.238L14.012 114.933L16.0021 115.638L18.3391 116.337L21.0435 116.92L22.2747 117.12L23.4373 117.298L24.4853 117.391L26.2119 117.552L29.5737 117.558L33.1683 117.286L35.3231 117.074L38.3971 116.567L40.1471 116.093L41.7355 115.584L43.1636 115.078L44.3875 114.576L45.4691 114.039L46.25 113.669L46.9643 113.265L48.0213 112.659L49.1271 111.951L49.8487 111.447L50.6491 110.863L51.5296 110.05L52.1964 109.385L52.9027 108.645L53.516 107.88L54.0995 107.106L54.6207 106.188L55.0987 105.125L55.4541 104.157L55.7091 103.067L55.8655 101.927L55.9461 100.914L55.8885 99.9509L55.7349 98.9912L55.5903 98.2193L55.3409 97.3497L55.0635 96.586L54.7175 95.9011L54.3232 95.1623L53.8917 94.4288L53.442 93.842L52.8656 93.1203L51.9136 92.1234L51.0521 91.2951L49.8281 90.2789L48.3643 89.2693L47.4081 88.6581L46.2397 88.0037L44.8695 87.3675L43.9404 86.9112L43.0792 86.5923L42.2021 86.2727L40.8423 85.8131L39.8361 85.4934L38.906 85.2525L36.0896 84.7104L33.9791 84.4409L32.1663 84.3951L29.5997 84.3303L27.5135 84.3329L26.0644 84.4337L24.0144 84.6147L22.4423 84.8264L20.9005 85.0952L18.736 85.588L16.704 86.1192L15.3521 86.5844L13.6536 87.2703L12.5328 87.7704L11.3605 88.378L10.3268 88.9524L9.25535 89.6036L7.52441 90.7721L5.78321 92.2226L4.96881 93.046L4.14535 94.0224L3.43788 94.9861L2.81588 96.0401L0.684275 96.0076L1.16828 95.0365L1.76108 93.8478L2.14508 93.2458L2.80614 92.3484L3.57108 91.4387L4.32867 90.6031L4.88494 89.9914L5.86761 89.0858L6.85161 88.2697L8.05934 87.3921L9.10041 86.6804L10.3339 85.911L11.576 85.1456L12.4333 84.6697L13.2881 84.2104L14.8633 83.4433L16.3209 82.8611L17.6993 82.3067L18.7301 81.9461L19.9844 81.5444L20.8443 81.3029L22.0176 80.9888L23.2656 80.6836L24.2124 80.4914L25.0585 80.3145L26.0203 80.1652L26.9052 80.0141L28.6079 79.8076L30.2513 79.6297L31.44 79.5646L32.9873 79.4807L34.1641 79.4492L35.6371 79.4182L37.0796 79.4223L38.6388 79.4636L40.21 79.5524L41.4285 79.6397L42.5379 79.7619L44.7907 80.0384L47.1929 80.4513L48.6453 80.7532L49.6421 80.978L50.8319 81.2727L52.8285 81.8757L53.9971 82.2591L55.7599 82.8987L56.82 83.3509L58.2052 83.9992L59.6997 84.7589L60.8925 85.3966L62.1975 86.142L63.2081 86.8324L64.4147 87.6983L65.5636 88.5875L66.3199 89.1992L67.0021 89.8599L67.9131 90.8031L68.6627 91.7061L69.32 92.6077L69.9428 93.5876L70.2676 94.2043L70.9676 95.6596L71.3953 96.8747L71.6177 97.8016L71.7728 98.6785L71.8692 99.5655L71.9269 100.571L71.8539 102.055L71.6335 103.547L71.3323 104.778L70.9485 105.847L70.4997 106.848L69.9428 107.809L69.3621 108.772L68.8475 109.461L68.0873 110.384L67.4097 111.118L66.5501 111.953L65.6899 112.738L64.7873 113.427L63.732 114.241L62.6541 114.988L61.6975 115.602L60.7307 116.129L59.9263 116.57L58.9961 117.051L58.1316 117.463L57.1523 117.933L56.2077 118.33L55.1383 118.737L54.1117 119.112L52.6557 119.615L51.2845 120.026L50.1263 120.359L48.9992 120.636L47.8423 120.887L46.5361 121.137L45.3384 121.316L43.9843 121.511L42.9215 121.662L41.7476 121.751L40.5868 121.851L39.184 121.981L37.9348 122.018L36.9088 122.045L34.9431 122.052L33.2663 122.016L31.9312 121.955L30.6808 121.854L29.0252 121.717L27.3688 121.525L25.702 121.297L24.6025 121.1L23.2224 120.821L21.9016 120.516L20.6392 120.171L19.6453 119.888L18.6993 119.575L16.9813 119.029L15.2673 118.341L13.5257 117.573L12.2224 116.932L10.7321 116.13L9.45815 115.386L8.17374 114.544L6.94561 113.663L6.02974 112.923L5.10601 112.159L4.16775 111.26L3.15108 110.148L2.41814 109.2L1.59814 107.985L1.12308 107.09L0.616013 106.001L0.194275 104.705L2.24454 104.64Z" fill="#102A83"/>
<path fill-rule="evenodd" clip-rule="evenodd" d="M11.8778 106.358L13.0663 106.464L14.575 106.528L16.495 106.486L19.0322 106.358L23.0323 106.06L26.0952 105.847L29.9582 105.655L31.5582 105.634L33.9583 105.613L35.444 105.719L36.0612 105.826L36.4955 105.954L36.8155 106.167L37.204 106.614L37.364 107.039V107.444L37.3184 107.849L37.1127 108.317L36.5183 109.169L35.947 109.722L34.7126 110.787L33.2954 111.809L32.0383 112.682L28.1752 114.939L25.181 116.599L22.918 117.792L17.7294 120.411L9.0663 124.648L9.3863 125.18L21.8438 119.964L26.3467 118.047L33.6611 114.832L37.5698 113.001L41.7984 110.787L46.37 108.189L48.0158 107.082L49.1358 106.209L49.9358 105.549L50.393 104.995L50.8959 104.293L51.1702 103.697L51.4444 102.909L51.5587 102.078L51.4902 101.142L51.3072 100.332L50.9187 99.5235L50.3015 98.6931L49.25 97.9053L48.3815 97.4368L47.0786 96.9258L45.5014 96.6065L44.2899 96.4787L42.5299 96.4575L36.5412 96.5852L32.9526 96.7342L29.9124 96.7981H28.3352L27.3982 96.7342L26.6895 96.5425L26.3924 96.2445L26.0952 95.7123L25.981 95.2225V94.7753L26.1638 94.2856L26.9638 93.3488L27.901 92.4759L29.4324 91.2834L30.6211 90.5596L33.0211 89.1117L36.5412 87.1529L42.4156 84.0231L51.2387 79.3601L58.3475 75.7831L58.0731 75.2294L47.4672 79.062L41.3184 81.4466L27.8095 87.302L24.221 89.133L20.4266 91.1771L16.9064 93.3275L12.6092 96.3936L10.0948 98.5653L9.0663 99.6512L8.49484 100.396L8.1291 101.035L7.78617 102.164L7.76337 103.122L7.9919 104.037L8.4491 104.676L9.31764 105.4L10.3463 105.911L11.192 106.167L11.8778 106.358Z" fill="#FFCB00"/>
<path fill-rule="evenodd" clip-rule="evenodd" d="M115.471 98.9595C115.471 99.5216 115.382 100.056 115.202 100.565C115.025 101.071 114.768 101.497 114.433 101.838C114.228 102.048 114.001 102.242 113.758 102.419C113.511 102.599 113.24 102.751 112.941 102.873C112.645 102.997 112.321 103.097 111.972 103.167C111.624 103.236 111.233 103.272 110.802 103.272H109.213V107.221H106.18V95.1484H110.865C111.563 95.1484 112.163 95.2121 112.67 95.3393C113.176 95.4669 113.633 95.6661 114.043 95.9428C114.497 96.2444 114.848 96.6486 115.097 97.155C115.346 97.6614 115.471 98.2621 115.471 98.9595ZM112.357 99.0314C112.357 98.6913 112.277 98.3979 112.114 98.1516C111.953 97.9049 111.757 97.7363 111.53 97.6448C111.244 97.5204 110.971 97.4485 110.708 97.4291C110.447 97.4096 110.09 97.4013 109.642 97.4013H109.213V101.019H109.423C109.711 101.019 109.98 101.016 110.235 101.011C110.489 101.005 110.71 100.986 110.899 100.955C111.062 100.927 111.233 100.875 111.413 100.794C111.593 100.717 111.735 100.629 111.831 100.532C112.036 100.332 112.175 100.125 112.247 99.9089C112.321 99.6904 112.357 99.3996 112.357 99.0314ZM121.593 107.464C119.874 107.464 118.557 107.055 117.641 106.233C116.725 105.411 116.265 104.24 116.265 102.721C116.265 101.235 116.691 100.047 117.546 99.1614C118.402 98.273 119.595 97.8305 121.131 97.8305C122.525 97.8305 123.574 98.2068 124.277 98.9566C124.981 99.7097 125.332 100.786 125.332 102.187V103.208H119.11C119.138 103.629 119.226 103.983 119.379 104.265C119.528 104.55 119.73 104.775 119.979 104.943C120.22 105.112 120.505 105.231 120.829 105.303C121.153 105.378 121.507 105.414 121.892 105.414C122.221 105.414 122.548 105.378 122.866 105.303C123.184 105.231 123.478 105.134 123.741 105.015C123.973 104.913 124.189 104.802 124.386 104.683C124.585 104.564 124.745 104.459 124.87 104.368H125.169V106.712C124.936 106.803 124.723 106.889 124.532 106.966C124.341 107.044 124.075 107.124 123.741 107.204C123.433 107.287 123.115 107.351 122.788 107.395C122.462 107.443 122.063 107.464 121.593 107.464ZM122.534 101.497C122.517 100.897 122.379 100.44 122.116 100.125C121.853 99.8121 121.452 99.6544 120.912 99.6544C120.359 99.6544 119.929 99.8202 119.617 100.15C119.307 100.479 119.135 100.93 119.102 101.497H122.534ZM135.783 107.221H132.517L130.367 103.612H129.63V107.221H126.793V98.1155H129.63V101.771C130.029 101.766 130.327 101.708 130.524 101.597C130.721 101.487 130.937 101.193 131.169 100.717C131.243 100.557 131.327 100.377 131.413 100.183C131.498 99.9893 131.579 99.8149 131.648 99.6625C131.936 99.0648 132.287 98.6522 132.708 98.4308C133.126 98.2097 133.635 98.0988 134.235 98.0988C134.446 98.0988 134.645 98.1015 134.836 98.1068C135.024 98.1121 135.16 98.1148 135.24 98.1148V100.547H134.689C134.515 100.547 134.36 100.581 134.222 100.65C134.086 100.717 133.964 100.802 133.862 100.905C133.759 101.012 133.682 101.12 133.632 101.228C133.579 101.336 133.53 101.441 133.48 101.544C133.355 101.837 133.264 102.045 133.206 102.169C133.145 102.294 133.04 102.413 132.891 102.532L135.783 107.221ZM145.489 107.221H142.652V100.119H140.421C140.405 100.509 140.394 100.822 140.385 101.06C140.377 101.298 140.366 101.564 140.358 101.863C140.319 102.732 140.247 103.443 140.136 103.991C140.029 104.539 139.893 104.99 139.724 105.342C139.564 105.693 139.397 105.967 139.226 106.164C139.057 106.36 138.871 106.546 138.669 106.72C138.481 106.881 138.213 107.016 137.867 107.121C137.523 107.227 137.205 107.279 136.92 107.279C136.677 107.279 136.436 107.271 136.195 107.252C135.954 107.232 135.811 107.221 135.761 107.221V104.918H135.841C135.863 104.918 135.899 104.921 135.952 104.926C136.001 104.932 136.051 104.934 136.101 104.934C136.231 104.934 136.367 104.921 136.505 104.89C136.646 104.86 136.762 104.799 136.854 104.707C137.228 104.328 137.465 103.825 137.571 103.191C137.676 102.559 137.748 101.851 137.786 101.065C137.809 100.639 137.831 100.163 137.85 99.6343C137.872 99.1084 137.889 98.602 137.9 98.1148H145.489V107.221ZM152.682 104.846V102.948C152.201 102.997 151.81 103.039 151.514 103.072C151.215 103.108 150.925 103.177 150.637 103.28C150.388 103.366 150.197 103.499 150.058 103.673C149.92 103.85 149.851 104.083 149.851 104.376C149.851 104.802 149.967 105.096 150.197 105.256C150.427 105.414 150.764 105.494 151.213 105.494C151.462 105.494 151.716 105.436 151.977 105.322C152.237 105.209 152.472 105.051 152.682 104.846ZM152.682 106.255C152.489 106.419 152.314 106.565 152.159 106.695C152.004 106.822 151.799 106.952 151.539 107.082C151.284 107.207 151.038 107.301 150.797 107.368C150.557 107.432 150.219 107.464 149.787 107.464C148.982 107.464 148.312 107.193 147.781 106.654C147.247 106.114 146.981 105.433 146.981 104.611C146.981 103.936 147.116 103.388 147.387 102.973C147.656 102.558 148.046 102.225 148.553 101.985C149.067 101.736 149.682 101.561 150.396 101.464C151.11 101.367 151.877 101.293 152.699 101.237V101.187C152.699 100.687 152.513 100.338 152.143 100.147C151.772 99.956 151.215 99.8592 150.477 99.8592C150.142 99.8592 149.749 99.9199 149.3 100.042C148.852 100.164 148.412 100.319 147.985 100.507H147.742V98.3093C148.024 98.2288 148.478 98.1321 149.104 98.0212C149.732 97.9106 150.366 97.8553 151.002 97.8553C152.571 97.8553 153.715 98.1155 154.431 98.6385C155.148 99.1591 155.505 99.956 155.505 101.027V107.221H152.682V106.255ZM167.999 107.221H165.209V101.506L163.363 105.3H162.162L160.316 101.506V107.221H157.606V98.1155H160.698L162.804 102.333L164.91 98.1155H167.999V107.221ZM178.782 107.221H175.945V103.321H173.011V107.221H170.174V98.1155H173.011V101.271H175.945V98.1155H178.782V107.221ZM189.697 102.671C189.697 104.171 189.288 105.35 188.469 106.214C187.649 107.074 186.492 107.506 184.995 107.506C183.506 107.506 182.352 107.074 181.527 106.214C180.702 105.35 180.29 104.171 180.29 102.671C180.29 101.157 180.702 99.9726 181.527 99.1146C182.352 98.2593 183.506 97.8305 184.995 97.8305C186.487 97.8305 187.644 98.2621 188.466 99.1229C189.288 99.9864 189.697 101.168 189.697 102.671ZM186.786 102.688C186.786 102.148 186.741 101.697 186.653 101.337C186.561 100.977 186.44 100.689 186.282 100.473C186.116 100.247 185.925 100.089 185.715 99.9975C185.504 99.9088 185.263 99.8645 184.995 99.8645C184.74 99.8645 184.511 99.9032 184.303 99.9836C184.098 100.061 183.91 100.21 183.736 100.432C183.575 100.642 183.445 100.933 183.348 101.301C183.251 101.669 183.202 102.131 183.202 102.688C183.202 103.247 183.249 103.695 183.34 104.041C183.431 104.384 183.55 104.658 183.697 104.863C183.846 105.073 184.037 105.228 184.264 105.325C184.491 105.422 184.743 105.472 185.017 105.472C185.244 105.472 185.477 105.422 185.712 105.325C185.947 105.228 186.135 105.082 186.274 104.888C186.443 104.655 186.57 104.376 186.656 104.047C186.741 103.72 186.786 103.266 186.786 102.688ZM196.384 103.02H191.009V100.767H196.384V103.02ZM207.015 107.221H204.225V101.691L200.743 107.221H198.366V98.1155H201.155V103.061L204.347 98.1155H207.015V107.221ZM217.798 107.221H214.961V103.321H212.027V107.221H209.19V98.1155H212.027V101.271H214.961V98.1155H217.798V107.221ZM233.189 102.461C233.189 103.986 232.843 105.181 232.148 106.045C231.453 106.911 230.526 107.343 229.369 107.343C228.96 107.343 228.616 107.29 228.345 107.188C228.071 107.085 227.841 106.986 227.659 106.889V110.562H224.852V106.881C224.609 107.027 224.346 107.141 224.066 107.221C223.784 107.301 223.427 107.343 222.995 107.343C221.844 107.343 220.944 106.936 220.297 106.122C219.646 105.309 219.323 104.177 219.323 102.729C219.323 101.285 219.674 100.127 220.38 99.2586C221.085 98.3865 221.993 97.9521 223.1 97.9521C223.518 97.9521 223.864 98.002 224.144 98.1016C224.421 98.2012 224.658 98.3121 224.852 98.4308V94.6033H227.659V98.4226C227.875 98.3093 228.154 98.2012 228.494 98.1016C228.835 98.002 229.206 97.9521 229.604 97.9521C230.761 97.9521 231.647 98.3451 232.264 99.1285C232.881 99.9117 233.189 101.024 233.189 102.461ZM230.335 102.616C230.335 101.716 230.174 101.06 229.853 100.64C229.53 100.222 229.026 100.011 228.34 100.011C228.209 100.011 228.093 100.017 227.988 100.028C227.883 100.039 227.772 100.058 227.659 100.083V105.228C227.772 105.248 227.883 105.264 227.988 105.275C228.093 105.286 228.204 105.292 228.323 105.292C229.004 105.292 229.51 105.07 229.84 104.628C230.169 104.182 230.335 103.512 230.335 102.616ZM224.852 105.228V100.075C224.756 100.056 224.642 100.039 224.512 100.028C224.382 100.017 224.268 100.011 224.172 100.011C223.491 100.011 222.987 100.233 222.663 100.676C222.339 101.121 222.176 101.791 222.176 102.688C222.176 103.587 222.339 104.243 222.666 104.664C222.993 105.082 223.502 105.292 224.188 105.292C224.285 105.292 224.398 105.287 224.531 105.273C224.664 105.259 224.772 105.242 224.852 105.228ZM243.454 102.671C243.454 104.171 243.045 105.35 242.225 106.214C241.406 107.074 240.249 107.506 238.752 107.506C237.263 107.506 236.109 107.074 235.284 106.214C234.459 105.35 234.047 104.171 234.047 102.671C234.047 101.157 234.459 99.9726 235.284 99.1146C236.109 98.2593 237.263 97.8305 238.752 97.8305C240.244 97.8305 241.4 98.2621 242.222 99.1229C243.045 99.9864 243.454 101.168 243.454 102.671ZM240.542 102.688C240.542 102.148 240.498 101.697 240.409 101.337C240.318 100.977 240.197 100.689 240.039 100.473C239.873 100.247 239.682 100.089 239.471 99.9975C239.261 99.9088 239.02 99.8645 238.752 99.8645C238.497 99.8645 238.267 99.9032 238.06 99.9836C237.855 100.061 237.667 100.21 237.492 100.432C237.332 100.642 237.202 100.933 237.105 101.301C237.008 101.669 236.958 102.131 236.958 102.688C236.958 103.247 237.005 103.695 237.097 104.041C237.188 104.384 237.307 104.658 237.454 104.863C237.603 105.073 237.794 105.228 238.021 105.325C238.248 105.422 238.5 105.472 238.774 105.472C239.001 105.472 239.233 105.422 239.469 105.325C239.704 105.228 239.892 105.082 240.03 104.888C240.199 104.655 240.327 104.376 240.412 104.047C240.498 103.72 240.542 103.266 240.542 102.688ZM253.888 102.541C253.888 103.997 253.52 105.168 252.781 106.061C252.045 106.952 251.135 107.398 250.052 107.398C249.598 107.398 249.205 107.345 248.871 107.243C248.536 107.141 248.179 106.983 247.799 106.764V110.562H244.962V98.1155H247.799V99.0648C248.215 98.7076 248.641 98.4169 249.073 98.1959C249.504 97.9744 250.005 97.8635 250.573 97.8635C251.627 97.8635 252.444 98.2816 253.022 99.12C253.601 99.9588 253.888 101.099 253.888 102.541ZM250.985 102.599C250.985 101.713 250.849 101.069 250.575 100.67C250.304 100.269 249.878 100.069 249.299 100.069C249.045 100.069 248.793 100.111 248.541 100.191C248.289 100.271 248.043 100.393 247.799 100.557V105.137C247.952 105.201 248.117 105.248 248.298 105.273C248.48 105.3 248.693 105.314 248.943 105.314C249.634 105.314 250.146 105.087 250.481 104.636C250.816 104.185 250.985 103.507 250.985 102.599ZM265.806 107.221H263.016V101.506L261.17 105.3H259.969L258.123 101.506V107.221H255.413V98.1155H258.505L260.611 102.333L262.717 98.1155H265.806V107.221ZM272.999 104.846V102.948C272.518 102.997 272.127 103.039 271.831 103.072C271.532 103.108 271.242 103.177 270.954 103.28C270.705 103.366 270.514 103.499 270.375 103.673C270.237 103.85 270.168 104.083 270.168 104.376C270.168 104.802 270.284 105.096 270.514 105.256C270.744 105.414 271.081 105.494 271.529 105.494C271.779 105.494 272.033 105.436 272.293 105.322C272.554 105.209 272.789 105.051 272.999 104.846ZM272.999 106.255C272.806 106.419 272.631 106.565 272.476 106.695C272.321 106.822 272.116 106.952 271.856 107.082C271.601 107.207 271.355 107.301 271.115 107.368C270.874 107.432 270.536 107.464 270.104 107.464C269.299 107.464 268.629 107.193 268.097 106.654C267.563 106.114 267.298 105.433 267.298 104.611C267.298 103.936 267.433 103.388 267.705 102.973C267.973 102.558 268.363 102.225 268.87 101.985C269.385 101.736 269.999 101.561 270.713 101.464C271.427 101.367 272.194 101.293 273.016 101.237V101.187C273.016 100.687 272.83 100.338 272.46 100.147C272.089 99.956 271.532 99.8592 270.793 99.8592C270.459 99.8592 270.066 99.9199 269.617 100.042C269.169 100.164 268.729 100.319 268.302 100.507H268.059V98.3093C268.341 98.2288 268.795 98.1321 269.421 98.0212C270.049 97.9106 270.683 97.8553 271.319 97.8553C272.888 97.8553 274.032 98.1155 274.749 98.6385C275.465 99.1591 275.822 99.956 275.822 101.027V107.221H272.999V106.255ZM287.369 109.474H284.848V107.221H277.923V98.1155H280.76V105.217H283.633V98.1155H286.47V105.217H287.369V109.474ZM297.463 107.221H294.673V101.691L291.192 107.221H288.814V98.1155H291.604V103.061L294.795 98.1155H297.463V107.221ZM308.378 102.671C308.378 104.171 307.969 105.35 307.15 106.214C306.331 107.074 305.174 107.506 303.676 107.506C302.187 107.506 301.033 107.074 300.208 106.214C299.384 105.35 298.971 104.171 298.971 102.671C298.971 101.157 299.384 99.9726 300.208 99.1146C301.033 98.2593 302.187 97.8305 303.676 97.8305C305.168 97.8305 306.325 98.2621 307.147 99.1229C307.969 99.9864 308.378 101.168 308.378 102.671ZM305.467 102.688C305.467 102.148 305.423 101.697 305.334 101.337C305.243 100.977 305.121 100.689 304.963 100.473C304.797 100.247 304.606 100.089 304.396 99.9975C304.186 99.9088 303.945 99.8645 303.676 99.8645C303.422 99.8645 303.192 99.9032 302.984 99.9836C302.78 100.061 302.591 100.21 302.417 100.432C302.257 100.642 302.126 100.933 302.03 101.301C301.933 101.669 301.883 102.131 301.883 102.688C301.883 103.247 301.93 103.695 302.021 104.041C302.113 104.384 302.232 104.658 302.378 104.863C302.528 105.073 302.719 105.228 302.946 105.325C303.173 105.422 303.424 105.472 303.698 105.472C303.925 105.472 304.158 105.422 304.393 105.325C304.628 105.228 304.817 105.082 304.955 104.888C305.124 104.655 305.251 104.376 305.337 104.047C305.423 103.72 305.467 103.266 305.467 102.688ZM318.495 107.221H315.658V103.321H312.724V107.221H309.887V98.1155H312.724V101.271H315.658V98.1155H318.495V107.221ZM329.278 107.221H326.441V103.321H323.507V107.221H320.67V98.1155H323.507V101.271H326.441V98.1155H329.278V107.221ZM340.193 102.671C340.193 104.171 339.784 105.35 338.964 106.214C338.145 107.074 336.988 107.506 335.491 107.506C334.002 107.506 332.848 107.074 332.023 106.214C331.198 105.35 330.786 104.171 330.786 102.671C330.786 101.157 331.198 99.9726 332.023 99.1146C332.848 98.2593 334.002 97.8305 335.491 97.8305C336.983 97.8305 338.139 98.2621 338.962 99.1229C339.784 99.9864 340.193 101.168 340.193 102.671ZM337.282 102.688C337.282 102.148 337.237 101.697 337.149 101.337C337.057 100.977 336.936 100.689 336.778 100.473C336.612 100.247 336.421 100.089 336.21 99.9975C336 99.9088 335.759 99.8645 335.491 99.8645C335.236 99.8645 335.007 99.9032 334.799 99.9836C334.594 100.061 334.406 100.21 334.232 100.432C334.071 100.642 333.941 100.933 333.844 101.301C333.747 101.669 333.698 102.131 333.698 102.688C333.698 103.247 333.744 103.695 333.836 104.041C333.927 104.384 334.046 104.658 334.193 104.863C334.342 105.073 334.533 105.228 334.76 105.325C334.987 105.422 335.239 105.472 335.513 105.472C335.74 105.472 335.973 105.422 336.208 105.325C336.443 105.228 336.631 105.082 336.769 104.888C336.939 104.655 337.066 104.376 337.151 104.047C337.237 103.72 337.282 103.266 337.282 102.688ZM346.362 107.464C344.644 107.464 343.326 107.055 342.41 106.233C341.494 105.411 341.035 104.24 341.035 102.721C341.035 101.235 341.461 100.047 342.316 99.1614C343.171 98.273 344.364 97.8305 345.9 97.8305C347.295 97.8305 348.344 98.2068 349.047 98.9566C349.75 99.7097 350.102 100.786 350.102 102.187V103.208H343.88C343.907 103.629 343.996 103.983 344.148 104.265C344.298 104.55 344.5 104.775 344.749 104.943C344.99 105.112 345.275 105.231 345.598 105.303C345.922 105.378 346.277 105.414 346.661 105.414C346.991 105.414 347.318 105.378 347.636 105.303C347.954 105.231 348.247 105.134 348.51 105.015C348.743 104.913 348.958 104.802 349.155 104.683C349.354 104.564 349.515 104.459 349.639 104.368H349.938V106.712C349.706 106.803 349.493 106.889 349.302 106.966C349.111 107.044 348.845 107.124 348.51 107.204C348.203 107.287 347.885 107.351 347.558 107.395C347.232 107.443 346.833 107.464 346.362 107.464ZM347.304 101.497C347.287 100.897 347.148 100.44 346.885 100.125C346.623 99.8121 346.221 99.6544 345.682 99.6544C345.128 99.6544 344.699 99.8202 344.386 100.15C344.076 100.479 343.905 100.93 343.872 101.497H347.304ZM365.078 107.221H362.288V101.691L358.806 107.221H356.428V98.1155H359.218V103.061L362.41 98.1155H365.078V107.221ZM374.418 104.642C374.418 105.168 374.3 105.613 374.059 105.981C373.818 106.349 373.494 106.643 373.09 106.864C372.7 107.074 372.249 107.229 371.739 107.326C371.227 107.423 370.682 107.473 370.098 107.473C369.351 107.473 368.678 107.404 368.078 107.263C367.48 107.121 366.918 106.955 366.401 106.767V104.578H366.699C367.106 104.816 367.555 105.018 368.05 105.187C368.546 105.356 369.049 105.439 369.561 105.439C369.752 105.439 369.982 105.425 370.25 105.397C370.521 105.372 370.732 105.325 370.884 105.259C371.117 105.168 371.28 105.057 371.377 104.924C371.473 104.791 371.524 104.622 371.524 104.415C371.524 104.188 371.468 104.008 371.36 103.875C371.252 103.742 371.105 103.642 370.915 103.579C370.726 103.512 370.507 103.474 370.258 103.46C370.012 103.446 369.741 103.44 369.45 103.44H368.388V101.625H369.199C369.403 101.625 369.652 101.622 369.943 101.614C370.236 101.606 370.469 101.576 370.64 101.529C370.862 101.468 371.036 101.385 371.161 101.274C371.285 101.163 371.346 100.986 371.346 100.743C371.346 100.568 371.294 100.427 371.189 100.316C371.083 100.206 370.945 100.117 370.77 100.053C370.624 99.9981 370.455 99.9567 370.258 99.9319C370.065 99.9039 369.86 99.89 369.644 99.89C369.249 99.89 368.828 99.9538 368.379 100.084C367.931 100.214 367.521 100.377 367.153 100.571H366.854V98.4152C367.162 98.3181 367.64 98.199 368.285 98.0636C368.933 97.925 369.561 97.856 370.17 97.856C370.718 97.856 371.219 97.8974 371.678 97.9776C372.138 98.058 372.57 98.2018 372.976 98.4066C373.355 98.6005 373.66 98.8606 373.892 99.1845C374.125 99.5108 374.241 99.9066 374.241 100.377C374.241 100.859 374.086 101.291 373.779 101.675C373.472 102.057 373.095 102.317 372.65 102.453V102.525C373.215 102.683 373.649 102.943 373.956 103.308C374.263 103.674 374.418 104.119 374.418 104.642ZM385.259 109.474H382.738V107.188H377.465V109.474H374.944V105.176H375.6C376.01 104.321 376.339 103.28 376.585 102.046C376.832 100.814 376.953 99.5049 376.953 98.1155H384.36V105.176H385.259V109.474ZM381.537 105.176V100.119H379.533C379.442 101.129 379.287 102.065 379.068 102.928C378.847 103.789 378.584 104.539 378.277 105.176H381.537ZM391.722 104.846V102.948C391.241 102.997 390.85 103.039 390.554 103.072C390.255 103.108 389.964 103.177 389.677 103.28C389.428 103.366 389.237 103.499 389.098 103.673C388.96 103.85 388.891 104.083 388.891 104.376C388.891 104.802 389.007 105.096 389.237 105.256C389.466 105.414 389.804 105.494 390.252 105.494C390.501 105.494 390.756 105.436 391.016 105.322C391.276 105.209 391.512 105.051 391.722 104.846ZM391.722 106.255C391.528 106.419 391.354 106.565 391.199 106.695C391.044 106.822 390.839 106.952 390.579 107.082C390.324 107.207 390.078 107.301 389.837 107.368C389.596 107.432 389.259 107.464 388.827 107.464C388.022 107.464 387.352 107.193 386.82 106.654C386.286 106.114 386.02 105.433 386.02 104.611C386.02 103.936 386.156 103.388 386.427 102.973C386.696 102.558 387.086 102.225 387.593 101.985C388.107 101.736 388.722 101.561 389.436 101.464C390.15 101.367 390.917 101.293 391.738 101.237V101.187C391.738 100.687 391.553 100.338 391.182 100.147C390.811 99.956 390.255 99.8592 389.516 99.8592C389.181 99.8592 388.788 99.9199 388.34 100.042C387.891 100.164 387.451 100.319 387.025 100.507H386.782V98.3093C387.064 98.2288 387.518 98.1321 388.143 98.0212C388.772 97.9106 389.405 97.8553 390.042 97.8553C391.611 97.8553 392.754 98.1155 393.471 98.6385C394.188 99.1591 394.545 99.956 394.545 101.027V107.221H391.722V106.255ZM405.253 107.221H402.416V103.321H399.483V107.221H396.646V98.1155H399.483V101.271H402.416V98.1155H405.253V107.221ZM416.078 107.221H413.288V101.691L409.806 107.221H407.428V98.1155H410.218V103.061L413.41 98.1155H416.078V107.221ZM422.914 107.464C421.195 107.464 419.877 107.055 418.961 106.233C418.045 105.411 417.586 104.24 417.586 102.721C417.586 101.235 418.012 100.047 418.867 99.1614C419.723 98.273 420.916 97.8305 422.452 97.8305C423.846 97.8305 424.895 98.2068 425.598 98.9566C426.301 99.7097 426.653 100.786 426.653 102.187V103.208H420.431C420.459 103.629 420.547 103.983 420.7 104.265C420.849 104.55 421.051 104.775 421.3 104.943C421.541 105.112 421.826 105.231 422.15 105.303C422.474 105.378 422.828 105.414 423.213 105.414C423.542 105.414 423.869 105.378 424.187 105.303C424.505 105.231 424.799 105.134 425.062 105.015C425.294 104.913 425.51 104.802 425.706 104.683C425.905 104.564 426.066 104.459 426.19 104.368H426.489V106.712C426.257 106.803 426.044 106.889 425.853 106.966C425.662 107.044 425.396 107.124 425.062 107.204C424.754 107.287 424.436 107.351 424.109 107.395C423.783 107.443 423.384 107.464 422.914 107.464ZM423.855 101.497C423.838 100.897 423.7 100.44 423.437 100.125C423.174 99.8121 422.773 99.6544 422.233 99.6544C421.68 99.6544 421.25 99.8202 420.937 100.15C420.628 100.479 420.456 100.93 420.423 101.497H423.855Z" fill="white"/>
<path fill-rule="evenodd" clip-rule="evenodd" d="M668.831 0.154114C670.029 0.154114 671.177 0.453049 672.275 1.05318C673.376 1.65078 674.241 2.50944 674.87 3.62624C675.498 4.74624 675.812 5.91598 675.812 7.13558C675.812 8.35185 675.504 9.51252 674.888 10.6139C674.269 11.7153 673.41 12.5771 672.306 13.1931C671.205 13.8088 670.044 14.1168 668.831 14.1168C667.615 14.1168 666.457 13.8088 665.353 13.1931C664.251 12.5771 663.39 11.7153 662.774 10.6139C662.158 9.51252 661.85 8.35185 661.85 7.13558C661.85 5.91598 662.164 4.74624 662.792 3.62624C663.421 2.50944 664.285 1.65078 665.384 1.05318C666.485 0.453049 667.633 0.154114 668.831 0.154114ZM668.84 1.52305C667.879 1.52305 666.958 1.76264 666.078 2.24184C665.197 2.72078 664.503 3.41157 663.996 4.31077C663.486 5.20997 663.234 6.15251 663.234 7.13558C663.234 8.11558 663.483 9.04878 663.977 9.93545C664.472 10.8221 665.163 11.5161 666.05 12.0139C666.936 12.5116 667.867 12.7603 668.84 12.7603C669.817 12.7603 670.747 12.5116 671.634 12.0139C672.518 11.5161 673.208 10.8221 673.706 9.93545C674.204 9.04878 674.453 8.11558 674.453 7.13558C674.453 6.15251 674.201 5.20997 673.693 4.31077C673.187 3.41157 672.49 2.72078 671.606 2.24184C670.722 1.76264 669.798 1.52305 668.84 1.52305ZM665.676 10.872V3.46452H667.182C668.591 3.46452 669.381 3.47119 669.55 3.48305C670.047 3.52345 670.436 3.62291 670.713 3.77865C670.99 3.93438 671.22 4.17051 671.404 4.48798C671.591 4.80851 671.684 5.16305 671.684 5.55198C671.684 6.08412 671.51 6.54145 671.158 6.92092C670.81 7.30345 670.318 7.53704 669.686 7.63037C669.91 7.71424 670.085 7.80758 670.206 7.90704C670.327 8.00678 670.495 8.19652 670.707 8.47652C670.763 8.54799 670.943 8.84958 671.255 9.37878L672.129 10.872H670.271L669.649 9.67092C669.232 8.86212 668.884 8.35184 668.61 8.14358C668.339 7.93491 667.991 7.82918 667.571 7.82918H667.182V10.872H665.676ZM667.182 6.66278H667.792C668.66 6.66278 669.198 6.62838 669.41 6.56305C669.618 6.49465 669.783 6.37971 669.904 6.21145C670.029 6.04371 670.088 5.85359 670.088 5.64225C670.088 5.43372 670.029 5.25037 669.911 5.09157C669.792 4.92984 669.624 4.81465 669.403 4.74318C669.186 4.67478 668.647 4.64038 667.792 4.64038H667.182V6.66278Z" fill="#102A83"/>
</svg>
