<svg width="250" height="250" viewBox="0 0 250 250" fill="none" xmlns="http://www.w3.org/2000/svg">
<path d="M125 2.09567L153.492 54.5694L153.879 55.281L154.655 55.0511L211.906 38.0935L194.949 95.345L194.719 96.1215L195.431 96.5079L247.904 125L195.431 153.492L194.719 153.879L194.949 154.655L211.906 211.906L154.655 194.949L153.879 194.719L153.492 195.431L125 247.904L96.5079 195.431L96.1215 194.719L95.345 194.949L38.0935 211.906L55.0511 154.655L55.281 153.879L54.5694 153.492L2.09567 125L54.5694 96.5079L55.281 96.1215L55.0511 95.345L38.0935 38.0935L95.345 55.0511L96.1215 55.281L96.5079 54.5694L125 2.09567Z" stroke="#131313" stroke-width="2"/>
</svg>
