<svg width="135" height="99" viewBox="0 0 135 99" fill="none" xmlns="http://www.w3.org/2000/svg">
<path d="M0 26.0416C0.94743 22.5354 3.36355 20.6153 6.71302 19.4864C10.1188 18.34 13.4331 16.9262 16.7931 15.6461C18.3358 15.0588 19.4065 15.4105 19.8714 16.6097C20.3222 17.7667 19.7235 18.7514 18.1597 19.3563C14.4404 20.7982 10.7105 22.2154 6.99126 23.6608C4.9203 24.4626 3.95878 25.7075 3.95526 27.5011C3.95526 29.3052 4.91678 30.5325 6.97365 31.3554C25.644 38.8039 44.7089 45.0919 64.0202 50.6518C66.1757 51.2708 68.384 51.3904 70.5255 50.7503C78.6755 48.3132 86.8008 45.7952 94.9332 43.3054C95.053 43.2667 95.1586 43.1752 95.451 43.0029C92.8799 41.7791 90.4215 40.608 87.9631 39.4369C81.074 36.1593 74.1778 32.8852 67.2922 29.5971C66.8238 29.3755 66.3166 29.1188 65.9926 28.739C65.3516 27.9899 65.3445 27.1037 65.9503 26.323C66.5948 25.493 67.4613 25.3242 68.4228 25.7814C71.7124 27.3428 74.9984 28.9078 78.288 30.4692C85.2617 33.782 92.2565 37.042 99.1843 40.4427C100.519 41.1003 101.583 41.1707 102.953 40.6537C111.279 37.5097 119.644 34.4642 127.981 31.3554C130.076 30.5747 131.013 29.3157 131.017 27.5187C131.02 25.7251 130.055 24.4837 127.998 23.6608C109.363 16.2404 90.3546 9.92437 71.0749 4.40659C68.5954 3.69621 66.1299 3.68918 63.6821 4.46989C51.3972 8.37348 39.1194 12.2911 26.838 16.2053C26.7535 16.2334 26.6725 16.2616 26.5879 16.2897C25.1122 16.7785 24.0802 16.4128 23.6364 15.2487C23.1962 14.0882 23.7632 13.107 25.2425 12.5866C28.2186 11.5386 31.1842 10.4413 34.1955 9.49533C43.3951 6.60104 52.6299 3.80171 61.8225 0.889843C65.6016 -0.305852 69.2998 -0.267167 73.0825 0.837092C91.9923 6.35487 110.673 12.5479 128.998 19.7818C133.676 21.6281 135.803 25.1765 134.718 29.4951C134.021 32.2768 132.179 34.0247 129.544 35.0129C122.771 37.5519 116.006 40.1157 109.215 42.6055C108.306 42.9396 108.039 43.3616 108.056 44.2865C108.113 47.3109 108.081 50.3389 108.074 53.3668C108.07 55.0126 107.352 55.9586 106.119 55.9797C104.872 56.0043 104.126 55.0654 104.122 53.4301C104.115 50.4936 104.122 47.5571 104.122 44.4202C103.242 44.7156 102.456 44.9301 101.717 45.2571C101.484 45.3591 101.238 45.76 101.238 46.0238C101.231 53.0854 101.255 60.1471 101.276 67.2052C101.276 67.2368 101.319 67.272 101.343 67.3036C103.573 66.8781 104.119 66.2521 104.122 64.114C104.122 63.3684 104.094 62.6193 104.136 61.8773C104.207 60.7238 104.989 59.9572 106.063 59.9642C107.211 59.9712 107.947 60.6113 108.021 61.6944C108.12 63.1293 108.144 64.6028 107.937 66.0236C107.606 68.2883 106.239 69.9693 104.048 70.5672C101.608 71.2354 100.738 72.5999 101.202 74.9983C101.294 75.4625 101.266 75.9654 101.206 76.4437C100.974 78.3287 101.262 79.6826 103.33 80.6567C105.439 81.6555 106.486 83.8042 106.535 86.2062C106.605 89.7581 106.584 93.3135 106.559 96.8654C106.549 98.2686 105.834 98.9685 104.436 98.979C100.966 99.0036 97.4938 99.0036 94.0245 98.979C92.6192 98.9685 91.8796 98.2968 91.862 96.883C91.8197 93.3311 91.7599 89.7722 91.9043 86.2238C92.0275 83.1923 93.697 81.0999 96.4336 79.7987C96.7999 79.6263 97.2049 79.0953 97.2261 78.712C97.3106 77.0064 97.2648 75.2937 97.2648 73.3806C96.2716 73.7569 95.4017 74.1226 94.5106 74.4145C86.3042 77.0978 78.1049 79.8198 69.8633 82.3905C68.6059 82.7844 67.0351 82.7809 65.7601 82.4292C54.2113 79.236 42.888 75.3746 31.8217 70.7676C28.6272 69.4383 27.4438 67.6799 27.4438 64.1913C27.4438 57.6994 27.4438 51.204 27.4438 44.712V43.2385C23.802 41.9092 20.213 40.6291 16.6452 39.2963C12.8273 37.8649 9.03053 36.3738 5.21967 34.9285C2.40204 33.8594 0.810071 31.7423 0.00704409 28.9324V26.0381L0 26.0416ZM97.2613 46.7588C96.6731 46.9241 96.2188 47.0437 95.7715 47.1808C87.9772 49.5722 80.1864 51.9777 72.3886 54.3515C69.3843 55.2658 66.3236 55.4241 63.3017 54.5097C54.5741 51.8757 45.8606 49.1889 37.147 46.5021C35.2733 45.9253 33.4242 45.2712 31.4554 44.6171C31.4272 45.1692 31.392 45.549 31.392 45.9324C31.392 52.0726 31.4166 58.2129 31.3709 64.3531C31.3603 65.7985 31.959 66.5757 33.2728 67.1208C44.1383 71.6292 55.2644 75.3851 66.5737 78.5959C67.3274 78.8104 68.2643 78.828 69.0004 78.5854C78.0767 75.6067 87.1284 72.5471 96.2012 69.5508C97.0852 69.259 97.2859 68.8123 97.2824 67.9472C97.2472 61.3252 97.2613 54.7031 97.2613 48.0776V46.7553V46.7588ZM102.569 94.998C102.569 91.9561 102.647 89.0301 102.537 86.1147C102.477 84.5111 100.931 83.2802 99.3006 83.231C97.7473 83.1888 96.2152 84.2895 95.9652 85.8404C95.7715 87.0396 95.8137 88.2775 95.7997 89.4978C95.775 91.316 95.7926 93.1377 95.7926 94.9945H102.569V94.998Z" fill="black"/>
</svg>
