<svg width="92" height="93" viewBox="0 0 92 93" fill="none" xmlns="http://www.w3.org/2000/svg">
<path d="M75.131 45.9949C75.131 61.998 62.1015 75.1292 46.2075 75.1394C29.9527 75.1496 16.8515 62.1465 16.8745 46.023C16.895 29.8971 29.9527 16.8709 46.0949 16.876C62.0861 16.8811 75.131 29.9636 75.1335 45.9974L75.131 45.9949ZM45.9234 72.0729C60.3531 72.078 72.0643 60.4264 72.0669 46.064C72.0694 31.6197 60.3864 19.9399 45.9311 19.9425C31.6166 19.9425 19.9361 31.653 19.9361 46.0026C19.9361 60.3624 31.6063 72.0703 45.9208 72.0755L45.9234 72.0729Z" fill="#131313"/>
<path d="M10.9914 70.6753C12.686 69.8434 14.4727 69.5286 16.3465 69.9868C17.7416 70.3272 18.955 71.0055 19.9738 72.0217C21.2614 73.3092 22.5515 74.5942 23.8365 75.8817C25.0985 77.1437 25.0985 77.7349 23.8493 79.002C23.6727 79.1812 23.5038 79.3706 23.2785 79.6086C24.7171 81.0216 26.1378 82.4191 27.5278 83.786C26.7061 84.5898 26.0073 85.2732 25.2598 86.0053C23.962 84.6691 22.5848 83.251 21.1513 81.7741C20.4448 82.5855 19.8048 83.3202 19.1853 84.0318C20.4525 85.2886 21.8732 86.6938 23.3246 88.1298C22.4747 88.9668 21.7784 89.6502 21.077 90.3414C19.6947 88.9387 18.3124 87.5385 16.8329 86.0411C16.3823 86.4814 16.0649 86.8192 15.7219 87.1264C14.9616 87.8073 14.1399 87.8329 13.4155 87.1264C11.8412 85.5855 10.2439 84.0599 8.76175 82.432C6.52958 79.9772 6.26848 76.2836 8.08083 73.4577C8.44689 72.8869 8.47505 72.5362 8.08083 71.9654C-10.5368 44.9198 4.65324 7.44102 36.8584 0.941997C45.7614 -0.854898 54.4443 -0.0741958 62.902 3.22523C63.0479 3.28154 63.1887 3.35066 63.4293 3.4556C63.053 4.37709 62.6895 5.27297 62.303 6.22517C50.8043 1.83277 39.4489 1.91468 28.265 6.94189C19.8893 10.7072 13.4001 16.6507 8.80782 24.6088C-0.256507 40.315 2.13693 58.7626 10.9914 70.6753ZM20.8262 77.4611C19.6768 76.2478 18.5812 74.9039 17.2936 73.7802C15.576 72.2828 12.9138 72.5132 11.2806 74.1181C9.68072 75.6923 9.36075 78.3365 10.8096 80.0438C11.9513 81.3902 13.3899 82.4831 14.6365 83.635C16.6178 81.6589 18.7348 79.5472 20.8262 77.4611Z" fill="#131313"/>
<path d="M28.6086 88.46C28.9645 87.5974 29.3126 86.745 29.7017 85.8005C42.1885 90.5154 54.4065 90.0496 66.2457 83.8295C73.8561 79.8313 79.6771 73.9415 83.7677 66.3828C91.8183 51.5008 90.1058 33.862 81.0773 21.3682C80.4476 21.5833 79.8102 21.8699 79.1446 22.0184C76.4491 22.6199 74.0813 21.9365 72.0898 20.0347C70.6819 18.6883 69.32 17.2932 67.948 15.911C66.9753 14.9281 66.9804 14.1986 67.9761 13.208C68.2219 12.9623 68.547 12.7959 68.9668 12.5015C67.3387 10.9196 65.9104 9.52973 64.4717 8.13215C65.2602 7.40008 65.9539 6.75248 66.6604 6.09464C67.9633 7.40776 69.3687 8.82326 70.7254 10.1927C71.5445 9.39151 72.2382 8.71319 72.955 8.01184C71.5804 6.67057 70.1494 5.27043 68.7466 3.901C69.5555 3.06142 70.2339 2.35751 70.9711 1.59473C72.3662 3.04862 73.7281 4.47181 75.0924 5.89499C75.2435 5.96154 75.3945 6.03065 75.543 6.0972C75.7708 5.71069 75.9346 5.26275 76.2418 4.95303C77.0072 4.18256 77.8391 4.16464 78.602 4.91207C80.1558 6.42996 81.7249 7.93505 83.1917 9.53485C85.4904 12.0433 85.7439 15.7651 83.8547 18.6678C83.5143 19.1925 83.545 19.5074 83.8803 19.9963C89.558 28.2563 92.2125 37.4174 91.9796 47.4283C91.4932 68.3896 75.9679 86.8909 55.3997 91.0376C46.5709 92.8166 37.9443 92.1511 29.5199 88.9591C29.2819 88.8696 29.0438 88.7774 28.8083 88.6776C28.7545 88.6545 28.7213 88.588 28.6035 88.4626L28.6086 88.46ZM71.1426 14.5544C72.3048 15.7702 73.3953 17.0757 74.6547 18.1866C76.3468 19.6789 78.9552 19.5304 80.6037 18.0074C82.2907 16.4485 82.6926 13.7737 81.2309 12.028C80.0815 10.656 78.5943 9.56557 77.3093 8.39579C75.3561 10.3463 73.2417 12.458 71.1426 14.5544Z" fill="#131313"/>
<path d="M47.5361 41.4079C50.0192 41.4079 52.3768 41.4028 54.7344 41.4079C56.5339 41.413 57.1662 42.419 56.365 44.029C53.4365 49.906 50.4953 55.7779 47.5566 61.6473C47.06 62.6379 46.3893 63.0526 45.6265 62.8171C44.6691 62.5201 44.4541 61.783 44.4618 60.864C44.4848 57.4853 44.472 54.109 44.472 50.6637C44.1392 50.6407 43.8628 50.6074 43.5889 50.6074C41.4514 50.6023 39.3114 50.6151 37.174 50.6023C35.5254 50.592 34.8676 49.5426 35.6048 48.0631C38.1313 42.9847 40.6707 37.9114 43.2075 32.8381C43.5914 32.0676 43.9754 31.2972 44.362 30.5293C44.9328 29.3928 45.5804 28.9448 46.3816 29.1906C47.3953 29.5003 47.5566 30.2989 47.5489 31.2383C47.5233 34.2382 47.5387 37.2382 47.5387 40.2381V41.4053L47.5361 41.4079ZM39.3242 47.4692C39.5495 47.5127 39.6109 47.5332 39.6749 47.5332C41.239 47.5358 42.8056 47.5383 44.3696 47.5383C47.4491 47.5383 47.5387 47.6279 47.5387 50.697V54.429C47.6052 54.4341 47.6744 54.4392 47.7409 54.4418C49.3818 51.1552 51.0226 47.866 52.7146 44.4718H47.4517C44.6282 44.4718 44.4695 44.3157 44.4695 41.5103V37.5837C44.4029 37.5786 44.3364 37.5735 44.2672 37.5684C42.6315 40.8397 40.9983 44.1109 39.3217 47.4667L39.3242 47.4692Z" fill="#131313"/>
</svg>
