<svg width="458" height="313" viewBox="0 0 458 313" fill="none" xmlns="http://www.w3.org/2000/svg">
<mask id="path-1-inside-1_1016_2" fill="white">
<path d="M458 156.5V298C458 306.284 451.284 313 443 313H15C6.71573 313 0 306.284 0 298V15C0 6.71573 6.71573 0 15 0H229"/>
</mask>
<path d="M461 156.5C461 154.843 459.657 153.5 458 153.5C456.343 153.5 455 154.843 455 156.5H461ZM229 3C230.657 3 232 1.65685 232 0C232 -1.65685 230.657 -3 229 -3V3ZM455 156.5V298H461V156.5H455ZM443 310H15V316H443V310ZM3 298V15H-3V298H3ZM15 3H229V-3H15V3ZM3 15C3 8.37258 8.37258 3 15 3V-3C5.05887 -3 -3 5.05888 -3 15H3ZM15 310C8.37258 310 3 304.627 3 298H-3C-3 307.941 5.05887 316 15 316V310ZM455 298C455 304.627 449.627 310 443 310V316C452.941 316 461 307.941 461 298H455Z" fill="#444642" mask="url(#path-1-inside-1_1016_2)"/>
<mask id="path-3-inside-2_1016_2" fill="white">
<path d="M21 156.5V284C21 292.284 27.7157 299 36 299H422C430.284 299 437 292.284 437 284V29C437 20.7157 430.284 14 422 14H229"/>
</mask>
<path d="M18 156.5C18 154.843 19.3431 153.5 21 153.5C22.6569 153.5 24 154.843 24 156.5H18ZM229 17C227.343 17 226 15.6569 226 14C226 12.3431 227.343 11 229 11V17ZM24 156.5V284H18V156.5H24ZM36 296H422V302H36V296ZM434 284V29H440V284H434ZM422 17H229V11H422V17ZM434 29C434 22.3726 428.627 17 422 17V11C431.941 11 440 19.0589 440 29H434ZM422 296C428.627 296 434 290.627 434 284H440C440 293.941 431.941 302 422 302V296ZM24 284C24 290.627 29.3726 296 36 296V302C26.0589 302 18 293.941 18 284H24Z" fill="#444642" mask="url(#path-3-inside-2_1016_2)"/>
</svg>
