<svg width="87" height="87" viewBox="0 0 87 87" fill="none" xmlns="http://www.w3.org/2000/svg">
<path d="M17.9298 44.7361C16.301 44.7361 14.6513 44.715 13.004 44.7641C12.8178 44.7688 12.5665 45.1434 12.4781 45.3938C11.5451 48.0132 8.9647 49.8976 6.4541 49.7642C3.60613 49.612 1.28401 47.6645 0.597606 44.8554C-0.16325 41.7421 1.72609 38.5188 4.89051 37.5262C7.96418 36.5642 11.2636 38.1208 12.3385 41.1405C12.6038 41.8872 12.9621 42.0347 13.6485 42.016C15.0934 41.9762 16.5407 42.0043 18.0159 42.0043C18.1764 40.9813 18.3067 40.0356 18.4789 39.0946C18.686 37.9616 19.135 37.6831 20.2821 37.6737C21.2291 37.6644 22.2087 37.6339 23.1092 37.3764C24.603 36.9527 25.0078 35.8736 24.1981 34.5323C23.756 33.8019 23.1162 33.1699 22.4786 32.5917C21.5688 31.7631 21.4013 31.1942 22.0621 30.169C22.6927 29.1905 23.3814 28.2518 24.0981 27.2218C23.9608 27.065 23.7839 26.8496 23.5908 26.646C20.3217 23.2049 17.0409 19.7709 13.7858 16.3158C13.3623 15.864 13.0784 15.7727 12.4874 16.1004C8.70177 18.1838 4.05287 17.0368 1.51901 13.4506C-0.891531 10.04 -0.386621 5.33956 2.70334 2.45798C5.13482 0.189697 9.04148 -0.285496 12.2315 1.29458C15.2796 2.80677 17.0875 6.08396 16.792 9.49925C16.6547 11.0864 16.1149 12.5049 15.1283 13.8532C18.7511 17.6618 22.3809 21.4727 26.0223 25.3C27.0344 24.5626 28.0047 23.8299 29.0006 23.1394C29.8778 22.5331 30.3641 22.6689 31.1366 23.3922C31.9346 24.1366 32.7676 24.8903 33.7076 25.4217C34.7175 25.9929 35.5784 25.6207 35.8762 24.4877C36.1368 23.4975 36.1903 22.4207 36.1438 21.3884C36.0879 20.0869 36.3648 19.5579 37.6655 19.3168C38.8894 19.0897 40.1249 18.9141 41.4442 18.7035C41.4628 18.5513 41.5117 18.3336 41.514 18.1112C41.5233 17.2639 41.4628 16.4118 41.5303 15.5714C41.6652 13.8954 41.5303 12.6828 39.6153 11.7722C36.9954 10.5245 36.1577 7.25438 37.1908 4.47813C38.2146 1.73232 40.9183 0.0515863 43.7081 0.426122C46.8446 0.847475 48.9736 3.00574 49.2389 6.02777C49.4832 8.82509 47.6683 11.6435 44.9599 12.5611C44.3875 12.7554 44.1991 12.9848 44.2154 13.5887C44.2596 15.3069 44.2317 17.0251 44.2317 18.7339C45.3625 18.9259 46.4235 19.078 47.4682 19.2957C48.4245 19.4947 48.6898 20.012 48.6921 20.9952C48.6921 21.976 48.72 22.9919 48.976 23.9259C49.3715 25.3679 50.4697 25.7869 51.7518 25.0121C52.4801 24.572 53.1223 23.94 53.6923 23.2939C54.5625 22.3084 55.128 22.1586 56.2285 22.9053C57.0941 23.4905 57.9271 24.1249 58.8741 24.8131C62.5527 21.0326 66.2569 17.2287 69.9472 13.4366C66.827 8.37331 69.0002 3.57925 71.8598 1.58016C75.2546 -0.79346 79.9151 -0.472764 82.7165 2.40882C85.6948 5.47065 86.0252 10.1758 83.4983 13.5442C81.4298 16.3018 76.874 18.4155 71.8551 15.328C68.1835 19.0991 64.4979 22.8842 60.8123 26.6717C61.5964 27.7345 62.3735 28.7434 63.1018 29.7851C63.7533 30.7167 63.5974 31.1638 62.8366 31.9972C62.0641 32.8399 61.3288 33.7598 60.7843 34.7594C60.3213 35.6044 60.6564 36.3722 61.5801 36.6344C62.562 36.9129 63.623 37.0183 64.6468 37.0089C66.215 36.9925 66.5245 37.1423 66.8316 38.7037C66.9992 39.5628 67.1527 40.4289 67.2086 41.2997C67.2481 41.8943 67.4901 42.0207 68.0206 42.0136C69.675 41.9902 71.3316 41.9832 72.986 42.016C73.5351 42.0277 73.784 41.8475 73.9911 41.3208C75.3569 37.8727 78.8774 36.3722 82.2791 37.7486C85.4994 39.0501 86.8861 42.6808 85.4319 45.9884C84.0335 49.1673 80.2781 50.5297 77.0718 49.0058C75.2709 48.1514 74.0214 46.8124 73.6095 44.7688H67.3808C67.2179 45.869 67.0736 46.9599 66.8898 48.046C66.6664 49.3709 66.2243 49.6237 64.8678 49.6261C63.8999 49.6261 62.8901 49.7221 61.9733 50.0147C60.7727 50.3962 60.3609 51.5175 60.9868 52.6224C61.4056 53.3621 62.0082 54.0363 62.6458 54.6074C63.7161 55.5672 63.8557 56.0704 63.0367 57.2877C62.4364 58.1796 61.7849 59.0363 61.1171 59.9609C64.5886 63.6993 68.0718 67.4493 71.5434 71.1876C76.4087 68.3622 81.0133 70.6141 82.9958 73.4489C85.3132 76.7635 84.9316 81.3586 82.0418 84.2894C79.1543 87.2178 74.6985 87.5642 71.2944 85.1274C67.4017 82.3395 66.8433 78.5098 69.5586 72.9971C66.1313 69.3056 62.6876 65.5977 59.2533 61.8968C58.2389 62.6553 57.3012 63.3856 56.3332 64.0691C55.3118 64.7901 54.8836 64.666 54.0111 63.7952C53.2991 63.086 52.5313 62.3837 51.6657 61.8968C50.5721 61.2812 49.6949 61.6487 49.3622 62.8542C49.1063 63.7859 49.0295 64.8065 49.0876 65.7756C49.1714 67.2012 48.8945 67.6974 47.4891 67.9432C46.947 68.0369 46.4002 68.1165 45.8534 68.1843C45.3392 68.2475 44.8227 68.2897 44.241 68.3482C44.241 70.1015 44.227 71.7892 44.2596 73.4793C44.2619 73.6549 44.5062 73.9171 44.6924 73.9826C47.8661 75.1273 49.4948 77.4401 49.2482 80.4995C49.0085 83.4748 46.8586 85.6237 43.7477 86.3166C41.1789 86.8877 38.7567 85.0736 37.7446 83.3648C36.4719 81.2159 36.6022 78.2149 38.2658 76.3141C39.0057 75.4667 40.083 74.919 40.9974 74.2214C41.1999 74.0669 41.4977 73.8445 41.5023 73.6479C41.5419 71.9297 41.5256 70.2115 41.5256 68.4582C40.2692 68.2593 39.0732 68.0884 37.8842 67.8754C36.8348 67.6857 36.5742 67.2433 36.544 66.1899C36.5114 65.0968 36.4835 63.9661 36.1903 62.9268C35.8669 61.7774 34.9501 61.4123 33.924 62.0022C33.0934 62.4797 32.3465 63.1796 31.7159 63.9146C30.8038 64.9704 30.2803 65.1459 29.1355 64.3734C28.2467 63.7718 27.3881 63.1211 26.4155 62.4165C22.9277 66.0448 19.4049 69.7082 15.838 73.4185C17.4039 75.7289 18.0252 78.2266 17.2387 80.9654C16.678 82.9176 15.5495 84.4673 13.8695 85.6026C10.5306 87.8592 5.99108 87.3348 3.21058 84.3737C0.397503 81.3774 0.146211 76.7776 2.58467 73.5215C4.62991 70.792 9.2346 68.7508 13.8951 71.5645C17.4109 67.9058 20.9406 64.2377 24.4913 60.5415C23.7467 59.5326 23.0045 58.5728 22.3111 57.5803C21.5968 56.5597 21.6736 56.0704 22.5973 55.2488C23.5257 54.4248 24.3098 53.5096 24.6309 52.2666C24.8217 51.5292 24.6123 50.8784 23.9073 50.7076C22.83 50.4477 21.7015 50.2581 20.6009 50.2909C19.2653 50.3307 18.8605 50.1832 18.6092 48.8466C18.3602 47.531 18.1787 46.2038 17.9414 44.7337L17.9298 44.7361ZM29.8545 61.7213C31.7462 59.8486 33.6146 58.3528 36.1275 59.2376C38.9289 60.2255 39.1616 62.8566 39.4385 65.5673C41.2278 65.5673 43.0194 65.6375 44.8017 65.5462C46.2606 65.4713 46.256 65.3847 46.4258 63.8865C46.4514 63.6548 46.47 63.4207 46.5049 63.1913C46.9749 60.0663 49.2086 58.2545 51.9356 59.0059C53.0664 59.3172 54.0623 60.1271 55.107 60.7334C55.3443 60.8715 55.5258 61.1009 55.7445 61.2999C57.7177 59.8298 59.3673 58.1842 60.6703 56.1945C59.0602 54.2961 57.4059 52.4351 58.5739 49.7548C59.714 47.1378 62.1455 46.7866 64.7818 46.5806C64.7818 44.7197 64.8422 42.8891 64.7631 41.0656C64.7026 39.6541 64.6235 39.6564 63.2088 39.5277C63.0064 39.5089 62.804 39.4972 62.6016 39.4715C58.5925 38.9588 56.9475 35.5927 59.0323 32.1189C59.4464 31.4283 59.9863 30.8127 60.5144 30.0987C59.123 28.1745 57.4617 26.5149 55.47 25.1806C53.6644 26.9409 51.7565 28.4437 49.1691 27.4512C46.4723 26.4166 46.0349 23.947 45.9302 21.351C43.6034 20.9554 41.3185 20.9062 39.0267 21.4821C38.8708 23.9727 38.6753 26.4891 36.0507 27.5753C33.4331 28.6568 31.4553 27.0978 29.5892 25.4592C27.6394 26.8871 25.999 28.5491 24.7496 30.4405C25.4383 31.4471 26.1968 32.3132 26.6878 33.3151C27.9303 35.8525 26.9367 38.4439 24.3237 39.4996C23.4279 39.8624 22.4228 39.9818 21.4525 40.1059C20.9848 40.1667 20.7428 40.2955 20.7452 40.7566C20.7591 42.6176 20.7824 44.4762 20.808 46.3372C20.8173 46.9692 21.0895 47.2501 21.7783 47.2033C22.346 47.1659 22.937 47.2689 23.5001 47.3929C26.939 48.149 28.3142 51.047 26.6784 54.1837C26.2271 55.0498 25.5779 55.813 24.8752 56.8312C26.4667 58.3973 28.135 60.0382 29.8498 61.7236L29.8545 61.7213ZM70.5079 78.3249C70.494 81.5576 72.858 83.9546 76.0899 83.9874C79.2496 84.0202 81.7998 81.4757 81.7928 78.2991C81.7858 75.1741 79.2613 72.6296 76.1504 72.6109C72.9441 72.5922 70.5196 75.0454 70.5056 78.3249H70.5079ZM13.958 8.82041C13.958 5.54088 11.5195 2.99403 8.38068 3.00106C5.2977 3.00808 2.73824 5.58535 2.73126 8.69634C2.72195 11.9197 5.13482 14.4057 8.29226 14.4174C11.5009 14.4314 13.958 12.004 13.958 8.82041ZM9.19737 84.1864C12.3502 84.2075 14.9166 81.7144 14.9468 78.6081C14.9771 75.448 12.4386 72.7958 9.29277 72.8286C6.73099 72.8543 3.73177 74.6474 3.65266 78.4209C3.58519 81.5857 6.10509 84.1653 9.1997 84.1864H9.19737ZM82.3629 8.47864C82.3652 5.28573 79.836 2.69909 76.7111 2.69909C73.7119 2.69909 71.0896 5.28573 71.092 8.23988C71.0966 11.3883 73.6584 14.0522 76.653 14.0265C79.7569 13.9984 82.3582 11.4702 82.3605 8.47864H82.3629ZM39.485 80.0454C39.4967 82.0866 41.0207 83.7908 42.8379 83.7978C44.8622 83.8048 46.5352 82.2739 46.5352 80.4129C46.5352 78.257 45.0088 76.6863 42.9031 76.6699C41.1324 76.6582 39.4734 78.2945 39.485 80.0454ZM10.1188 43.4041C10.0909 41.3395 8.58311 39.942 6.43549 39.9841C4.65783 40.0192 3.10354 41.604 3.11751 43.3667C3.13612 45.5015 4.65783 47.0512 6.72168 47.0324C8.70875 47.0137 10.149 45.4781 10.1188 43.4041ZM39.5083 6.58958C39.4943 8.55823 41.0789 10.1992 42.9961 10.1945C44.8645 10.1921 46.5049 8.60271 46.5049 6.79557C46.5049 4.66306 45.067 3.15321 43.0171 3.13448C41.0742 3.1181 39.5223 4.64667 39.5083 6.59192V6.58958ZM79.7802 46.8686C81.8417 46.81 83.3238 45.2885 83.2564 43.3058C83.1842 41.2505 81.6625 39.7758 79.6731 39.8343C77.7489 39.8905 76.2155 41.508 76.283 43.4158C76.3551 45.4407 77.8582 46.9247 79.7802 46.8709V46.8686Z" fill="#131313"/>
<path d="M42.7399 29.6305C50.4136 29.6562 56.5679 35.8173 56.554 43.4602C56.5423 51.1827 50.4136 57.3906 42.826 57.3672C35.0662 57.3438 28.8746 51.1499 28.9212 43.4578C28.97 35.7588 35.1174 29.6047 42.7376 29.6305H42.7399ZM42.4258 54.5558C48.8616 54.7173 53.6548 49.0642 53.6129 43.6428C53.5641 37.3225 48.736 32.306 42.6515 32.3201C36.5274 32.3365 31.5597 37.3997 31.4853 43.507C31.4108 49.7875 37.0835 54.7852 42.4258 54.5535V54.5558Z" fill="#131313"/>
<path d="M42.3026 52.6527C41.7977 52.3929 41.1485 52.2501 40.8158 51.8451C40.1666 51.0563 40.7599 49.9256 41.7953 49.7852C42.4841 49.6916 43.1867 49.6518 43.8522 49.4762C46.6676 48.7318 48.6035 46.316 48.7803 43.397C48.7943 43.1629 48.7943 42.9288 48.8315 42.6994C48.9618 41.8801 49.4946 41.426 50.2508 41.4681C51.014 41.5126 51.5236 42.0229 51.5189 42.8539C51.5096 44.7945 51.014 46.6087 49.9297 48.2215C48.1335 50.8947 45.5787 52.2361 42.3026 52.6504V52.6527Z" fill="#131313"/>
</svg>
