<svg width="80" height="102" viewBox="0 0 80 102" fill="none" xmlns="http://www.w3.org/2000/svg">
<path d="M27.1981 101.139C25.8637 100.572 25.061 99.5272 24.4267 98.2502C23.3002 95.9862 22.05 93.783 20.9078 91.5244C20.5341 90.7856 20.1235 90.6325 19.3497 90.8858C16.7309 91.7381 14.0858 92.5007 11.4644 93.3476C9.91424 93.8463 8.53248 93.6907 7.40602 92.4558C6.27692 91.2157 6.28218 89.8172 6.90595 88.3211C9.45892 82.1969 11.9671 76.0543 14.5412 69.938C14.8807 69.128 14.7438 68.6187 14.049 68.2203C13.4858 67.8957 12.9094 67.558 12.2961 67.3601C8.58249 66.1516 6.58222 63.6239 6.4401 59.7372C6.37167 57.8532 5.63736 56.4231 4.16085 55.2621C1.36312 53.0563 0.412994 49.6868 1.64473 46.3252C2.29219 44.5547 2.1527 42.9504 1.19468 41.3303C-0.663463 38.1851 -0.337105 34.7418 2.05531 32.0082C3.28969 30.5992 3.73185 29.0582 3.41339 27.1822C2.80278 23.6095 4.37667 20.5065 7.60867 18.8099C9.2431 17.9524 10.188 16.6832 10.5801 14.8837C11.4013 11.1263 13.9148 8.92044 17.7337 8.49299C19.3234 8.3162 20.5735 7.58267 21.4868 6.24226C23.9082 2.68543 26.6612 1.60097 30.7959 2.601C32.3724 2.98359 33.7726 2.68543 35.086 1.7672C38.4443 -0.586428 41.5631 -0.591705 44.9136 1.7672C46.2611 2.71446 47.6955 2.98359 49.301 2.58781C53.2805 1.60625 56.1808 2.74084 58.4574 6.16311C59.3997 7.57739 60.6919 8.33995 62.3632 8.50882C65.9979 8.87558 68.6219 11.1791 69.3957 14.7887C69.7958 16.6594 70.7643 17.9708 72.4803 18.8548C75.6413 20.4828 77.2152 23.7335 76.5809 27.2824C76.2598 29.082 76.7098 30.5728 77.8811 31.9343C80.3577 34.8104 80.6788 38.1587 78.7627 41.4201C77.8468 42.9795 77.71 44.5362 78.3258 46.2328C79.5892 49.7264 78.668 53.0325 75.7702 55.3281C74.3227 56.4732 73.6357 57.8981 73.5647 59.7372C73.4173 63.6239 71.4144 66.1754 67.7087 67.3495C67.4586 67.4287 67.2033 67.4999 66.9665 67.6055C65.2268 68.3786 65.0452 68.8324 65.7584 70.5634C68.2271 76.5451 70.7064 82.5241 73.1567 88.5137C74.0911 90.7935 73.0251 93.06 70.7617 93.5112C70.0616 93.6511 69.2536 93.5244 68.5535 93.3213C65.9084 92.5587 63.2791 91.7407 60.6604 90.8885C59.8892 90.6378 59.4786 90.7829 59.1023 91.527C57.9784 93.7566 56.7362 95.9256 55.6255 98.1631C54.978 99.4692 54.1832 100.559 52.812 101.142H51.0381C49.5694 100.548 48.8062 99.3927 48.2245 97.9546C45.7005 91.7144 43.1054 85.5057 40.5288 79.2866C40.4024 78.9778 40.2366 78.6876 39.9866 78.181C39.7313 78.7377 39.5734 79.0517 39.4392 79.3763C36.8783 85.5664 34.2938 91.7434 31.7829 97.9546C31.2012 99.3927 30.4354 100.546 28.9694 101.142H27.1955L27.1981 101.139ZM55.5886 72.5265C58.8733 72.7982 60.6156 71.7586 61.65 69.2361C62.5633 67.0065 64.1292 65.4603 66.3822 64.6529C69.6642 63.4787 70.4485 62.4945 70.6669 59.0089C70.817 56.6368 71.8276 54.7291 73.6621 53.2436C75.8782 51.4494 76.3993 49.6393 75.4649 46.9743C74.6464 44.6391 74.8254 42.3911 76.0492 40.2274C77.5494 37.5783 77.3757 35.9212 75.4149 33.5781C73.8779 31.7417 73.2252 29.6202 73.6015 27.2429C74.07 24.3035 73.3199 22.6834 70.6801 21.2295C68.4377 19.9946 67.0823 18.1318 66.5822 15.6225C66.0874 13.1448 64.5082 11.7226 62.0184 11.4456C59.4576 11.1606 57.4284 9.9706 55.9992 7.79904C54.4411 5.43485 52.7172 4.76201 49.9353 5.46652C47.4876 6.08659 45.2557 5.62747 43.2133 4.17096C40.9552 2.56406 39.0549 2.56406 36.7915 4.17096C34.7149 5.64858 32.4514 6.08922 29.9748 5.43749C27.3665 4.75146 25.5137 5.46388 24.0608 7.71196C22.6264 9.93102 20.592 11.1501 17.989 11.4377C15.536 11.7094 13.9174 13.1184 13.4463 15.5169C12.9225 18.1872 11.4697 20.1055 9.06939 21.3641C6.84805 22.5303 5.92161 24.3589 6.35062 26.8418C6.82173 29.5727 6.08742 31.8974 4.27666 33.9449C2.7712 35.6494 2.51064 37.763 3.67658 39.6944C5.17678 42.1826 5.41891 44.7104 4.3872 47.4308C3.64236 49.3965 4.17665 51.5127 5.82686 52.7792C8.22454 54.6183 9.37206 56.9667 9.41681 59.9826C9.44839 62.104 10.7591 63.7769 12.7857 64.3627C15.5781 65.1701 17.4494 66.8825 18.5259 69.5792C19.3707 71.69 21.3052 72.7982 23.5502 72.5898C26.1716 72.3444 28.3877 73.1676 30.2248 75.0543C32.204 77.0886 34.0227 77.4158 36.6256 76.2205C38.8759 75.1862 41.1262 75.1862 43.3792 76.2205C46.0163 77.4316 47.7903 77.086 49.8484 74.983C51.5802 73.2151 53.6963 72.4236 55.5886 72.5186V72.5265ZM16.6809 72.4262C14.2832 78.239 11.9356 83.9094 9.6142 89.5929C9.51155 89.8462 9.52998 90.2552 9.67474 90.4689C9.76685 90.6061 10.2143 90.5982 10.4643 90.5217C13.1962 89.7064 15.915 88.8594 18.6443 88.0335C20.8999 87.3501 22.3448 87.957 23.4555 90.0468C24.7188 92.4241 25.9611 94.8121 27.2428 97.1789C27.4455 97.5509 27.814 97.8333 28.1035 98.1552C28.3719 97.8148 28.7299 97.514 28.893 97.1288C30.4959 93.316 32.0671 89.49 33.6463 85.6667C34.4569 83.7036 35.2597 81.7378 36.0835 79.7325C31.7934 80.0306 31.0117 79.7483 27.7982 76.8142C26.7243 75.8326 25.4505 75.4184 24.0029 75.5107C23.4476 75.545 22.887 75.5899 22.3369 75.5424C20.0603 75.355 18.2364 74.2864 16.6809 72.4183V72.4262ZM44.0135 79.7219C44.0135 79.8327 43.995 79.904 44.0161 79.9594C46.4296 85.8171 48.8404 91.6748 51.2776 97.5219C51.3855 97.7805 51.7145 98.1261 51.925 98.1156C52.1593 98.105 52.4514 97.7726 52.5935 97.5114C53.9463 94.9968 55.2649 92.4611 56.6125 89.9439C57.6573 87.9939 59.1733 87.3686 61.2973 88.0098C63.9608 88.8145 66.6164 89.6562 69.2826 90.4531C69.6221 90.5534 70.0169 90.4742 70.3853 90.4795C70.3564 90.0837 70.4301 89.6457 70.2853 89.2948C68.0877 83.9173 65.8611 78.5504 63.6371 73.1835C63.5476 72.9645 63.4213 72.7613 63.2791 72.4869C61.4473 74.6585 59.2154 75.7851 56.473 75.5529C54.5148 75.3867 52.9567 75.9514 51.6329 77.3947C50.0063 79.1652 47.9534 79.9752 45.5531 79.8644C45.0399 79.8407 44.5267 79.7721 44.0108 79.7246L44.0135 79.7219Z" fill="#131313"/>
<path d="M39.9865 18.6464C41.2551 18.6385 42.2579 19.38 42.7658 20.7599C43.9581 23.9949 45.1583 27.2298 46.29 30.4858C46.5505 31.2352 46.9059 31.4726 47.6849 31.4911C51.0985 31.5676 54.5095 31.7075 57.9205 31.8447C60.0918 31.9318 61.4788 33.6126 60.8524 35.515C60.6419 36.1535 60.1286 36.7736 59.5944 37.2063C56.9151 39.3779 54.1937 41.4993 51.4591 43.6023C50.9327 44.006 50.8116 44.3464 51.0038 44.9955C51.9855 48.3016 52.9066 51.6236 53.8436 54.943C54.2779 56.4813 53.9647 57.6317 52.9251 58.4048C51.8407 59.2096 50.6248 59.17 49.2746 58.2623C46.4426 56.3573 43.6028 54.4575 40.7919 52.5181C40.2234 52.125 39.8312 52.0933 39.2391 52.5049C36.3782 54.4865 33.4778 56.4074 30.5932 58.3573C29.5167 59.0856 28.4113 59.2254 27.2743 58.5288C26.1031 57.8111 25.6899 56.5947 26.1163 55.0749C27.0664 51.6922 28.0139 48.3069 29.0114 44.9374C29.1956 44.3173 29.0535 44.0033 28.5692 43.6287C25.8636 41.5415 23.187 39.4201 20.5024 37.3066C19.1522 36.2432 18.7206 35.1245 19.1522 33.8157C19.5707 32.5466 20.6314 31.8975 22.3421 31.8368C25.7215 31.718 29.0983 31.5703 32.4777 31.4885C33.1567 31.4726 33.4462 31.2299 33.662 30.6151C34.8253 27.3353 36.0255 24.0661 37.2256 20.7969C37.7389 19.4011 38.7127 18.6596 39.9786 18.6517L39.9865 18.6464ZM22.2447 34.8369C22.6 35.1482 22.8027 35.3408 23.0211 35.515C25.6531 37.5863 28.2824 39.6602 30.9222 41.7183C32.0723 42.6154 32.404 43.7527 32.0144 45.13C31.5591 46.7422 31.0985 48.3491 30.6406 49.9613C30.1063 51.8453 29.5746 53.7319 28.9877 55.8058C29.4141 55.5446 29.6641 55.4074 29.901 55.2464C32.5961 53.4311 35.2885 51.6157 37.981 49.7951C39.5338 48.7449 40.4734 48.7423 42.0394 49.7977C44.7345 51.6131 47.4243 53.4337 50.1194 55.2464C50.351 55.4021 50.5984 55.5367 50.9748 55.7636C50.859 55.2966 50.7879 54.9852 50.7011 54.6765C49.8247 51.5814 48.943 48.4863 48.0718 45.3913C47.5586 43.5706 47.8481 42.6946 49.3378 41.5231C51.8934 39.5151 54.4542 37.5124 57.0098 35.5044C57.2256 35.3329 57.4178 35.1324 57.7415 34.8369C57.4204 34.8078 57.2677 34.7867 57.1151 34.7815C53.7383 34.6548 50.3616 34.5281 46.9848 34.4068C45.1504 34.3408 44.3818 33.7973 43.7554 32.0901C42.6369 29.0399 41.5288 25.9844 40.4129 22.9315C40.3103 22.6492 40.1787 22.38 39.9865 21.9288C39.7891 22.4381 39.6654 22.7389 39.5549 23.0397C38.4521 26.0609 37.3546 29.0847 36.2466 32.1059C35.636 33.7709 34.8411 34.3434 33.1014 34.4041C31.1012 34.4754 29.1009 34.5413 27.1006 34.6179C25.5425 34.6785 23.9871 34.7551 22.2395 34.8316L22.2447 34.8369Z" fill="#131313"/>
<path d="M38.3888 10.3929C54.504 10.4615 66.6767 20.8154 69.1086 35.1086C69.1533 35.3672 69.1665 35.6311 69.2007 35.8923C69.3534 37.0876 68.9612 37.7947 68.0663 37.9425C67.1189 38.0982 66.5819 37.515 66.2661 36.3145C65.616 33.8474 65.1475 31.28 64.1237 28.9686C59.6073 18.7704 48.9454 12.1476 37.1175 13.5355C25.0712 14.9498 15.8332 23.7864 13.8434 35.4068C13.7724 35.829 13.7382 36.2564 13.6434 36.6733C13.4355 37.5916 12.7828 38.0665 11.9511 37.9319C11.1457 37.8026 10.6509 37.1008 10.7641 36.1773C11.2589 32.1772 12.4827 28.404 14.5909 24.9738C20.4259 15.4828 29.0086 10.757 38.3888 10.3903V10.3929Z" fill="#131313"/>
<path d="M41.0129 69.5317C25.3319 69.5053 12.6197 58.4259 10.8194 44.1273C10.6536 42.8186 11.0747 42.0718 12.0406 41.9531C12.9592 41.8396 13.5698 42.4835 13.7567 43.808C14.4673 48.824 16.3991 53.3307 19.7469 57.1013C26.9979 65.2678 36.1043 68.3945 46.6531 65.6345C57.1808 62.8798 63.6185 55.753 66.0293 45.0666C66.1583 44.4914 66.2241 43.9004 66.3451 43.3199C66.5531 42.3278 67.2268 41.7974 68.0533 41.9531C68.8955 42.1114 69.3613 42.8238 69.2297 43.8107C68.4007 50.0694 65.8582 55.5366 61.5419 60.1225C55.699 66.3258 48.4507 69.3787 41.0129 69.5291V69.5317Z" fill="#131313"/>
</svg>
