<svg width="105" height="103" viewBox="0 0 105 103" fill="none" xmlns="http://www.w3.org/2000/svg">
<path d="M0 46.4129C0.059721 46.2961 0.146588 46.1875 0.173734 46.0654C1.44688 40.2996 6.58288 36.7815 12.5088 37.5416C16.6866 38.0764 20.3296 39.8381 23.7201 42.2188C24.2874 42.6179 24.7109 42.8215 25.4194 42.4088C26.1496 41.9826 26.4808 41.5863 26.4075 40.6905C26.0899 36.8684 26.432 33.1168 27.9385 29.539C28.1611 29.0096 28.4163 28.4911 28.7122 27.9998C29.2171 27.1637 30.0342 26.9194 30.7862 27.3347C31.5354 27.7473 31.7254 28.5319 31.3806 29.4494C30.8242 30.9316 30.1292 32.3947 29.8333 33.9312C29.4533 35.8993 29.4099 37.9298 29.2225 39.9087C30.8242 39.5449 32.1814 39.2382 33.4546 38.9505C34.2771 37.0231 35.0779 35.0252 35.9846 33.0761C36.4162 32.1477 37.3256 31.898 38.102 32.3024C38.9001 32.7178 39.0412 33.5946 38.6177 34.5935C37.9337 36.206 37.3256 37.851 36.6958 39.4852C36.4596 40.0987 36.5981 40.5711 37.0379 41.1276C37.8251 42.1292 38.4332 43.2694 39.2774 44.6049C40.0918 43.891 41.0174 43.3101 41.6336 42.493C43.5501 39.9576 44.9563 37.1697 45.4314 33.9665C46.167 29.0069 42.6733 24.8482 37.8875 25.1006C37.0623 25.1441 36.2398 25.4345 35.4362 25.6761C34.3993 25.9856 33.593 25.687 33.2754 24.7993C32.9741 23.9578 33.3596 23.2547 34.3586 22.8204C40.3524 20.2089 47.3451 24.1207 48.374 30.633C48.8219 33.4697 48.3061 36.1517 47.2719 38.7767C47.1117 39.1839 46.9298 39.5802 46.6855 40.1503C47.0411 40.0091 47.2719 39.9413 47.4782 39.8273C49.9321 38.4645 52.3807 37.0882 54.8374 35.731C57.5249 34.2434 60.0358 34.9627 61.5479 37.6475C62.4111 39.1785 63.2635 40.7176 64.1159 42.2568C65.7582 45.213 65.0823 47.6127 62.1505 49.2496C55.8581 52.7596 49.5657 56.2695 43.2733 59.7795C42.9855 59.9397 42.7059 60.1134 42.4345 60.507H43.5637C55.2473 60.507 66.9309 60.507 78.6145 60.507C78.9538 60.507 79.2931 60.4934 79.6298 60.5206C81.7173 60.6862 83.156 62.1358 83.1587 64.245C83.1804 75.1169 83.1913 85.9861 83.1479 96.8581C83.137 99.8115 81.0278 101.918 78.0661 102.171C77.7295 102.2 77.3902 102.209 77.0509 102.209C60.5598 102.209 44.0659 102.214 27.5748 102.2C26.8364 102.2 26.0709 102.16 25.3624 101.972C22.884 101.318 21.3855 99.1953 21.3801 96.3966C21.3692 88.6763 21.3774 80.9533 21.3774 73.233C21.3774 72.8774 21.3774 72.5191 21.3774 71.9843C18.8528 73.3877 16.4993 74.7016 14.143 76.0073C13.1956 76.5312 12.2618 77.0823 11.2927 77.5628C9.08301 78.6567 6.63988 77.9808 5.37489 75.8634C4.24833 73.9768 3.1815 72.0494 2.16624 70.1031C0.99354 67.8527 1.75905 65.3634 4.0013 64.074C6.52316 62.6271 9.0803 61.2372 11.6212 59.8202C11.9008 59.6628 12.1695 59.4836 12.4274 59.3234C10.6738 58.824 8.91471 58.4683 7.26695 57.8277C3.45296 56.3401 0.92296 53.6635 0.143873 49.5265C0.124871 49.4315 0.0488626 49.35 0 49.2632C0 48.3158 0 47.3657 0 46.4183L0 46.4129ZM43.4877 99.1546C43.4877 98.6605 43.4877 98.2941 43.4877 97.9276C43.4877 93.663 43.4877 89.3984 43.4877 85.131C43.4877 84.8949 43.4796 84.656 43.4877 84.4198C43.5366 83.4018 44.1365 82.7639 45.0296 82.7721C45.9227 82.7829 46.5226 83.4181 46.5253 84.4551C46.5389 88.9586 46.5308 93.4594 46.5308 97.9629C46.5308 98.3239 46.5308 98.685 46.5308 99.0786H57.97V63.6369H46.5308C46.5308 67.9531 46.5308 72.1824 46.5308 76.4118C46.5308 77.8668 46.0177 78.5699 44.9807 78.5509C43.9709 78.5346 43.485 77.8614 43.485 76.4552C43.485 73.6782 43.485 70.9039 43.485 68.1269V63.5501C41.3812 63.5501 39.3588 63.5202 37.3392 63.5691C36.7935 63.5826 36.1963 63.7319 35.7186 63.9925C32.2466 65.89 28.8099 67.8473 25.338 69.742C24.662 70.1112 24.4014 70.5075 24.4042 71.3056C24.4394 79.5308 24.4259 87.756 24.4259 95.984C24.4259 98.3538 25.2212 99.1519 27.5938 99.1546C32.5371 99.16 37.4776 99.1546 42.4209 99.1546H43.4877ZM61.1895 63.5473V99.1085C61.5696 99.1275 61.8709 99.1519 62.1695 99.1519C67.1454 99.1519 72.1185 99.16 77.0943 99.1519C79.342 99.1492 80.1238 98.3484 80.1238 96.0708C80.1238 85.7147 80.1238 75.3612 80.1238 65.0051C80.1238 63.5989 80.0695 63.5473 78.6091 63.5473C73.1609 63.5473 67.7127 63.5473 62.2645 63.5473C61.9333 63.5473 61.5995 63.5473 61.1923 63.5473H61.1895ZM20.0065 55.181C19.3876 53.9621 18.6845 52.9279 18.3425 51.785C18.052 50.8186 17.5715 50.3816 16.654 50.2513C16.388 50.2133 16.1328 50.1074 15.8668 50.064C14.5013 49.8305 13.1305 49.6242 11.7705 49.3718C10.8149 49.1953 10.2774 48.5085 10.3752 47.6833C10.4756 46.8418 11.1461 46.3287 12.1179 46.3749C12.555 46.3966 12.9975 46.4373 13.4291 46.516C15.1094 46.8282 16.787 47.1621 18.1905 47.4335C19.3387 46.3233 20.3621 45.3352 21.4371 44.2982C20.5793 43.7933 19.6455 43.1852 18.6628 42.6722C16.1165 41.3447 13.4535 40.4082 10.5217 40.5331C6.12683 40.7204 2.82046 44.0946 3.07563 48.2561C3.27651 51.5489 5.23916 53.6337 8.12748 54.9149C11.2845 56.313 14.6343 56.389 17.9923 56.0524C18.6791 55.9845 19.3224 55.4904 20.0092 55.181H20.0065ZM26.0356 65.8765C24.4992 63.1239 23.0197 60.4744 21.5131 57.7816C16.1219 60.7893 10.8068 63.7428 5.5079 66.7234C4.61752 67.2256 4.45193 67.9477 4.95684 68.8842C5.85808 70.5483 6.78919 72.196 7.71758 73.8465C8.44509 75.1386 9.07487 75.3259 10.3616 74.6147C12.403 73.4882 14.4389 72.348 16.4748 71.2133C19.6292 69.4543 22.7835 67.6925 26.0329 65.8792L26.0356 65.8765ZM45.1138 55.2461C50.5104 52.2384 55.7929 49.3066 61.062 46.3477C62.0094 45.8156 62.1831 45.0936 61.6537 44.1136C60.7715 42.4794 59.854 40.8642 58.9446 39.2463C58.1736 37.8728 57.5547 37.7045 56.1458 38.4863C53.8439 39.7648 51.5446 41.0515 49.2426 42.3328C46.3842 43.9263 43.5284 45.517 40.5994 47.1485C42.106 49.8495 43.58 52.4935 45.1138 55.2461ZM28.6986 64.3916C33.3243 61.8127 37.8712 59.2773 42.448 56.7283C40.9034 53.9621 39.424 51.3154 37.9282 48.6361C33.3162 51.2068 28.7855 53.7341 24.1843 56.2967C25.7044 59.0221 27.1785 61.6688 28.6986 64.3916ZM36.4515 45.965C35.9086 45.0203 35.4607 44.1109 34.8906 43.2884C34.1441 42.2052 32.7217 41.8361 31.5462 42.4713C28.4516 44.1435 25.3787 45.8537 22.3329 47.61C21.1168 48.3104 20.6987 49.7247 21.2579 50.9679C21.657 51.8556 22.1755 52.6863 22.6912 53.6337C27.2979 51.0657 31.834 48.5384 36.4515 45.965Z" fill="#131313"/>
<path d="M85.9869 55.7753C86.1036 54.4615 86.1932 53.1449 86.3398 51.8365C86.4185 51.1198 86.2719 50.547 85.7643 49.996C84.8983 49.0486 84.0894 48.0469 83.294 47.0398C82.1295 45.5658 82.5936 44.1433 84.4097 43.6465C85.6801 43.2991 86.9831 43.0656 88.2373 42.6774C88.696 42.5363 89.1711 42.1644 89.4426 41.7653C90.1836 40.6795 90.7944 39.5041 91.5084 38.3965C92.5535 36.7786 94.1198 36.7786 95.1622 38.3965C95.8951 39.5312 96.5331 40.7284 97.2823 41.8522C97.5157 42.2024 97.9392 42.52 98.3383 42.6421C99.5978 43.0195 100.895 43.2692 102.166 43.6194C104.131 44.1596 104.579 45.525 103.322 47.1158C102.695 47.9112 102.09 48.7418 101.368 49.4449C100.453 50.3326 100.206 51.3288 100.388 52.5504C100.548 53.6172 100.608 54.7031 100.659 55.7835C100.746 57.5588 99.5815 58.4383 97.9012 57.833C96.6009 57.3634 95.3495 56.7553 94.0465 56.2938C93.6203 56.1445 93.0502 56.1418 92.6241 56.2938C91.321 56.7553 90.0723 57.3688 88.772 57.8384C87.1216 58.4329 85.9326 57.5235 85.9869 55.7808V55.7753ZM93.5036 41.1844C92.5426 42.5824 91.9427 44.0673 90.8433 44.879C89.733 45.7015 88.1287 45.8562 86.4809 46.3883C89.2905 48.4486 89.9855 51.1361 89.1738 54.4235C92.016 52.5178 94.7251 52.6753 97.3664 54.4397C97.3664 52.8001 97.0353 51.2474 97.4587 49.9362C97.8904 48.5952 99.0576 47.4904 100.04 46.0842C96.7149 46.0245 94.4808 44.4582 93.5036 41.1844Z" fill="#131313"/>
<path d="M56.2676 19.8587C56.3463 18.8461 56.3735 17.8281 56.5173 16.8265C56.6341 16.0094 56.3762 15.4122 55.8414 14.8204C55.0026 13.892 54.2099 12.9229 53.4363 11.9375C52.3396 10.5395 52.7821 9.13875 54.4841 8.64741C55.7817 8.27551 57.12 8.03662 58.404 7.62672C58.8899 7.47199 59.3921 7.0838 59.6853 6.66304C60.3802 5.6695 60.9421 4.58095 61.5828 3.54669C62.7283 1.70349 64.3082 1.68991 65.4565 3.50326C66.2871 4.81169 66.8436 6.47845 68.0028 7.34169C69.1293 8.18321 70.8721 8.18864 72.338 8.58769C74.3576 9.13603 74.7892 10.5015 73.4645 12.1438C72.6366 13.1699 71.7516 14.1526 70.9589 15.2059C70.7038 15.5452 70.5273 16.0501 70.5436 16.4709C70.5925 17.82 70.7581 19.1664 70.8639 20.5156C71.0187 22.5027 69.789 23.4446 67.9322 22.7497C66.9848 22.3941 66.0075 22.0683 65.1307 21.577C64.0069 20.9472 62.9971 21.0151 61.8949 21.596C61.0616 22.0358 60.163 22.3506 59.2781 22.69C57.2476 23.4663 56.0857 22.6085 56.2323 20.464C56.2459 20.2604 56.2594 20.0595 56.2757 19.8559C56.273 19.8559 56.2703 19.8559 56.2676 19.8559V19.8587ZM56.7969 11.2127C59.4762 13.4061 60.1495 16.099 59.3921 19.3646C62.2098 17.5431 64.8946 17.6056 67.715 19.3537C66.8138 16.0528 67.6906 13.4224 70.2586 11.4027C70.0658 11.2616 63.4911 6.40244 63.3418 6.29114C62.3483 9.38577 60.1956 11.0091 56.7969 11.21V11.2127Z" fill="#131313"/>
<path d="M87.6598 15.2032C83.4359 15.1163 80.0725 11.6498 80.1675 7.48016C80.2652 3.2454 83.7046 -0.0799733 87.9014 0.00146433C92.1253 0.082902 95.4778 3.53857 95.3882 7.72176C95.3013 11.9484 91.8484 15.2873 87.657 15.2032H87.6598ZM87.7575 3.04723C85.2166 3.06081 83.1861 5.11846 83.216 7.64846C83.2458 10.1486 85.2492 12.1384 87.7521 12.1547C90.2902 12.171 92.3424 10.1377 92.3424 7.60231C92.3424 5.06417 90.2983 3.03366 87.7548 3.04723H87.7575Z" fill="#131313"/>
<path d="M77.1972 33.7357C77.0805 39.0998 76.6733 44.4367 74.5315 49.4396C73.8474 51.0358 72.8322 52.5044 71.8549 53.954C71.2061 54.915 70.2044 55.0453 69.5014 54.4752C68.7467 53.8617 68.7277 52.9985 69.5014 52.0674C72.0449 48.9999 72.9597 45.308 73.557 41.5022C74.3116 36.6946 74.3116 31.86 73.9614 27.0198C73.9451 26.7837 73.9234 26.5475 73.9261 26.3086C73.937 25.4155 74.4799 24.7695 75.278 24.6907C76.0652 24.612 76.7982 25.1386 76.9068 26.0317C77.0669 27.3402 77.1402 28.6622 77.1891 29.9787C77.2352 31.2302 77.1999 32.4843 77.1999 33.7357H77.1972Z" fill="#131313"/>
<path d="M85.8459 33.5836C84.8442 33.5456 84.1873 32.6281 84.4696 31.5586C85.379 28.1083 87.0078 25.0083 89.2066 22.2177C92.4749 18.0671 96.6771 15.3199 101.8 13.9952C102.921 13.7047 103.754 14.1119 103.988 15.0294C104.205 15.8818 103.673 16.65 102.617 16.9324C94.7389 19.0362 90.059 24.3622 87.5453 31.8707C87.1354 33.0977 86.6657 33.6135 85.8486 33.5836H85.8459Z" fill="#131313"/>
</svg>
