<?xml version="1.0" encoding="UTF-8"?>
<svg xmlns="http://www.w3.org/2000/svg" width="223" height="32" viewBox="0 0 223 32" fill="none"> <path d="M44.9167 12.4702C44.5975 10.6969 43.7463 9.02995 42.505 7.61128C42.3986 7.50488 42.2922 7.39848 42.1858 7.29208C42.1149 7.22115 42.0439 7.11475 41.9375 7.04381C41.9021 7.00835 41.8666 6.97288 41.8311 6.93741C41.2991 6.40541 40.6607 5.90888 39.9869 5.44781C38.0362 4.10007 35.6244 3.17793 32.9999 2.64593C29.737 2.00753 26.0839 1.97206 22.4308 2.6814C18.7777 3.39074 15.4084 4.70301 12.6065 6.51181C12.5001 6.58275 12.3937 6.65368 12.2873 6.72461C12.1454 6.83101 12.0036 6.90195 11.8972 7.00835C11.7198 7.11475 11.5425 7.25661 11.4006 7.36301C9.66276 8.63982 8.20862 10.1294 7.10915 11.7254C6.64808 12.4348 6.22248 13.1441 5.90327 13.8889C5.0166 15.946 4.73287 18.074 5.123 20.1311C5.30034 21.0532 5.65501 21.9399 6.08061 22.7911C6.11608 22.862 6.15154 22.8975 6.18701 22.9684C6.22248 23.0393 6.25794 23.1103 6.29341 23.1457C6.82541 24.0679 7.53475 24.9191 8.35048 25.6993C10.514 27.7564 13.5996 29.246 17.1462 29.9554C18.7423 30.2746 20.4447 30.4519 22.218 30.4519C23.9913 30.4519 25.8001 30.2746 27.6444 29.9199C31.4394 29.2106 34.9151 27.7564 37.7879 25.8412C39.9159 24.4225 41.6893 22.7201 42.9306 20.8404C43.0015 20.734 43.0725 20.6276 43.1434 20.4857C43.2143 20.3793 43.2853 20.2375 43.3562 20.1311C43.4271 20.0247 43.4981 19.8828 43.569 19.7764C43.7818 19.4217 43.9591 19.0316 44.101 18.6769C45.0586 16.5844 45.3423 14.4918 44.9167 12.4702ZM19.3807 11.4417L19.4161 11.3708C19.9127 9.34916 22.1825 7.71768 25.0553 7.04381C24.2041 8.14328 23.7785 9.49102 23.814 10.9097C23.814 11.2289 23.8495 11.4772 23.8495 11.7609C23.9204 12.8958 23.9913 13.8889 23.4239 15.9814V16.0524C23.2111 17.0454 23.7431 17.8612 24.0977 18.3932L21.8988 24.0679H14.7345L19.3807 11.4417Z" fill="white"/> <path d="M29.3468 6.05081C31.2975 6.33455 34.0284 7.54042 33.3191 11.1226C32.7516 14.1372 30.4463 14.6338 29.4532 15.6268C27.7863 16.549 28.5311 18.4997 26.2258 18.4642C27.0415 18.5706 27.7154 18.5351 27.9636 18.5351C33.2127 18.5351 37.5042 15.7687 37.5042 12.2575C37.5042 9.10096 33.993 6.44095 29.3468 6.05081Z" fill="#E20813"/> <path fill-rule="evenodd" clip-rule="evenodd" d="M23.4239 16.0524V15.9815C23.9913 13.9244 23.9204 12.9313 23.8495 11.7609C23.814 11.4772 23.814 11.1935 23.814 10.9097C23.7785 9.49106 24.2041 8.14332 25.0553 7.04385C22.1471 7.71772 19.9127 9.3492 19.4161 11.3708L19.3806 11.4417L14.7345 24.0679H21.9343L24.1332 18.3932C23.7431 17.8612 23.2465 17.01 23.4239 16.0524Z" fill="#124193"/> <path d="M49.953 11.4772C49.4565 8.7463 47.7541 6.33456 45.0586 4.49028C39.8095 0.872673 31.0138 -0.297731 22.1825 1.36921C13.4577 3.03615 5.79687 7.3631 2.21473 12.6476C0.334986 15.3786 -0.338884 18.2869 0.157651 21.0533C0.689653 23.7842 2.42753 26.196 5.15847 28.0402C8.84702 30.5229 14.167 31.8352 20.0191 31.8352C22.5727 31.8352 25.2681 31.5869 27.9281 31.0549C36.6884 29.388 44.3493 25.061 47.9314 19.7765C49.7757 17.081 50.485 14.1727 49.953 11.4772ZM42.9661 20.805C41.6893 22.6847 39.9159 24.3872 37.8234 25.8058C34.9506 27.721 31.4748 29.1752 27.6799 29.8845C25.8356 30.2392 23.9913 30.4165 22.2535 30.4165C20.4801 30.4165 18.7777 30.2392 17.1817 29.92C13.5996 29.2106 10.5494 27.721 8.38595 25.664C7.57021 24.8837 6.86087 24.0325 6.32887 23.1103C6.29341 23.0394 6.25794 22.9685 6.22247 22.933C6.18701 22.8621 6.15154 22.8266 6.11607 22.7557C5.69047 21.9399 5.3358 21.0533 5.15847 20.0957C4.76833 18.0386 5.0166 15.9106 5.93874 13.8535C6.25794 13.1087 6.64807 12.3994 7.14461 11.69C8.24408 10.094 9.69822 8.60443 11.4361 7.32763C11.6134 7.22123 11.7553 7.07936 11.9326 6.97296C12.0745 6.86656 12.1809 6.79563 12.3228 6.68923C12.4292 6.61829 12.5356 6.54736 12.642 6.47642C15.4438 4.66762 18.8132 3.35535 22.4663 2.64601C26.1193 1.93668 29.7724 1.93668 33.0354 2.61055C35.6599 3.14255 38.0362 4.06468 40.0223 5.41242C40.6962 5.87349 41.2991 6.37002 41.8666 6.90203C41.9021 6.93749 41.9375 6.97296 41.973 7.00843C42.0439 7.07936 42.1149 7.18576 42.2213 7.25669C42.3277 7.36309 42.4341 7.4695 42.5405 7.5759C43.7818 8.99457 44.633 10.6615 44.9522 12.4348C45.3423 14.4565 45.0941 16.549 44.2074 18.5706C44.0301 18.9607 43.8527 19.3154 43.6754 19.6701C43.6045 19.7765 43.5335 19.9183 43.4626 20.0247C43.3917 20.1311 43.3207 20.273 43.2498 20.3794C43.1079 20.5567 43.037 20.6631 42.9661 20.805Z" fill="#E20813"/> <path d="M61.9762 6.97314H56.7626V24.6001H60.3448V18.0033H62.5792C67.0834 18.0033 68.7149 14.8113 68.7149 12.506C68.7504 11.3356 68.3248 6.97314 61.9762 6.97314ZM60.3802 9.73955H62.0117C64.1042 9.73955 65.0264 10.9454 65.0264 12.3996C65.0264 13.7118 64.1752 15.2369 62.0117 15.2369H60.3802V9.73955Z" fill="#1A4492"/> <path d="M77.6879 18.6419L76.8722 21.231H76.7658L76.021 18.7483L73.6092 11.5131H69.8497L74.9215 25.3096L74.6377 26.0545C74.1767 27.2249 73.4319 27.5086 72.2615 27.5086C71.7295 27.5086 71.3393 27.4022 70.9492 27.2603L70.7009 29.743C71.3393 29.9913 71.9777 30.0977 72.6516 30.0977C76.3402 30.0977 77.2268 28.2534 77.9716 26.1608L83.5044 11.4776H80.0287L77.6879 18.6419Z" fill="#1A4492"/> <path d="M91.8393 22.3304C89.463 22.3304 88.0443 20.4861 88.0443 18.1098C88.0443 15.5208 89.8177 13.8538 92.0875 13.8538C92.9033 13.8538 93.5771 13.9248 94.1801 14.2085L94.4283 11.7258C93.4353 11.4776 92.4067 11.3712 91.5555 11.3712C86.9448 11.3712 84.4976 14.4922 84.4976 17.968C84.4976 21.4437 86.6256 24.8485 91.3073 24.8485C92.7614 24.8485 94.0382 24.5648 94.6411 24.3165L94.4638 21.8339C93.5771 22.1531 92.655 22.3304 91.8393 22.3304Z" fill="#1A4492"/> <path d="M103.508 22.3304C101.096 22.3304 99.7128 20.4861 99.7128 18.1098C99.7128 15.5208 101.451 13.8538 103.756 13.8538C104.572 13.8538 105.21 13.9248 105.849 14.2085L106.097 11.7258C105.104 11.4776 104.004 11.3712 103.224 11.3712C98.6133 11.3712 96.1661 14.4922 96.1661 17.968C96.1661 21.4437 98.2941 24.8485 102.905 24.8485C104.394 24.8485 105.636 24.5648 106.239 24.3165L106.132 21.8339C105.246 22.1531 104.253 22.3304 103.508 22.3304Z" fill="#1A4492"/> <path d="M120 11.5131H116.205L111.984 17.4715H111.878V11.5131H108.473V24.5648H111.878V18.3227H111.984L116.382 24.5648H120.709L115.176 17.7198L120 11.5131Z" fill="#1A4492"/> <path d="M125.781 20.699L125.852 18.3936V11.5131H122.447V24.5648H126.065L131.846 15.3789H131.917L131.81 17.8616V24.5648H135.215V11.5131H131.385L125.781 20.699Z" fill="#1A4492"/> <path d="M121.631 10.7687L121.667 10.7327H121.631V10.7687Z" fill="#1A4492"/> <path d="M147.451 11.5131L141.847 20.699H141.776L141.883 18.3936V11.5131H138.478V24.5648H142.131L147.912 15.3789H147.948L147.841 17.8616V24.5648H151.246V11.5131H147.451Z" fill="#1A4492"/> <path d="M145.004 9.27869C147.238 9.27869 148.515 7.96642 149.118 6.79601L147.912 5.62561C146.99 6.65415 145.82 6.83148 145.039 6.83148C144.188 6.83148 143.018 6.65415 142.096 5.62561L140.89 6.79601C141.493 7.93095 142.699 9.27869 145.004 9.27869Z" fill="#1A4492"/> <path d="M169.902 9.73964C171.285 9.73964 172.384 9.98791 173.413 10.378L173.59 7.36337C172.278 6.97323 171.037 6.7959 169.653 6.7959C164.156 6.7959 159.9 9.81057 159.9 15.9109C159.9 22.2594 164.653 24.813 169.015 24.813C170.398 24.813 172.03 24.5648 173.59 24.0682L173.342 21.0535C172.42 21.4437 171.214 21.7984 169.653 21.7984C166.461 21.7984 163.659 20.0605 163.659 15.8399C163.659 12.2223 165.965 9.73964 169.902 9.73964Z" fill="#1A4492"/> <path d="M184.691 17.7551V17.6487C186.004 17.4005 187.068 16.3719 187.068 14.7759C187.068 13.3927 186.358 11.5484 182.634 11.5484H176.215V24.6002H182.776C185.72 24.6002 187.635 23.2879 187.635 20.9471C187.635 18.7482 186.146 17.8615 184.691 17.7551ZM181.748 16.6556H179.655V13.8183H181.748C182.386 13.8183 183.698 13.8892 183.698 15.2015C183.698 16.6202 182.422 16.6556 181.748 16.6556ZM179.655 18.9255H181.783C182.599 18.9255 184.089 18.9965 184.089 20.5925C184.089 22.3303 182.422 22.3303 181.783 22.3303H179.655V18.9255Z" fill="#1A4492"/> <path d="M202.07 18.3225C202.07 17.1521 201.999 11.3355 196.112 11.3355C192.6 11.3355 189.657 13.8891 189.657 18.0388C189.657 22.6494 192.778 24.7775 196.714 24.7775C198.204 24.7775 199.836 24.4937 201.148 23.9617V21.3726C199.942 21.9401 198.594 22.2948 197.105 22.2948C194.516 22.2948 193.345 20.7342 193.239 19.0673H202.07V18.3225ZM195.899 13.7118C197.176 13.7118 198.665 14.563 198.63 16.762H193.274C193.239 15.0596 194.374 13.7118 195.899 13.7118Z" fill="#1A4492"/> <path d="M203.205 14.0665H207.319V24.5647H210.724V14.0665H214.767V11.5129H203.205V14.0665Z" fill="#1A4492"/> <path d="M222.535 5.87374C222.215 5.30627 221.79 4.88067 221.222 4.56147C220.655 4.24227 220.087 4.1004 219.484 4.1004C218.881 4.1004 218.314 4.24227 217.746 4.56147C217.179 4.88067 216.753 5.30627 216.434 5.87374C216.115 6.44121 215.973 7.00868 215.973 7.64708C215.973 8.25002 216.115 8.81748 216.434 9.38495C216.753 9.95242 217.179 10.378 217.746 10.6972C218.314 11.0164 218.881 11.1583 219.484 11.1583C220.087 11.1583 220.69 11.0164 221.222 10.6972C221.79 10.378 222.215 9.95242 222.535 9.38495C222.854 8.81748 222.996 8.25002 222.996 7.64708C223.031 7.04415 222.854 6.44121 222.535 5.87374ZM222.038 9.10122C221.79 9.56229 221.435 9.91695 220.938 10.2007C220.477 10.449 219.981 10.5908 219.484 10.5908C218.988 10.5908 218.491 10.449 218.03 10.2007C217.569 9.95242 217.214 9.59775 216.931 9.10122C216.682 8.64015 216.541 8.14362 216.541 7.64708C216.541 7.15055 216.682 6.65401 216.931 6.19294C217.179 5.73187 217.569 5.37721 218.03 5.09347C218.491 4.84521 218.988 4.70334 219.484 4.70334C219.981 4.70334 220.442 4.84521 220.938 5.09347C221.4 5.34174 221.79 5.69641 222.038 6.19294C222.286 6.65401 222.428 7.15055 222.428 7.64708C222.428 8.14362 222.322 8.64015 222.038 9.10122Z" fill="#1A4492"/> <path d="M220.123 8.10817C220.052 8.03723 219.946 7.9663 219.804 7.89537C220.123 7.8599 220.407 7.7535 220.584 7.5407C220.797 7.3279 220.868 7.07963 220.868 6.83136C220.868 6.65403 220.797 6.44123 220.69 6.26389C220.584 6.08656 220.407 5.98016 220.229 5.90923C220.016 5.83829 219.697 5.80283 219.272 5.80283H217.959V9.59777H218.562V8.00177H218.917C219.13 8.00177 219.307 8.03723 219.413 8.14363C219.591 8.25003 219.804 8.56923 220.052 9.0303L220.371 9.63324H221.116L220.655 8.88844C220.478 8.4983 220.265 8.25003 220.123 8.10817ZM219.307 7.46977H218.562V6.33483H219.272C219.555 6.33483 219.768 6.37029 219.875 6.40576C219.981 6.44123 220.087 6.51216 220.123 6.61856C220.194 6.6895 220.229 6.7959 220.229 6.9023C220.229 7.07963 220.158 7.2215 220.052 7.3279C219.91 7.39883 219.662 7.46977 219.307 7.46977Z" fill="#1A4492"/> </svg>