<svg width="24" height="24" viewBox="0 0 24 24" fill="none" xmlns="http://www.w3.org/2000/svg">
<path fill-rule="evenodd" clip-rule="evenodd" d="M14.8783 19.9169C12.9851 20.361 11.0149 20.361 9.12171 19.9169C6.6216 19.3305 4.6695 17.3784 4.08306 14.8783C3.63898 12.9851 3.63898 11.0149 4.08306 9.12171C4.6695 6.6216 6.6216 4.6695 9.12171 4.08305C11.0149 3.63898 12.9851 3.63898 14.8783 4.08305C17.3784 4.6695 19.3305 6.6216 19.9169 9.1217C20.361 11.0149 20.361 12.9851 19.9169 14.8783C19.3305 17.3784 17.3784 19.3305 14.8783 19.9169ZM8.77915 21.3773C10.8976 21.8742 13.1024 21.8742 15.2208 21.3773C18.2756 20.6608 20.6608 18.2756 21.3773 15.2208C21.8742 13.1024 21.8742 10.8976 21.3773 8.77915C20.6608 5.7244 18.2756 3.33924 15.2208 2.62269C13.1024 2.12577 10.8976 2.12577 8.77916 2.62269C5.72441 3.33924 3.33924 5.72441 2.6227 8.77915C2.12577 10.8976 2.12577 13.1024 2.62269 15.2208C3.33924 18.2756 5.72441 20.6608 8.77915 21.3773ZM13.5303 10.0303C13.8232 9.73744 13.8232 9.26256 13.5303 8.96967C13.2374 8.67678 12.7626 8.67678 12.4697 8.96967L9.96967 11.4697C9.82902 11.6103 9.75 11.8011 9.75 12C9.75 12.1989 9.82902 12.3897 9.96967 12.5303L12.4697 15.0303C12.7626 15.3232 13.2374 15.3232 13.5303 15.0303C13.8232 14.7374 13.8232 14.2626 13.5303 13.9697L11.5607 12L13.5303 10.0303Z" fill="currentColor"/>
</svg>
