<svg width="701" height="429" viewBox="0 0 701 429" fill="none" xmlns="http://www.w3.org/2000/svg">
<g opacity="0.92">
<path fill-rule="evenodd" clip-rule="evenodd" d="M98.471 82.4081C98.9938 80.8409 108.664 67.5194 110.494 64.3849H115.199V42.7049C114.937 42.7049 114.937 42.7049 114.676 42.7049C107.358 42.7049 106.312 41.6601 103.176 46.8842C101.085 50.5411 99.7779 53.6755 97.6869 57.0712C94.5505 61.7729 87.4935 70.1315 83.0502 74.0495C74.9477 80.8409 73.9022 83.1917 62.9246 85.2814C57.6972 86.3262 40.4467 90.2442 36.5262 89.983H35.4807C42.5377 87.1098 50.1174 82.9305 57.1745 79.796C61.095 77.9676 64.4928 76.4004 67.3679 74.3107C72.334 70.1315 78.6069 63.3401 82.5274 58.116C91.9368 45.8394 95.0732 41.9213 97.9483 25.9878C68.152 31.2119 40.4467 46.623 26.5941 72.7435C25.0259 75.6168 22.9349 82.9305 21.8894 84.7589V83.1917L21.3667 89.4606L17.1847 93.1175C15.6165 94.6847 16.1393 98.0804 16.4006 100.954C17.9688 118.454 21.1053 113.23 13.7869 119.76C12.4801 120.805 11.1732 122.895 10.1277 124.723C7.25265 130.731 9.34361 133.866 12.2187 137C0.718376 121.328 36.0034 110.357 48.8106 107.223C68.6748 102.26 92.4595 100.954 113.369 100.954C113.892 100.954 114.415 100.954 114.937 100.954V91.5503H106.051L98.471 82.4081Z" fill="#FFC629"/>
<path fill-rule="evenodd" clip-rule="evenodd" d="M21.6284 83.4529V85.0201C22.9353 83.1917 25.0262 75.8779 26.3331 73.0047C40.1857 46.623 67.891 31.4731 97.6873 26.249L100.301 14.4947L100.562 14.2335C100.562 13.9723 100.562 13.9723 100.824 13.9723C101.085 19.1964 100.301 25.9878 100.04 31.2119C99.7783 37.4808 99.5169 40.354 96.9032 45.5781C92.4599 54.4591 86.4484 61.5117 80.1755 68.8254C75.9935 73.5271 69.4593 80.8408 63.4477 82.6693C54.8225 85.2813 45.1518 88.1546 36.5265 90.5054C40.4471 90.7666 57.9589 86.5873 62.925 85.8037C73.9026 83.7141 74.948 81.3632 83.0505 74.5719C87.4938 70.915 94.5508 62.2953 97.6873 57.5936C99.7783 54.1979 101.085 51.0634 103.176 47.4066C106.313 42.1825 107.358 43.2273 114.676 43.2273C114.938 43.2273 114.938 43.2273 115.199 43.2273V0.912079C112.585 0.912079 109.71 1.17328 106.313 1.69569L80.9596 9.53185C62.4023 16.8456 40.7085 30.167 31.0378 48.1902C25.8103 58.3772 22.4125 70.6538 21.6284 83.4529Z" fill="white"/>
<path fill-rule="evenodd" clip-rule="evenodd" d="M53.5156 110.096C63.4477 111.402 72.8571 112.708 83.0505 113.491C93.5053 114.275 103.96 114.536 114.676 114.536H115.199V104.611C101.869 104.611 88.2779 104.872 82.5278 105.394C77.5617 105.917 72.5957 106.439 67.6296 107.223L54.5611 109.573C53.2543 110.096 54.0384 109.835 53.5156 110.096Z" fill="#FFC629"/>
<path fill-rule="evenodd" clip-rule="evenodd" d="M58.4813 135.955C60.3108 137.261 65.7996 137.784 67.6292 138.567C68.4133 138.828 68.152 138.828 68.6747 139.09L52.4697 143.008C53.7766 148.232 57.4358 154.501 61.6177 156.068C69.1975 158.941 81.2205 156.59 88.0161 151.105C89.323 150.06 92.4594 146.665 93.5049 145.359L98.7323 139.351C100.562 137.522 102.13 135.955 105.528 135.171C103.96 134.127 100.301 134.649 98.2096 134.91C97.1641 135.433 95.5959 137.522 93.7663 138.567C89.323 141.179 79.6523 145.358 74.9476 145.881L89.0616 137C84.0956 136.739 79.3909 136.216 74.4249 135.955C69.4588 136.216 63.7087 136.216 58.4813 135.955Z" fill="white"/>
<path fill-rule="evenodd" clip-rule="evenodd" d="M98.4712 82.4081L106.312 91.8115H115.199V64.6461H110.494C108.403 67.5194 98.7326 80.8408 98.4712 82.4081Z" fill="white"/>
<path fill-rule="evenodd" clip-rule="evenodd" d="M97.9486 26.249C95.0735 41.9213 91.937 46.1006 82.5277 58.3772C78.6071 63.6013 72.0729 70.3927 67.3682 74.5719C64.7545 76.9228 61.0953 78.49 57.1747 80.0573C49.8563 83.1917 42.538 87.371 35.481 90.2442H36.5264C45.1517 87.8934 54.8224 85.2814 63.4476 82.4081C69.4592 80.5797 75.9934 73.0047 80.1754 68.5642C86.4483 61.5117 92.7211 54.1979 96.9031 45.317C99.5168 40.0929 99.7782 37.4808 100.04 30.9507C100.301 25.7266 101.085 18.9353 100.824 13.7112L100.562 13.9724C100.562 14.2336 100.562 14.2336 100.301 14.2336L97.9486 26.249Z" fill="#343D47"/>
<path fill-rule="evenodd" clip-rule="evenodd" d="M102.653 204.652C102.914 209.093 105.005 210.399 109.448 210.66C111.278 210.66 113.108 210.921 114.937 210.921V201.779C111.801 201.779 109.448 202.824 102.653 204.652Z" fill="#FCD7B8"/>
<path fill-rule="evenodd" clip-rule="evenodd" d="M115.199 210.66C113.369 210.66 111.539 210.399 109.71 210.399C105.266 210.399 103.176 208.831 102.914 204.391L83.5727 210.921C83.8341 216.406 88.8001 219.28 94.2889 220.063C101.085 221.108 105.266 217.451 111.017 216.668C112.846 216.406 114.414 216.406 115.721 216.406V210.66H115.199ZM52.731 143.008L68.936 139.09C68.4132 138.567 68.6746 138.828 67.8905 138.567C66.0609 137.784 60.3107 137.261 58.7425 135.955L58.2198 135.433C61.3562 133.865 61.879 131.776 64.2313 129.686C66.5836 127.597 68.936 127.335 71.811 125.768C70.5042 123.156 67.1064 121.328 64.2313 120.544C59.788 119.499 50.9014 122.895 50.3786 125.768C49.5945 128.903 51.6855 140.134 52.731 143.008ZM30.2531 145.359C29.7304 143.008 29.469 135.694 29.469 133.082C29.7304 125.768 32.6054 129.686 36.7874 129.425C36.7874 127.335 37.0487 127.335 36.526 125.507C36.526 125.246 36.0033 124.201 36.0033 123.94C33.6509 119.238 28.1621 123.94 26.3325 130.731C23.9802 139.612 28.4235 150.583 29.469 160.77C29.9917 165.21 31.5599 171.218 35.7419 171.218C35.7419 164.165 35.4805 141.963 31.0372 137.784C30.5145 140.134 31.0372 144.052 30.2531 145.359ZM98.4709 134.91C100.562 134.388 104.221 134.127 105.789 135.172C109.187 134.91 111.017 134.388 114.937 134.388L115.199 125.246V122.372H103.698C102.914 124.462 102.914 126.813 101.869 129.164C100.823 131.515 99.5163 133.343 98.4709 134.91ZM44.1057 122.372C44.3671 122.372 47.2422 117.148 47.5036 116.887L44.1057 116.365V122.372ZM115.199 157.113C114.676 151.105 114.676 144.836 114.937 141.179C104.221 140.918 103.698 143.791 96.6413 152.411C92.9821 156.59 86.1864 161.553 77.8226 163.12C68.6746 164.949 59.5266 163.643 54.0378 158.941C48.549 154.239 46.7195 145.62 44.6285 138.828C44.6285 144.314 44.8899 153.456 46.4581 158.419C48.0263 163.643 57.4356 172.263 58.4811 178.793C60.0494 186.629 58.2198 190.547 63.4472 195.51C64.754 196.555 68.4132 199.689 69.9814 200.212L88.5388 182.711C90.6297 180.099 93.5048 178.793 94.2889 177.748C96.1185 175.92 95.073 175.397 99.7777 172.524C98.4709 175.136 96.6413 178.27 96.3799 181.666C97.164 181.927 97.6867 182.188 98.4709 181.927C99.5163 181.666 98.7322 180.882 100.039 181.144C100.3 181.144 103.437 182.45 103.96 182.711C107.619 184.278 111.278 185.062 115.199 184.8V157.113Z" fill="#F5A26C"/>
<path fill-rule="evenodd" clip-rule="evenodd" d="M129.313 82.4081C128.79 80.8409 119.119 67.5194 117.29 64.3849H112.585V42.7049C112.846 42.7049 112.846 42.7049 113.108 42.7049C120.426 42.7049 121.472 41.6601 124.608 46.8842C126.699 50.5411 128.006 53.6755 130.097 57.0712C133.233 61.7729 140.29 70.1315 144.734 74.0495C152.836 80.8409 153.882 83.1917 164.859 85.2814C170.087 86.3262 187.337 90.2442 191.258 89.983H192.303C185.246 87.1098 177.666 82.9305 170.609 79.796C166.689 77.9676 163.291 76.4004 160.416 74.3107C155.45 70.1315 149.177 63.3401 145.256 58.116C135.847 45.8394 132.711 41.9213 129.835 25.9878C159.632 31.2119 187.337 46.623 201.19 72.7435C202.758 75.6168 204.849 82.9305 205.894 84.7589V83.1917L206.417 89.4606L210.599 93.1175C212.167 94.6847 211.644 98.0804 211.383 100.954C209.815 118.454 206.678 113.23 213.997 119.76C215.304 120.805 216.611 122.895 217.656 124.723C220.531 130.731 218.44 133.866 215.565 137C227.065 121.328 191.78 110.357 178.973 107.223C159.109 102.26 135.324 100.954 114.415 100.954C113.892 100.954 113.369 100.954 112.846 100.954V91.5503H121.733L129.313 82.4081Z" fill="#FFC629"/>
<path fill-rule="evenodd" clip-rule="evenodd" d="M205.894 83.4529V85.0201C204.588 83.1917 202.497 75.8779 201.19 73.0047C187.337 46.8842 159.632 31.4731 129.836 26.249L127.222 14.4947L126.96 14.2335C126.96 13.9723 126.96 13.9723 126.699 13.9723C126.438 19.1964 127.222 25.9878 127.483 31.2119C127.745 37.4808 128.006 40.354 130.62 45.5781C135.063 54.4591 141.075 61.5117 147.347 68.8254C151.529 73.5271 158.064 80.8408 164.075 82.6693C172.7 85.2813 182.371 88.1546 190.996 90.5054C187.076 90.7666 169.564 86.5873 164.598 85.8037C153.62 83.7141 152.575 81.3632 144.472 74.5719C140.029 70.915 132.972 62.2953 129.836 57.5936C127.745 54.1979 126.438 51.0634 124.347 47.4066C121.21 42.1825 120.165 43.2273 112.846 43.2273C112.585 43.2273 112.585 43.2273 112.324 43.2273V0.912079C114.937 0.912079 117.813 1.17328 121.21 1.69569L146.302 9.79305C164.859 17.1068 186.553 30.4282 196.224 48.4514C201.713 58.3772 205.372 70.6538 205.894 83.4529Z" fill="white"/>
<path fill-rule="evenodd" clip-rule="evenodd" d="M174.007 110.096C164.075 111.402 154.666 112.708 144.472 113.491C134.017 114.275 123.563 114.536 112.846 114.536H112.324V104.611C125.654 104.611 139.245 104.872 144.995 105.394C149.961 105.917 154.927 106.439 159.893 107.223L172.962 109.573C174.269 110.096 173.484 109.835 174.007 110.096Z" fill="#FFC629"/>
<path fill-rule="evenodd" clip-rule="evenodd" d="M169.041 135.955C167.211 137.261 161.722 137.784 159.893 138.567C159.109 138.828 159.37 138.828 158.847 139.09L175.052 143.008C173.746 148.232 170.086 154.501 165.904 156.068C158.325 158.941 146.302 156.59 139.506 151.105C138.199 150.06 135.063 146.665 134.017 145.359L128.79 139.351C126.96 137.522 125.392 135.955 121.994 135.171C123.562 134.127 127.222 134.649 129.313 134.91C130.358 135.433 131.926 137.522 133.756 138.567C138.199 141.179 147.87 145.358 152.575 145.881L138.46 137C143.427 136.739 148.131 136.216 153.097 135.955C158.063 136.216 164.075 136.216 169.041 135.955Z" fill="white"/>
<path fill-rule="evenodd" clip-rule="evenodd" d="M129.313 82.4081L121.472 91.8115H112.585V64.6461H117.29C119.119 67.5194 128.79 80.8408 129.313 82.4081Z" fill="white"/>
<path fill-rule="evenodd" clip-rule="evenodd" d="M129.836 26.249C132.711 41.9213 135.847 46.1006 145.257 58.3772C149.177 63.6013 155.712 70.3927 160.416 74.5719C163.03 76.9228 166.689 78.49 170.61 80.0573C177.928 83.1917 185.246 87.371 192.303 90.2442H191.258C182.633 87.8934 172.962 85.2814 164.337 82.4081C158.325 80.5797 151.791 73.0047 147.609 68.5642C141.336 61.5117 135.063 54.1979 130.881 45.317C128.268 40.0929 128.006 37.4808 127.745 30.9507C127.484 25.7266 126.699 18.9353 126.961 13.7112L127.222 13.9724C127.222 14.2336 127.222 14.2336 127.484 14.2336L129.836 26.249Z" fill="#343D47"/>
<path fill-rule="evenodd" clip-rule="evenodd" d="M124.869 204.652C124.608 209.093 122.517 210.399 118.074 210.66C116.244 210.66 114.415 210.921 112.585 210.921V201.779C115.721 201.779 118.335 202.824 124.869 204.652Z" fill="#FCD7B8"/>
<path fill-rule="evenodd" clip-rule="evenodd" d="M112.585 210.66C114.414 210.66 116.244 210.399 118.074 210.399C122.517 210.399 124.608 208.831 124.869 204.391L144.211 210.921C143.949 216.406 138.983 219.28 133.494 220.063C126.699 221.108 122.517 217.451 116.767 216.668C114.937 216.406 113.369 216.406 112.062 216.406V210.66H112.585ZM174.791 143.008L158.847 139.09C159.37 138.567 159.109 138.828 159.893 138.567C161.722 137.784 167.473 137.261 169.041 135.955L169.564 135.433C166.427 133.865 165.904 131.776 163.552 129.686C161.2 127.597 158.847 127.335 155.972 125.768C157.279 123.156 160.677 121.328 163.552 120.544C167.995 119.499 176.882 122.895 177.405 125.768C177.927 128.903 175.836 140.134 174.791 143.008ZM197.269 145.359C197.792 143.008 198.053 135.694 198.053 133.082C197.792 125.768 194.917 129.686 190.735 129.425C190.735 127.335 190.473 127.335 190.996 125.507C190.996 125.246 191.519 124.201 191.519 123.94C193.871 119.238 199.36 123.94 201.189 130.731C203.542 139.612 199.098 150.583 198.053 160.77C197.53 165.21 195.962 171.218 191.78 171.218C191.78 164.165 192.041 141.963 196.485 137.784C197.269 140.134 196.485 144.052 197.269 145.359ZM129.051 134.91C126.96 134.388 123.301 134.127 121.733 135.172C118.335 134.91 116.505 134.388 112.585 134.388L112.323 125.246V122.372H123.824C124.608 124.462 124.608 126.813 125.653 129.164C126.699 131.515 128.006 133.343 129.051 134.91ZM183.416 122.372C183.155 122.372 180.28 117.148 180.018 116.887L183.416 116.365V122.372ZM112.585 157.113C113.107 151.105 113.107 144.836 112.846 141.179C123.562 140.918 124.085 143.791 131.142 152.411C134.801 156.59 141.597 161.553 149.961 163.12C159.109 164.949 168.257 163.643 173.745 158.941C179.234 154.239 181.064 145.62 183.155 138.828C183.155 144.314 182.893 153.456 181.325 158.419C179.757 163.643 170.348 172.263 169.302 178.793C167.734 186.629 169.564 190.547 164.336 195.51C163.029 196.555 159.37 199.689 157.802 200.212L139.245 182.711C137.154 180.099 134.279 178.793 133.494 177.748C131.665 175.92 132.71 175.397 128.006 172.524C129.312 175.136 131.142 178.27 131.403 181.666C130.619 181.927 130.097 182.188 129.312 181.927C128.267 181.666 129.051 180.882 127.744 181.144C127.483 181.144 124.346 182.45 123.824 182.711C120.165 184.278 116.505 185.062 112.585 184.8V157.113Z" fill="#F5A26C"/>
<path fill-rule="evenodd" clip-rule="evenodd" d="M40.4471 230.773L32.8674 249.579L0.196028 258.983C-0.0653427 258.983 -0.0653427 259.244 0.196028 259.244C9.86674 259.244 21.1057 259.766 34.697 262.117C61.0954 266.558 80.9596 276.745 81.7437 275.7C82.5278 274.655 56.3907 267.08 45.6745 248.012C42.0153 241.743 41.2312 235.474 40.9699 230.773C40.9699 230.773 40.7085 230.511 40.4471 230.773Z" fill="#FFC629"/>
<path fill-rule="evenodd" clip-rule="evenodd" d="M187.598 230.773L195.178 249.579L228.111 258.722C228.372 258.722 228.372 259.244 228.111 259.244C218.44 259.244 207.201 259.766 193.61 262.117C167.211 266.558 147.347 276.745 146.563 275.7C145.779 274.655 171.916 267.08 182.632 248.012C186.292 241.743 187.076 235.474 187.337 230.773C187.076 230.773 187.598 230.511 187.598 230.773Z" fill="#FFC629"/>
<path d="M278.817 323.461C275.419 321.633 273.067 319.282 270.976 316.147C269.146 313.013 268.101 309.617 268.101 305.699C268.101 301.781 269.146 298.385 270.976 295.251C272.805 292.117 275.419 289.766 278.817 287.937C282.215 286.109 285.874 285.325 289.794 285.325C293.976 285.325 297.635 286.109 300.772 287.937C304.17 289.766 306.522 292.117 308.613 295.251C310.443 298.385 311.488 301.781 311.488 305.699C311.488 309.617 310.443 313.013 308.613 316.147C306.783 319.282 304.17 321.633 300.772 323.461C297.374 325.29 293.715 326.073 289.794 326.073C285.612 326.073 281.953 325.29 278.817 323.461ZM295.283 315.625C296.851 314.58 298.158 313.274 298.942 311.707C299.726 310.14 300.249 308.05 300.249 305.96C300.249 303.871 299.726 301.781 298.942 300.214C298.158 298.647 296.851 297.341 295.283 296.296C293.715 295.251 291.885 294.99 290.056 294.99C288.226 294.99 286.397 295.512 284.828 296.296C283.26 297.341 281.953 298.647 281.169 300.214C280.385 301.781 279.862 303.871 279.862 305.96C279.862 308.05 280.385 310.14 281.169 311.707C281.953 313.274 283.26 314.58 284.828 315.625C286.397 316.67 288.226 316.931 290.056 316.931C291.885 316.931 293.715 316.409 295.283 315.625Z" fill="white"/>
<path d="M350.694 294.99H338.671V325.29H327.693V294.99H315.67V286.37H350.433V294.99H350.694Z" fill="white"/>
<path d="M373.433 310.401H368.467V325.29H357.489V286.37H368.467V301.52H373.694L383.104 286.37H394.604L382.319 305.177L394.604 325.29H382.058L373.433 310.401Z" fill="white"/>
<path d="M428.582 288.198C431.196 289.243 433.287 291.072 434.594 293.161C435.901 295.251 436.685 297.863 436.685 300.736C436.685 303.61 435.901 306.222 434.594 308.311C433.287 310.401 431.196 312.229 428.582 313.274C425.969 314.319 422.832 315.103 419.434 315.103H412.639V325.29H401.661V286.37H419.434C422.832 286.37 425.969 286.892 428.582 288.198ZM423.878 304.916C424.923 303.871 425.707 302.565 425.707 300.736C425.707 298.908 425.184 297.602 423.878 296.557C422.832 295.512 421.003 294.99 418.65 294.99H412.639V306.483H418.65C421.003 306.483 422.571 305.96 423.878 304.916Z" fill="white"/>
<path d="M474.845 302.042C477.459 304.132 478.765 307.266 478.765 311.446C478.765 315.886 477.197 319.282 474.322 321.633C471.447 323.984 467.526 325.29 462.299 325.29H443.742V286.37H454.719V298.908H463.867C468.572 298.647 472.492 299.953 474.845 302.042ZM466.22 315.886C467.265 314.841 467.788 313.535 467.788 311.707C467.788 308.311 465.697 306.744 461.776 306.744H454.981V317.453H461.776C463.606 317.453 464.913 316.931 466.22 315.886ZM483.209 286.37H494.186V325.29H483.209V286.37Z" fill="white"/>
<path d="M535.744 294.99H523.721V325.29H512.744V294.99H500.721V286.37H535.744V294.99Z" fill="white"/>
<path d="M573.643 302.042C576.256 304.132 577.563 307.266 577.563 311.446C577.563 315.886 575.995 319.282 573.12 321.633C570.245 323.984 566.324 325.29 561.097 325.29H542.54V286.37H553.517V298.908H562.665C567.37 298.647 571.029 299.953 573.643 302.042ZM564.756 315.886C565.802 314.841 566.324 313.535 566.324 311.707C566.324 308.311 564.233 306.744 560.313 306.744H553.517V317.453H560.313C562.142 317.453 563.711 316.931 564.756 315.886ZM581.745 286.37H592.723V325.29H581.745V286.37Z" fill="white"/>
<path d="M603.178 286.37H614.155V309.356L630.36 286.37H640.815V325.29H629.838V302.565L613.894 325.29H603.439V286.37H603.178ZM613.633 282.713H629.838V275.661H613.633V282.713Z" fill="white"/>
<path d="M304.431 337.566V376.486H293.454V363.164C290.317 364.209 287.703 364.732 285.09 364.732C279.601 364.732 275.419 363.426 272.544 360.814C269.669 358.201 268.101 354.545 268.101 349.582V337.566H279.078V348.276C279.078 353.239 281.43 355.851 286.397 355.851C289.01 355.851 291.363 355.328 293.192 354.545V337.566H304.431Z" fill="white"/>
<path d="M346.25 367.866V376.486H314.886V337.566H345.466V346.186H325.863V352.716H343.114V361.075H325.863V368.127H346.25V367.866Z" fill="white"/>
<path d="M390.161 376.486V355.851L380.229 372.568H375.263L365.331 356.112V376.225H355.138V337.566H364.286L377.877 360.03L391.207 337.566H400.355V376.486H390.161Z" fill="white"/>
<path d="M447.401 337.566V376.486H436.423V346.186H421.525V376.486H410.547V337.566H447.401Z" fill="white"/>
<path d="M457.856 337.566H468.834V360.552L485.039 337.566H495.493V376.486H484.516V353.761L468.572 376.486H458.117V337.566H457.856Z" fill="white"/>
<path d="M514.051 374.657C510.653 372.829 508.3 370.478 506.21 367.344C504.38 364.209 503.334 360.814 503.334 356.895C503.334 352.977 504.38 349.582 506.21 346.447C508.039 343.313 510.653 340.962 514.051 339.134C517.448 337.305 521.108 336.521 525.028 336.521C528.949 336.521 532.869 337.305 536.006 339.134C539.404 340.962 541.756 343.313 543.847 346.447C545.677 349.582 546.722 352.977 546.722 356.895C546.722 360.814 545.677 364.209 543.847 367.344C542.017 370.478 539.404 372.829 536.006 374.657C532.608 376.486 528.949 377.269 525.028 377.269C521.108 377.269 517.187 376.225 514.051 374.657ZM530.517 366.56C532.085 365.515 533.392 364.209 534.176 362.642C534.96 361.075 535.483 358.985 535.483 356.895C535.483 354.806 534.96 352.716 534.176 351.149C533.392 349.582 532.085 348.276 530.517 347.231C528.949 346.186 527.119 345.925 525.29 345.925C523.46 345.925 521.63 346.447 520.062 347.231C518.494 348.276 517.187 349.582 516.403 351.149C515.619 352.716 515.096 354.806 515.096 356.895C515.096 358.985 515.619 361.075 516.403 362.642C517.187 364.209 518.494 365.515 520.062 366.56C521.63 367.605 523.46 367.866 525.29 367.866C527.119 367.866 528.687 367.605 530.517 366.56Z" fill="white"/>
<path d="M591.939 337.566V376.486H580.962V361.336H565.802V376.486H554.825V337.566H565.802V352.194H580.962V337.566H591.939Z" fill="white"/>
<path d="M629.314 368.911H612.848L609.712 376.486H598.473L615.723 337.566H626.701L643.951 376.486H632.451L629.314 368.911ZM626.178 360.814L621.212 348.276L616.246 360.814H626.178Z" fill="white"/>
<path d="M677.668 346.186H665.645V376.486H654.667V346.186H642.906V337.566H677.668V346.186Z" fill="white"/>
<path d="M294.76 390.33C297.897 392.158 300.249 394.509 302.079 397.643C303.908 400.778 304.692 404.174 304.692 408.092C304.692 412.01 303.908 415.405 302.079 418.54C300.249 421.674 297.897 424.025 294.76 425.854C291.624 427.682 288.226 428.466 284.306 428.466C280.646 428.466 277.51 427.943 274.635 426.637C271.76 425.331 269.407 423.503 267.578 421.152L274.635 414.883C277.248 418.017 280.385 419.323 284.044 419.323C286.396 419.323 288.487 418.801 290.056 417.495C291.624 416.189 292.931 414.361 293.453 412.271H279.339V404.174H293.192C292.669 402.084 291.363 400.255 289.794 399.211C288.226 397.905 286.135 397.382 283.783 397.382C280.124 397.382 276.987 398.949 274.373 401.823L267.316 395.554C269.146 393.203 271.498 391.375 274.373 390.068C277.248 388.762 280.385 388.24 284.044 388.24C288.226 387.718 291.624 388.762 294.76 390.33Z" fill="#FFC629"/>
<path d="M348.864 388.501V427.421H337.887V397.121H326.648L326.386 403.39C326.125 408.875 325.863 413.577 325.079 416.973C324.295 420.368 323.25 423.242 321.42 425.07C319.591 426.898 317.238 427.943 314.102 427.943C312.534 427.943 310.965 427.682 309.136 427.16L309.658 418.017C310.181 418.017 310.704 418.279 311.227 418.279C312.795 418.279 313.84 417.756 314.625 416.45C315.409 415.405 315.931 413.577 316.193 411.749C316.454 409.659 316.715 407.047 316.977 403.651L317.5 388.24H348.864V388.501Z" fill="#FFC629"/>
<path d="M390.683 419.062V427.682H359.319V388.763H389.899V397.382H370.296V403.912H387.547V412.271H370.296V419.324H390.683V419.062Z" fill="#FFC629"/>
<path d="M415.252 412.532H410.286V427.421H399.309V388.501H410.286V403.651H415.514L424.923 388.501H436.423L424.139 407.308L436.423 427.421H423.877L415.252 412.532Z" fill="#FFC629"/>
<path d="M476.413 397.382H464.39V427.682H453.413V397.382H441.651V388.763H476.413V397.382Z" fill="#FFC629"/>
<path d="M510.391 390.33C513.005 391.375 515.096 393.203 516.403 395.293C517.71 397.382 518.494 399.994 518.494 402.868C518.494 405.741 517.71 408.353 516.403 410.442C515.096 412.532 513.005 414.361 510.391 415.405C507.778 416.45 504.641 417.234 501.243 417.234H494.448V427.421H483.47V388.501H501.243C504.903 388.501 507.778 389.024 510.391 390.33ZM505.687 407.047C506.732 406.002 507.516 404.696 507.516 402.868C507.516 401.039 506.994 399.733 505.687 398.688C504.641 397.643 502.812 397.121 500.459 397.121H494.448V408.614H500.459C502.812 408.614 504.641 408.092 505.687 407.047Z" fill="#FFC629"/>
<path d="M525.812 388.501H536.79V411.487L552.995 388.501H563.449V427.421H552.472V404.696L536.528 427.421H526.073V388.501H525.812Z" fill="#FFC629"/>
<path d="M589.587 412.532H584.621V427.421H573.643V388.501H584.621V403.651H589.848L599.257 388.501H610.758L598.473 407.308L610.758 427.421H598.473L589.587 412.532Z" fill="#FFC629"/>
<path d="M624.349 425.592C620.951 423.764 618.599 421.413 616.508 418.279C614.678 415.144 613.633 411.749 613.633 407.83C613.633 403.912 614.678 400.517 616.508 397.382C618.337 394.248 620.951 391.897 624.349 390.069C627.747 388.24 631.406 387.456 635.327 387.456C639.247 387.456 643.168 388.24 646.304 390.069C649.702 391.897 652.054 394.248 654.145 397.382C655.975 400.517 657.02 403.912 657.02 407.83C657.02 411.749 655.975 415.144 654.145 418.279C652.316 421.413 649.702 423.764 646.304 425.592C642.906 427.421 639.247 428.204 635.327 428.204C631.406 428.204 627.485 427.421 624.349 425.592ZM640.815 417.756C642.384 416.711 643.69 415.405 644.475 413.838C645.259 412.271 645.781 410.181 645.781 408.092C645.781 406.002 645.259 403.912 644.475 402.345C643.69 400.778 642.384 399.472 640.815 398.427C639.247 397.382 637.418 397.121 635.588 397.121C633.758 397.121 631.929 397.643 630.361 398.427C628.792 399.211 627.485 400.778 626.701 402.345C625.917 403.912 625.394 406.002 625.394 408.092C625.394 410.181 625.917 412.271 626.701 413.838C627.485 415.405 628.792 416.711 630.361 417.756C631.929 418.801 633.758 419.062 635.588 419.062C637.418 419.062 639.247 418.801 640.815 417.756Z" fill="#FFC629"/>
<path d="M698.839 410.704C700.146 412.271 700.669 414.099 700.669 416.45C700.669 419.846 699.362 422.719 696.748 424.548C694.135 426.637 690.214 427.421 685.248 427.421H665.384V388.501H684.202C688.907 388.501 692.566 389.285 695.18 391.113C697.794 392.942 699.101 395.293 699.101 398.688C699.101 400.517 698.578 402.345 697.794 403.651C697.01 405.218 695.703 406.263 693.873 407.047C695.964 407.83 697.794 409.136 698.839 410.704ZM676.1 404.174H683.157C686.293 404.174 687.862 402.868 687.862 400.256C687.862 397.643 686.293 396.337 683.157 396.337H676.1V404.174ZM689.43 415.667C689.43 413.055 687.862 411.749 684.725 411.749H676.1V419.846H684.725C687.862 419.585 689.43 418.279 689.43 415.667Z" fill="#FFC629"/>
<path d="M176.098 286.37V383.016H223.668V286.37H176.098ZM88.0163 368.65L54.2995 286.109H3.0708L62.9247 427.16H109.71L169.564 286.109H122.517L88.0163 368.65Z" fill="#FFC629"/>
<path d="M165.905 405.48V398.166L162.246 404.174H160.417L156.757 398.427V405.48H153.098V391.636H156.757L161.723 399.472L166.428 391.636H169.565V405.48H165.905Z" fill="white"/>
<path d="M175.314 404.957C174.268 404.435 173.223 403.39 172.7 402.345C171.916 401.3 171.655 399.994 171.655 398.688C171.655 397.382 171.916 396.076 172.7 395.031C173.484 393.987 174.268 393.203 175.314 392.419C176.359 391.897 177.666 391.375 179.235 391.375C180.803 391.375 182.11 391.636 183.155 392.419C184.201 392.942 185.246 393.987 185.769 395.031C186.553 396.076 186.814 397.382 186.814 398.688C186.814 399.994 186.553 401.3 185.769 402.345C184.985 403.39 184.201 404.174 183.155 404.957C182.11 405.48 180.803 406.002 179.235 406.002C177.928 405.741 176.621 405.48 175.314 404.957ZM181.326 402.084C181.848 401.823 182.371 401.3 182.632 400.778C182.894 400.256 183.155 399.472 183.155 398.688C183.155 397.905 182.894 397.121 182.632 396.599C182.371 396.076 181.848 395.554 181.326 395.293C180.803 395.031 180.019 394.77 179.496 394.77C178.712 394.77 178.189 395.031 177.666 395.293C177.144 395.554 176.621 396.076 176.359 396.599C176.098 397.121 175.837 397.905 175.837 398.688C175.837 399.472 176.098 400.256 176.359 400.778C176.621 401.3 177.144 401.823 177.666 402.084C178.189 402.345 178.973 402.606 179.496 402.606C180.019 402.606 180.541 402.345 181.326 402.084Z" fill="white"/>
<path d="M192.303 404.957C191.258 404.435 190.212 403.39 189.69 402.345C188.905 401.3 188.644 399.994 188.644 398.688C188.644 397.382 188.905 396.076 189.69 395.031C190.474 393.987 191.258 393.203 192.303 392.419C193.349 391.897 194.656 391.636 196.224 391.636C197.531 391.636 198.576 391.897 199.622 392.419C200.667 392.942 201.451 393.464 202.235 394.248L199.883 396.599C199.099 395.554 197.792 395.031 196.747 395.031C195.962 395.031 195.44 395.293 194.656 395.554C194.133 395.815 193.61 396.337 193.349 396.86C193.087 397.382 192.826 398.166 192.826 398.949C192.826 399.733 193.087 400.517 193.349 401.039C193.61 401.562 194.133 402.084 194.656 402.345C195.178 402.606 195.962 402.868 196.747 402.868C198.053 402.868 199.099 402.345 199.883 401.3L202.235 403.651C201.451 404.435 200.667 405.218 199.622 405.48C198.576 406.002 197.531 406.263 196.224 406.263C194.656 405.741 193.349 405.48 192.303 404.957Z" fill="white"/>
<path d="M209.293 400.256H207.463V405.48H203.804V391.636H207.725V396.86H209.554L212.952 391.636H216.873L212.691 398.166L216.873 405.48H212.429L209.293 400.256Z" fill="white"/>
<path d="M230.463 399.472C230.986 399.994 230.986 400.778 230.986 401.562C230.986 402.868 230.463 403.651 229.679 404.435C228.634 405.218 227.327 405.48 225.759 405.48H218.702V391.636H225.497C227.066 391.636 228.372 391.897 229.418 392.681C230.202 393.203 230.725 394.248 230.725 395.293C230.725 396.076 230.463 396.599 230.202 397.121C229.941 397.643 229.418 398.166 228.895 398.427C229.418 398.427 230.202 398.949 230.463 399.472ZM222.361 397.121H224.713C225.759 397.121 226.281 396.599 226.281 395.815C226.281 395.031 225.759 394.509 224.713 394.509H222.361V397.121ZM227.327 401.3C227.327 400.256 226.804 399.994 225.759 399.994H222.622V402.868H225.759C226.543 402.606 227.327 402.084 227.327 401.3Z" fill="white"/>
<path d="M242.748 402.868H236.998L235.952 405.48H232.032L238.043 391.636H241.964L247.975 405.48H244.055L242.748 402.868ZM241.441 399.994L239.611 395.554L237.782 399.994H241.441Z" fill="white"/>
<path d="M186.292 424.286V427.421H175.575V425.07L180.803 420.368C181.326 419.846 181.587 419.585 181.848 419.062C182.11 418.801 182.11 418.279 182.11 418.017C182.11 417.495 181.848 417.234 181.587 416.973C181.326 416.711 180.803 416.711 180.28 416.711C179.757 416.711 179.235 416.711 178.973 416.973C178.451 417.234 178.189 417.495 177.928 418.017L175.053 416.45C175.575 415.667 176.36 414.883 177.405 414.36C178.451 413.838 179.496 413.577 180.803 413.577C181.848 413.577 182.894 413.838 183.678 414.099C184.462 414.361 184.985 414.883 185.508 415.667C186.03 416.45 186.292 416.973 186.292 417.756C186.292 418.54 186.03 419.323 185.769 419.846C185.508 420.629 184.723 421.152 183.939 422.197L181.326 424.548H186.292V424.286Z" fill="#FFC629"/>
<path d="M190.735 426.898C189.689 426.376 189.167 425.592 188.644 424.548C188.121 423.503 187.86 422.197 187.86 420.629C187.86 419.062 188.121 417.756 188.644 416.711C189.167 415.667 189.951 414.883 190.735 414.36C191.78 413.838 192.826 413.577 193.871 413.577C194.917 413.577 195.962 413.838 197.008 414.36C198.053 414.883 198.576 415.667 199.099 416.711C199.622 417.756 199.883 419.062 199.883 420.629C199.883 422.197 199.622 423.503 199.099 424.548C198.576 425.592 197.792 426.376 197.008 426.898C195.962 427.421 195.178 427.682 193.871 427.682C192.565 427.682 191.519 427.421 190.735 426.898ZM195.44 423.503C195.701 422.98 195.962 421.935 195.962 420.368C195.962 419.062 195.701 418.017 195.44 417.234C195.178 416.45 194.655 416.189 193.871 416.189C193.087 416.189 192.565 416.45 192.303 417.234C192.042 417.756 191.78 418.801 191.78 420.368C191.78 421.674 192.042 422.719 192.303 423.503C192.565 424.025 193.087 424.548 193.871 424.548C194.394 424.548 194.917 424.286 195.44 423.503Z" fill="#FFC629"/>
<path d="M212.167 424.286V427.421H201.451V425.07L206.678 420.368C207.201 419.846 207.462 419.585 207.724 419.062C207.985 418.801 207.985 418.279 207.985 418.017C207.985 417.495 207.724 417.234 207.462 416.973C207.201 416.711 206.678 416.711 206.156 416.711C205.633 416.711 205.11 416.711 204.849 416.973C204.326 417.234 204.065 417.495 203.803 418.017L200.928 416.45C201.451 415.667 202.235 414.883 203.281 414.36C204.326 413.838 205.372 413.577 206.678 413.577C207.724 413.577 208.769 413.838 209.553 414.099C210.338 414.361 210.86 414.883 211.383 415.667C211.906 416.45 212.167 416.973 212.167 417.756C212.167 418.54 211.906 419.323 211.644 419.846C211.383 420.629 210.599 421.152 209.815 422.197L207.201 424.548H212.167V424.286Z" fill="#FFC629"/>
<path d="M223.668 420.629C224.191 421.413 224.452 422.197 224.452 423.242C224.452 424.025 224.191 424.809 223.668 425.592C223.145 426.376 222.622 426.898 221.577 427.16C220.793 427.682 219.486 427.682 218.179 427.682C217.134 427.682 216.349 427.682 215.304 427.421C214.259 427.16 213.474 426.898 212.952 426.376L214.259 423.503C214.781 423.764 215.304 424.025 216.088 424.286C216.872 424.548 217.395 424.548 218.179 424.548C218.963 424.548 219.486 424.548 219.747 424.286C220.009 424.025 220.27 423.764 220.27 423.242C220.27 422.458 219.486 421.936 218.179 421.936H216.872V419.585L219.225 416.973H213.736V413.838H223.668V416.189L220.793 419.323C222.1 419.323 222.884 419.846 223.668 420.629Z" fill="#FFC629"/>
<path d="M409.764 118.716H319.853V157.113H409.764V118.716Z" fill="#FFC629"/>
<path d="M268.362 260.028H306.784V170.695H268.362V260.028ZM319.852 170.173V260.028H358.274H409.764V221.63H358.274V208.831H409.764V170.173H319.852ZM268.362 157.374H306.784V118.716H268.362V157.374ZM510.392 118.716L474.584 170.173H461.254V118.716H422.832V259.766H461.254V208.57H474.584L510.392 260.028H555.609L506.21 189.502L555.87 118.977H510.392V118.716Z" fill="white"/>
</g>
</svg>
