<svg width="36" height="46" viewBox="0 0 36 46" fill="none" xmlns="http://www.w3.org/2000/svg">
<path d="M17.9049 24.2972C21.5811 24.2972 24.5612 21.3171 24.5612 17.6409C24.5612 13.9646 21.5811 10.9845 17.9049 10.9845C14.2287 10.9845 11.2485 13.9646 11.2485 17.6409C11.2485 21.3171 14.2287 24.2972 17.9049 24.2972Z" stroke="white" stroke-width="2" stroke-linecap="round" stroke-linejoin="round"/>
<path d="M34.5459 17.6409C34.5459 32.6177 17.905 44.2663 17.905 44.2663C17.905 44.2663 1.26416 32.6177 1.26416 17.6409C1.26416 13.2275 3.01739 8.99478 6.13816 5.874C9.25894 2.75323 13.4916 1 17.905 1C22.3185 1 26.5512 2.75323 29.6719 5.874C32.7927 8.99478 34.5459 13.2275 34.5459 17.6409V17.6409Z" stroke="white" stroke-width="2" stroke-linecap="round" stroke-linejoin="round"/>
</svg>
