<svg width="95" height="96" viewBox="0 0 95 96" fill="none" xmlns="http://www.w3.org/2000/svg">
<path d="M77.7687 47.9952C77.7687 64.348 64.4545 77.766 48.2132 77.7765C31.6032 77.787 18.2157 64.4997 18.2393 48.0239C18.2602 31.5456 31.6032 18.2348 48.0981 18.24C64.4388 18.2452 77.7687 31.6136 77.7713 47.9978L77.7687 47.9952ZM47.9229 74.643C62.6679 74.6482 74.635 62.742 74.6376 48.0658C74.6402 33.3059 62.7019 21.3709 47.9307 21.3735C33.3034 21.3735 21.3677 33.3399 21.3677 48.003C21.3677 62.6766 33.293 74.6404 47.9203 74.6456L47.9229 74.643Z" fill="#131313"/>
<path d="M12.2276 73.2147C13.9593 72.3647 15.7851 72.043 17.6998 72.5112C19.1254 72.859 20.3652 73.5522 21.4063 74.5906C22.722 75.9062 24.0404 77.2193 25.3535 78.5349C26.6431 79.8244 26.6431 80.4286 25.3666 81.7233C25.1861 81.9064 25.0134 82.1 24.7833 82.3432C26.2533 83.787 27.7051 85.2152 29.1254 86.6119C28.2858 87.4332 27.5717 88.1316 26.8079 88.8796C25.4817 87.5143 24.0744 86.0652 22.6096 84.556C21.8876 85.3852 21.2337 86.1359 20.6007 86.863C21.8955 88.1473 23.3472 89.5832 24.8303 91.0506C23.9619 91.9059 23.2504 92.6043 22.5337 93.3105C21.1212 91.8771 19.7087 90.4464 18.1968 88.9163C17.7364 89.3661 17.4121 89.7114 17.0615 90.0253C16.2847 90.721 15.445 90.7472 14.7048 90.0253C13.0961 88.4507 11.4638 86.8918 9.94931 85.2282C7.66837 82.7199 7.40156 78.9456 9.25352 76.0579C9.62757 75.4746 9.65635 75.1163 9.25352 74.533C-9.77087 46.8965 5.75103 8.59873 38.6598 1.9577C47.7574 0.121539 56.6301 0.9193 65.2725 4.29082C65.4216 4.34836 65.5655 4.41899 65.8114 4.52623C65.4269 5.46785 65.0554 6.38331 64.6605 7.35632C52.9105 2.86793 41.307 2.95163 29.8787 8.08869C21.32 11.9362 14.6891 18.0097 9.99639 26.1416C0.734004 42.191 3.17973 61.0417 12.2276 73.2147ZM22.2774 80.1487C21.1029 78.9089 19.9833 77.5357 18.6676 76.3875C16.9124 74.8574 14.1921 75.0928 12.5232 76.7327C10.8884 78.3413 10.5614 81.0433 12.0419 82.7879C13.2085 84.1637 14.6786 85.2806 15.9525 86.4576C17.9771 84.4383 20.1403 82.2804 22.2774 80.1487Z" fill="#131313"/>
<path d="M30.2303 91.3881C30.5939 90.5066 30.9497 89.6356 31.3473 88.6705C44.1069 93.4884 56.5919 93.0124 68.6898 86.6564C76.4664 82.5709 82.4146 76.5524 86.5946 68.8285C94.8212 53.6213 93.0712 35.5971 83.8455 22.8303C83.202 23.0501 82.5507 23.343 81.8706 23.4947C79.1162 24.1094 76.6966 23.411 74.6616 21.4676C73.2229 20.0918 71.8313 18.6663 70.4293 17.2539C69.4353 16.2495 69.4405 15.504 70.458 14.4918C70.7091 14.2407 71.0414 14.0707 71.4703 13.7699C69.8067 12.1534 68.3471 10.7331 66.8771 9.30502C67.6827 8.55696 68.3916 7.89521 69.1135 7.223C70.445 8.56481 71.881 10.0112 73.2674 11.4106C74.1044 10.5919 74.8133 9.89877 75.5457 9.18209C74.141 7.81151 72.6788 6.38077 71.2454 4.98142C72.072 4.1235 72.7651 3.40421 73.5185 2.62476C74.9441 4.11042 76.3356 5.5647 77.7298 7.01898C77.8842 7.08699 78.0385 7.15761 78.1902 7.22561C78.423 6.83066 78.5904 6.37292 78.9043 6.05644C79.6864 5.26914 80.5365 5.25083 81.316 6.01459C82.9038 7.56564 84.5073 9.10362 86.0061 10.7384C88.355 13.3017 88.614 17.1048 86.6836 20.0709C86.3357 20.6071 86.3671 20.9288 86.7097 21.4284C92.5115 29.8689 95.224 39.2302 94.986 49.4599C94.489 70.8791 78.6244 89.7847 57.6068 94.022C48.5851 95.8399 39.77 95.1598 31.1615 91.8981C30.9183 91.8066 30.675 91.7124 30.4344 91.6104C30.3794 91.5869 30.3454 91.5189 30.2251 91.3907L30.2303 91.3881ZM73.6937 15.8676C74.8813 17.11 75.9956 18.444 77.2825 19.5791C79.0116 21.104 81.677 20.9523 83.3616 19.396C85.0853 17.8031 85.496 15.0698 84.0024 13.286C82.8279 11.884 81.3082 10.7698 79.9951 9.57443C77.9993 11.5675 75.8386 13.7254 73.6937 15.8676Z" fill="#131313"/>
<path d="M49.571 43.3074C52.1083 43.3074 54.5174 43.3022 56.9265 43.3074C58.7654 43.3126 59.4114 44.3406 58.5927 45.9858C55.6003 51.9912 52.5948 57.9914 49.5919 63.989C49.0844 65.0013 48.3991 65.425 47.6196 65.1844C46.6413 64.8809 46.4216 64.1276 46.4294 63.1886C46.453 59.736 46.4399 56.286 46.4399 52.7654C46.0999 52.7419 45.8174 52.7079 45.5375 52.7079C43.3533 52.7027 41.1665 52.7157 38.9824 52.7027C37.2978 52.6922 36.6256 51.6198 37.3789 50.108C39.9607 44.9186 42.5555 39.7345 45.1477 34.5503C45.5401 33.763 45.9325 32.9757 46.3274 32.1911C46.9107 31.0297 47.5725 30.572 48.3913 30.8231C49.4271 31.1396 49.5919 31.9556 49.584 32.9156C49.5579 35.9811 49.5736 39.0466 49.5736 42.1121V43.3048L49.571 43.3074ZM41.1796 49.5012C41.4098 49.5456 41.4726 49.5665 41.538 49.5665C43.1362 49.5692 44.7371 49.5718 46.3353 49.5718C49.482 49.5718 49.5736 49.6633 49.5736 52.7994V56.613C49.6416 56.6182 49.7122 56.6235 49.7802 56.6261C51.4569 53.2676 53.1336 49.9066 54.8626 46.4383H49.4846C46.5995 46.4383 46.4373 46.2787 46.4373 43.412V39.3997C46.3693 39.3944 46.3013 39.3892 46.2306 39.384C44.5592 42.7267 42.8903 46.0695 41.177 49.4985L41.1796 49.5012Z" fill="#131313"/>
</svg>
