<svg width="94" height="94" viewBox="0 0 94 94" fill="none" xmlns="http://www.w3.org/2000/svg">
<path d="M57.8198 94.0002C57.7464 93.9513 57.6974 93.8778 57.624 93.8534C55.2005 92.9721 54.1234 91.5034 54.1234 88.982C54.1234 72.7768 54.1234 56.5471 54.1234 40.3419C54.1234 37.1841 56.0328 35.2747 59.2151 35.2747C61.7609 35.2747 64.2823 35.2747 66.9016 35.2747C66.9016 32.9492 66.9016 30.6726 66.9016 28.2982C64.9187 28.2982 62.9359 28.2737 60.9531 28.3226C60.7573 28.3226 60.5125 28.5919 60.3656 28.7877C59.6557 29.6935 58.75 30.1341 57.5995 30.1341C50.525 30.1341 43.475 30.1341 36.4005 30.1341C35.25 30.1341 34.3443 29.669 33.6344 28.7633C33.463 28.5674 33.1693 28.3226 32.949 28.3226C31.0151 28.2982 29.1057 28.2982 27.1229 28.2982C27.1229 30.6237 27.1229 32.9002 27.1229 35.2747C29.6688 35.2747 32.1656 35.2747 34.6625 35.2747C35.1521 35.2747 35.6417 35.2747 36.1313 35.3482C38.4568 35.8133 39.901 37.6737 39.901 40.1706C39.901 47.294 39.901 54.4174 39.901 61.5653C39.901 66.3877 39.901 71.2346 39.901 76.057C39.901 76.3508 39.9255 76.669 39.8766 76.9627C39.8031 77.6971 39.3625 78.1377 38.6281 78.1867C37.8938 78.2357 37.4042 77.8685 37.2083 77.1341C37.1349 76.7914 37.1349 76.3997 37.1349 76.0325C37.1349 64.2581 37.1349 52.4836 37.1349 40.6846C37.1349 38.506 36.5964 37.943 34.4422 37.943C25.9479 37.943 17.4292 37.943 8.9349 37.943C7.02552 37.943 6.41354 38.5549 6.41354 40.4888C6.41354 56.5471 6.41354 72.6055 6.41354 88.6883C6.41354 90.5732 7.05 91.2096 8.95937 91.2096C17.5026 91.2096 26.0214 91.2096 34.5646 91.2096C36.5229 91.2096 37.1349 90.5976 37.1349 88.6148C37.1349 86.9013 37.1104 85.1877 37.1349 83.4742C37.1594 82.2258 38.212 81.4669 39.1177 82.0789C39.5094 82.3482 39.8276 82.9601 39.8276 83.4252C39.901 85.3836 39.8766 87.3419 39.8521 89.3002C39.8276 91.381 38.6526 92.9721 36.7188 93.7065C36.5229 93.7799 36.3516 93.8778 36.1557 93.9758C26.5599 93.9758 16.9396 93.9758 7.31927 93.9758C4.45521 92.9476 3.525 90.8669 3.59844 87.9049C3.74531 82.3726 3.6474 76.8404 3.6474 71.2836C3.6474 60.9779 3.6474 50.6721 3.6474 40.3664C3.6474 37.0862 5.53229 35.2258 8.83698 35.2013C10.526 35.2013 12.1906 35.2013 13.8797 35.2013C14.7365 35.2013 15.5688 35.2013 16.4255 35.2013C16.4255 32.8023 16.4255 30.5502 16.4255 28.2247C11.9948 28.2247 7.66198 28.1758 3.32917 28.2492C1.78698 28.3226 0.660938 27.8575 0 26.4377C0 24.1857 0 21.9091 0 19.6325C0.440625 19.094 0.783333 18.4331 1.32188 18.0903C1.81146 17.7721 2.54583 17.7476 3.18229 17.7476C12.9495 17.7232 22.6922 17.7476 32.4594 17.7232C32.8266 17.7232 33.3406 17.6008 33.5609 17.3315C34.3443 16.3279 35.3234 15.8627 36.5719 15.9117C37.6245 15.9362 38.7016 15.9117 39.8766 15.9117C39.8766 14.5898 39.8766 13.3903 39.8766 12.1664C39.8766 10.9669 40.3172 9.98774 41.2719 9.22889C41.5167 9.05754 41.6635 8.64139 41.688 8.32316C41.737 6.70754 41.7615 5.06743 41.688 3.45181C41.6146 1.90962 42.0797 0.71014 43.524 0.000244141C45.8495 0.000244141 48.175 0.000244141 50.5005 0.000244141C51.9448 0.71014 52.3854 1.90962 52.312 3.45181C52.2385 5.06743 52.2875 6.68306 52.312 8.32316C52.312 8.61691 52.4344 9.00858 52.6547 9.17993C53.7807 10.0122 54.1724 11.1138 54.1479 12.4601C54.1234 13.5862 54.1479 14.7122 54.1479 15.9362C55.4698 15.9362 56.6938 15.8872 57.8932 15.9362C59.4844 15.9851 60.7573 17.1601 60.9531 18.7023C61.0021 19.1185 60.9776 19.5591 60.9776 19.9752C60.9776 21.7867 60.9776 23.6226 60.9776 25.5075C63.401 25.5075 65.7266 25.5075 68.0521 25.5075C69.2271 25.5075 69.7167 25.9971 69.7411 27.1721C69.7656 27.931 69.7411 28.6898 69.7411 29.4732C69.7411 31.3581 69.7411 33.243 69.7411 35.1768C71.4547 35.1768 73.0458 35.1768 74.7104 35.1768C74.7349 34.8341 74.7594 34.5403 74.7594 34.2466C74.7594 31.9945 74.7594 29.718 74.7594 27.4659C74.7594 25.9482 75.1755 25.5075 76.7177 25.5075C81.2219 25.5075 85.7016 25.5075 90.2057 25.5075C90.524 25.5075 90.8667 25.5075 91.2094 25.5075C91.2094 23.794 91.2094 22.2028 91.2094 20.4893C90.7932 20.4893 90.4505 20.4893 90.0833 20.4893C82.3724 20.4893 74.6615 20.4893 66.9505 20.4893C66.6568 20.4893 66.3385 20.5138 66.0448 20.4648C65.188 20.3669 64.625 19.7794 64.6495 19.045C64.674 18.2862 65.2615 17.7721 66.1427 17.7476C66.3141 17.7476 66.5099 17.7476 66.6813 17.7476C74.7349 17.7476 82.7641 17.7721 90.8177 17.7232C92.3599 17.7232 93.4125 18.2127 94 19.6325C94 21.8846 94 24.1612 94 26.4377C93.3391 27.8575 92.213 28.3226 90.6708 28.2982C86.6318 28.2247 82.5927 28.2737 78.5536 28.2737C78.2354 28.2737 77.8927 28.2737 77.55 28.2737C77.55 30.6482 77.55 32.9247 77.55 35.2502C80.0224 35.2502 82.4458 35.3726 84.8693 35.2258C88.2229 35.0299 90.4016 37.4044 90.3771 40.6846C90.2792 54.8581 90.3281 69.007 90.3281 83.1805C90.3281 85.1877 90.3526 87.2195 90.3281 89.2268C90.3036 91.381 89.1286 93.0211 87.1214 93.7799C86.95 93.8289 86.8031 93.9268 86.6562 94.0002C77.0604 94.0002 67.4401 94.0002 57.8198 94.0002ZM56.8651 64.5273C56.8651 72.6055 56.8651 80.6836 56.8651 88.7617C56.8651 90.5976 57.5016 91.2341 59.362 91.2341C67.9297 91.2341 76.4974 91.2341 85.0651 91.2341C86.95 91.2341 87.5865 90.5976 87.5865 88.6883C87.5865 72.6299 87.5865 56.5716 87.5865 40.4888C87.5865 38.5794 86.9745 37.9674 85.0406 37.9674C76.4974 37.9674 67.9786 37.9674 59.4354 37.9674C57.4526 37.9674 56.8651 38.5549 56.8651 40.5377C56.8651 48.5669 56.8651 56.5471 56.8651 64.5273ZM46.9755 27.3435C50.4026 27.3435 53.8297 27.319 57.2323 27.3435C57.9177 27.3435 58.2359 27.1476 58.2115 26.4133C58.187 24.1122 58.187 21.8357 58.2115 19.5346C58.2115 18.8492 57.9422 18.6289 57.3057 18.6289C55.8615 18.6534 54.4417 18.6534 52.9974 18.6289C51.8469 18.6044 51.4062 18.1393 51.3818 16.9888C51.3573 15.4711 51.3573 13.9289 51.3818 12.4112C51.4062 11.6768 51.1615 11.3586 50.3781 11.3831C48.126 11.4075 45.8495 11.4075 43.5974 11.3831C42.8875 11.3831 42.6182 11.6278 42.6182 12.3622C42.6427 13.8555 42.6427 15.3487 42.6182 16.8664C42.6182 18.2372 42.1776 18.6534 40.7823 18.6778C39.4359 18.6778 38.0896 18.7023 36.7432 18.6778C35.9599 18.6534 35.7396 18.9471 35.7641 19.706C35.813 21.9091 35.813 24.1122 35.7641 26.3153C35.7396 27.1721 36.0089 27.4169 36.8656 27.4169C40.2438 27.319 43.5974 27.3435 46.9755 27.3435ZM2.79062 25.5075C3.18229 25.5075 3.47604 25.5075 3.79427 25.5075C8.3474 25.5075 12.9005 25.5075 17.4781 25.5075C18.7755 25.5075 19.2406 25.9971 19.2651 27.27C19.2651 28.0289 19.2651 28.7877 19.2651 29.5711C19.2651 31.4315 19.2651 33.2919 19.2651 35.1768C20.9786 35.1768 22.5698 35.1768 24.2833 35.1768C24.2833 34.8096 24.2833 34.4669 24.2833 34.1487C24.2833 31.97 24.2833 29.8159 24.2833 27.6372C24.2833 25.8747 24.6505 25.5075 26.462 25.5075C28.2 25.5075 29.938 25.5075 31.7005 25.5075C32.1411 25.5075 32.5818 25.5075 33.0224 25.5075C33.0224 23.7695 33.0224 22.1539 33.0224 20.5383C22.937 20.5383 12.925 20.5383 2.83958 20.5383C2.79063 22.2028 2.79062 23.8185 2.79062 25.5075ZM49.4969 2.79087C47.7833 2.79087 46.1922 2.79087 44.5276 2.79087C44.5276 4.7492 44.5276 6.6341 44.5276 8.56795C46.2167 8.56795 47.8323 8.56795 49.4969 8.56795C49.4969 6.6341 49.4969 4.7492 49.4969 2.79087Z" fill="#131313"/>
<path d="M32.5574 51.8717C32.5818 57.8201 27.7594 62.6915 21.811 62.7159C15.887 62.7404 11.0157 57.8935 10.9912 51.9206C10.9912 45.9477 15.7891 41.1008 21.7376 41.1008C27.7105 41.1008 32.5329 45.9232 32.5574 51.8717ZM29.7912 51.9206C29.7912 47.4654 26.2173 43.867 21.762 43.867C17.3068 43.867 13.7329 47.4654 13.7329 51.9451C13.7574 56.3514 17.3068 59.9253 21.7376 59.9743C26.1438 59.9987 29.7912 56.3758 29.7912 51.9206Z" fill="#131313"/>
<path d="M32.5574 77.134C32.5574 83.1069 27.735 87.9293 21.7865 87.9293C15.8381 87.9293 10.9912 83.1069 10.9912 77.134C10.9912 71.1856 15.8136 66.3142 21.762 66.3142C27.7105 66.3387 32.5574 71.1856 32.5574 77.134ZM29.7912 77.1095C29.7667 72.6543 26.1193 69.0314 21.7131 69.1048C17.2824 69.1538 13.7574 72.7278 13.7329 77.1585C13.7329 81.6137 17.3313 85.2121 21.7865 85.2121C26.2417 85.1877 29.8157 81.5647 29.7912 77.1095Z" fill="#131313"/>
<path d="M72.2137 89.0311C68.909 89.0311 65.6043 89.0311 62.2996 89.0311C60.2189 89.0311 59.0684 87.8806 59.0684 85.7998C59.0684 80.3165 59.0684 74.8576 59.0684 69.3743C59.0684 67.3425 60.2189 66.1675 62.2507 66.1675C68.909 66.1431 75.5918 66.1431 82.2501 66.1675C84.2329 66.1675 85.3835 67.367 85.3835 69.3253C85.3835 74.8332 85.3835 80.341 85.3835 85.8243C85.3835 87.8561 84.2329 89.0311 82.2012 89.0311C78.872 89.0556 75.5428 89.0311 72.2137 89.0311ZM73.6824 68.9826C73.6824 74.8087 73.6824 80.5368 73.6824 86.2404C76.6934 86.2404 79.6064 86.2404 82.5684 86.2404C82.5684 80.4634 82.5684 74.7352 82.5684 68.9826C79.5819 68.9826 76.6444 68.9826 73.6824 68.9826ZM61.9079 68.9826C61.9079 74.7597 61.9079 80.4878 61.9079 86.216C64.9189 86.216 67.8809 86.216 70.8184 86.216C70.8184 80.4389 70.8184 74.7352 70.8184 68.9826C67.8319 68.9826 64.8699 68.9826 61.9079 68.9826Z" fill="#131313"/>
<path d="M72.2136 40.1951C75.5183 40.1951 78.823 40.1951 82.1277 40.1951C84.2329 40.1951 85.3834 41.3211 85.3834 43.4018C85.3834 48.8852 85.3834 54.344 85.3834 59.8274C85.3834 61.9081 84.2574 63.0586 82.1522 63.0586C75.5428 63.0586 68.9334 63.0586 62.3485 63.0586C60.1943 63.0586 59.0928 61.9326 59.0928 59.7539C59.0928 54.3195 59.0928 48.8607 59.0928 43.4263C59.0928 41.3456 60.2433 40.1951 62.324 40.1951C65.6287 40.1951 68.9334 40.1951 72.2136 40.1951ZM70.7938 60.2435C70.7938 54.4909 70.7938 48.7383 70.7938 43.0347C67.7829 43.0347 64.8209 43.0347 61.9079 43.0347C61.9079 48.8117 61.9079 54.5154 61.9079 60.2435C64.8454 60.2435 67.7584 60.2435 70.7938 60.2435ZM73.6824 42.9857C73.6824 48.8117 73.6824 54.5154 73.6824 60.2435C76.6688 60.2435 79.6063 60.2435 82.5683 60.2435C82.5683 54.4664 82.5683 48.7383 82.5683 42.9857C79.5818 42.9857 76.6688 42.9857 73.6824 42.9857Z" fill="#131313"/>
<path d="M26.2417 51.9205C26.2417 52.6794 25.6052 53.2913 24.8219 53.2669C24.0875 53.2424 23.5 52.6549 23.5 51.9205C23.5 51.1861 24.0875 50.5742 24.8219 50.5497C25.5563 50.5007 26.2417 51.1617 26.2417 51.9205Z" fill="#131313"/>
<path d="M18.6527 53.2668C17.9184 53.2668 17.3064 52.6793 17.2819 51.9449C17.2574 51.2106 17.9184 50.5251 18.6772 50.5251C19.4361 50.5251 20.0481 51.1861 20.0236 51.9694C19.9991 52.7038 19.4116 53.2668 18.6527 53.2668Z" fill="#131313"/>
<path d="M20.0236 77.1097C20.0481 77.893 19.4361 78.5295 18.6528 78.5295C17.9429 78.5295 17.3064 77.893 17.2819 77.1831C17.2575 76.4243 17.8939 75.7878 18.6528 75.7878C19.4361 75.8123 19.9991 76.3753 20.0236 77.1097Z" fill="#131313"/>
<path d="M24.8705 78.5295C24.1117 78.5295 23.4752 77.8686 23.4997 77.1097C23.5242 76.3753 24.1117 75.7878 24.8461 75.7878C25.5804 75.7878 26.1924 76.3753 26.2169 77.0852C26.2659 77.8441 25.6049 78.5295 24.8705 78.5295Z" fill="#131313"/>
</svg>
