<svg width="99" height="96" viewBox="0 0 99 96" fill="none" xmlns="http://www.w3.org/2000/svg">
<path d="M8.19889 92.6653C8.19889 86.5135 8.19889 80.5884 8.19889 74.469C7.16596 74.469 6.19759 74.469 5.19693 74.469C3.90577 74.4366 3.35703 73.8862 3.32475 72.6235C3.32475 72.3968 3.32475 72.1378 3.32475 71.9112C3.32475 49.3763 3.32475 26.8414 3.32475 4.30645C3.32475 2.07238 3.67982 1.71623 5.90707 1.71623C23.9511 1.71623 41.9951 1.71623 60.0391 1.71623C62.3955 1.71623 62.7183 2.07238 62.7183 4.46833C62.7183 11.8181 62.7183 19.1678 62.7183 26.5176C62.7183 26.9709 62.7183 27.3918 62.7183 27.9098C64.074 26.9061 65.2683 25.8376 66.6241 25.0606C67.9475 24.2835 69.4646 23.8302 71.0463 23.1827C70.7558 22.956 70.5298 22.7618 70.3039 22.6322C68.5285 21.6285 67.657 20.0744 67.657 18.067C67.6247 15.1854 67.6247 12.3361 67.657 9.45451C67.657 8.67744 67.4956 8.12702 66.8823 7.5766C65.3006 6.1196 64.4936 4.27407 64.3645 2.10476C64.3 0.712517 64.881 0.0649618 66.269 0.0325841C70.433 0.000206347 74.5647 0.000206347 78.7287 0.0325841C81.7307 0.0649618 84.0548 2.3314 84.0871 5.31016C84.1516 9.61639 84.1193 13.955 84.0871 18.2613C84.0871 20.2039 83.151 21.6285 81.4724 22.5999C81.2465 22.7294 81.0528 22.8913 80.73 23.1503C81.0528 23.3122 81.2142 23.4741 81.4402 23.5388C88.3156 25.4167 92.3505 30.6295 92.3828 37.785C92.4151 45.2967 92.2859 52.8083 92.4473 60.3199C92.5442 64.3348 89.5745 67.0545 85.4428 65.8889C85.0231 74.7928 84.6358 83.6319 84.2162 92.6653C84.7326 92.6653 85.1845 92.6653 85.6042 92.6653C89.2194 92.6653 92.867 92.6653 96.4822 92.6653C96.8696 92.6653 97.2892 92.6653 97.6766 92.7301C98.5481 92.9243 99 93.5071 98.9677 94.3813C98.9354 95.2555 98.419 95.8059 97.5474 95.9354C97.1601 96.0002 96.7405 95.9678 96.3531 95.9678C65.1069 95.9678 33.8608 95.9678 2.58233 95.9678C2.35637 95.9678 2.09814 95.9678 1.87219 95.9678C0.742419 95.9031 0 95.2555 0 94.3166C0 93.3776 0.71014 92.6653 1.83991 92.6329C3.48614 92.6005 5.13238 92.6329 6.77861 92.6329C7.23052 92.6653 7.65015 92.6653 8.19889 92.6653ZM48.0636 43.0626C47.4826 43.0626 46.9984 43.0626 46.5142 43.0626C35.1197 43.0626 23.7251 43.0626 12.2983 43.0626C10.3616 43.0626 9.8774 42.5446 9.8774 40.6343C9.8774 35.5833 9.84513 30.5324 9.90968 25.4815C9.90968 24.7368 10.3293 23.7978 10.8458 23.3122C15.494 19.0707 20.2067 14.894 24.9195 10.7496C25.4036 10.3287 26.2106 10.0373 26.8562 10.0049C30.9234 9.94017 34.9905 9.94017 39.0577 10.0049C39.7033 10.0049 40.5103 10.2963 40.9945 10.7172C45.7395 14.8616 50.42 19.0383 55.0681 23.2798C55.5846 23.7655 55.972 24.6397 56.0042 25.352C56.1011 29.1078 56.0365 32.8636 56.0365 36.6194C56.0365 37.6231 56.0365 38.6269 56.0365 39.6953C57.1986 39.6953 58.2315 39.6953 59.2967 39.6953C59.2967 28.1365 59.2967 16.6424 59.2967 5.11589C41.7046 5.11589 24.177 5.11589 6.64949 5.11589C6.64949 27.1651 6.64949 49.1172 6.64949 71.1341C24.2416 71.1341 41.7369 71.1341 59.2967 71.1341C59.2967 63.9786 59.2967 56.8879 59.2967 49.7C57.36 49.7 55.4555 49.5705 53.5833 49.7324C50.4522 49.9591 47.1275 47.5307 48.0636 43.0626ZM51.0978 92.6005C51.0978 86.5459 51.0978 80.556 51.0978 74.5338C39.5419 74.5338 28.1151 74.5338 16.5915 74.5338C16.5915 80.5884 16.5915 86.5783 16.5915 92.6005C28.1474 92.6005 39.5742 92.6005 51.0978 92.6005ZM82.5054 56.208C82.5054 55.6899 82.5054 55.2366 82.5054 54.7833C82.5054 49.5382 82.5054 44.293 82.5054 39.0478C82.5054 38.5945 82.3763 38.0441 82.6022 37.7527C82.9896 37.2346 83.5383 36.6194 84.1193 36.4899C84.9263 36.328 85.5719 36.9108 85.7333 37.785C85.7978 38.1736 85.7656 38.5945 85.7656 38.983C85.7656 44.2606 85.7656 49.5705 85.7656 54.8481C85.7656 55.269 85.7656 55.7223 85.7656 56.208C86.9276 56.208 87.9605 56.208 89.0257 56.208C89.058 55.9813 89.0903 55.8518 89.0903 55.6899C89.0903 49.441 89.1549 43.1597 89.058 36.9108C89.0257 33.9645 87.7991 31.439 85.6364 29.3992C84.313 28.1365 82.7636 27.2623 80.956 26.8737C79.6971 30.1763 78.2445 31.4714 75.8559 31.4714C73.4672 31.4714 71.9501 30.0791 70.7881 26.809C66.7855 28.0393 64.0095 30.5648 63.0734 34.6768C62.6214 36.6194 62.7828 38.6916 62.7183 40.699C62.6537 42.5769 62.2018 43.0626 60.3296 43.0626C59.4904 43.0626 58.6834 43.0626 57.8119 43.0626C57.8119 44.2282 57.8119 45.2319 57.8119 46.268C60.5556 46.268 63.2025 46.268 65.9785 46.268C65.9785 44.2282 65.9139 42.2532 66.0108 40.2781C66.043 39.6629 66.269 38.8859 66.6886 38.465C67.0114 38.1412 67.9798 38.0441 68.3026 38.3031C68.7868 38.6916 69.2387 39.4363 69.2709 40.0515C69.3678 43.9692 69.3032 47.8869 69.3032 51.8046C69.3032 53.2616 69.3032 54.6862 69.3032 56.1756C73.7255 56.208 78.0186 56.208 82.5054 56.208ZM13.2344 39.6629C15.4294 39.6629 17.5598 39.6629 19.8194 39.6629C19.8194 37.4289 19.7871 35.2596 19.8194 33.0903C19.8839 29.4963 22.5631 26.7118 26.1138 26.5176C29.4385 26.3233 32.5051 28.784 32.9247 32.2484C33.1506 34.2559 33.0215 36.2633 33.0538 38.3031C33.0538 38.7564 33.0538 39.242 33.0538 39.6953C35.3456 39.6953 37.4438 39.6953 39.6387 39.6953C39.6387 35.1301 39.6387 30.6619 39.6065 26.1614C39.6065 25.8376 39.4128 25.4491 39.1868 25.2548C34.9583 21.4666 30.7297 17.6785 26.4366 13.8579C22.1435 17.6461 17.8826 21.4019 13.6541 25.1901C13.4281 25.3844 13.2344 25.8053 13.2344 26.0967C13.2022 30.5972 13.2344 35.0653 13.2344 39.6629ZM82.4408 59.7048C77.9863 59.7048 73.7577 59.7048 69.4323 59.7048C69.4323 60.1257 69.4323 60.4818 69.4323 60.838C69.8842 70.5189 70.3362 80.1999 70.7558 89.8808C70.8849 92.8596 70.8526 92.8596 73.8223 92.6653C73.9191 92.6653 74.0482 92.6005 74.2419 92.5034C74.2419 92.0501 74.2419 91.5645 74.2419 91.0788C74.2419 83.1139 74.2419 75.1813 74.2419 67.2164C74.2419 66.7307 74.1451 66.1156 74.371 65.7918C74.7584 65.2737 75.4363 64.6262 75.9527 64.6586C76.5015 64.6909 77.0502 65.4032 77.4698 65.9213C77.6635 66.1803 77.5344 66.6984 77.5344 67.1193C77.5344 75.1489 77.5344 83.1786 77.5344 91.2407C77.5344 91.694 77.5344 92.1796 77.5344 92.6329C78.7287 92.6329 79.7617 92.6329 80.9237 92.6329C81.4402 81.6245 81.9243 70.7132 82.4408 59.7048ZM67.5279 92.6005C66.9468 78.2896 66.3335 64.0434 65.7525 49.7972C64.8164 49.7972 63.8158 49.7972 62.7183 49.7972C62.7183 50.38 62.7183 50.8656 62.7183 51.3513C62.7183 58.0211 62.7183 64.6586 62.7183 71.3284C62.7183 74.2424 62.6214 74.3395 59.7163 74.5338C59.6518 74.5338 59.5872 74.5985 59.4904 74.6633C59.4904 80.6532 59.4904 86.643 59.4904 92.6329C62.2018 92.6005 64.8164 92.6005 67.5279 92.6005ZM52.744 39.6953C52.744 35.2596 52.744 30.9209 52.744 26.5823C49.4516 26.5823 46.2237 26.5823 42.9312 26.5823C42.9312 28.8488 42.9312 31.0181 42.9312 33.1874C42.9312 35.3567 42.9312 37.4936 42.9312 39.6953C46.2882 39.6953 49.4516 39.6953 52.744 39.6953ZM80.8591 10.0373C77.4698 10.0373 74.2742 10.0373 70.9817 10.0373C70.9817 12.8542 70.9495 15.6063 70.9817 18.326C70.9817 19.2326 71.595 19.6859 72.402 19.8801C73.9514 20.2363 74.1774 20.5277 74.2096 22.0818C74.2096 23.5064 74.1774 24.8987 74.2419 26.3233C74.2742 27.4889 74.9521 28.1688 75.9204 28.1688C76.8888 28.1688 77.5344 27.4565 77.5344 26.3233C77.5667 24.8663 77.5667 23.4093 77.5344 21.9523C77.5344 20.7543 78.0186 20.042 79.2775 19.9125C80.2136 19.8154 80.8269 19.265 80.8269 18.3584C80.8914 15.5739 80.8591 12.8218 80.8591 10.0373ZM30.7943 13.3075C33.7317 15.9301 36.4754 18.1641 38.9609 20.6572C40.8976 22.6322 42.9958 23.636 45.7718 23.2474C47.0952 23.0532 48.4186 23.215 49.7744 23.215C46.3205 19.8154 42.8021 16.6747 39.2837 13.5665C39.1223 13.437 38.864 13.3075 38.6381 13.3075C36.1526 13.2751 33.6671 13.3075 30.7943 13.3075ZM29.6645 39.6953C29.6645 37.2994 29.729 35.0653 29.6322 32.7989C29.5677 31.2123 28.2119 29.9496 26.6625 29.8201C25.0809 29.6906 23.3701 30.6943 23.241 32.2484C23.0473 34.7091 23.1764 37.2022 23.1764 39.6953C25.4037 39.6953 27.4695 39.6953 29.6645 39.6953ZM80.7946 6.54051C80.956 4.17694 80.2136 3.36749 78.0186 3.33511C76.2432 3.33511 74.4679 3.33511 72.6925 3.33511C71.1754 3.33511 69.6583 3.33511 67.9798 3.33511C68.7545 5.21302 69.9811 6.37862 71.6919 6.47575C74.6938 6.67002 77.7281 6.54051 80.7946 6.54051ZM13.1376 92.6005C13.1376 86.5135 13.1376 80.556 13.1376 74.5338C12.5888 74.5338 12.1047 74.5338 11.5882 74.5338C11.5882 80.5884 11.5882 86.5459 11.5882 92.6005C12.1369 92.6005 12.5888 92.6005 13.1376 92.6005ZM55.972 92.6329C55.972 86.4812 55.972 80.4913 55.972 74.5338C55.4232 74.5338 55.0036 74.5338 54.5517 74.5338C54.5517 80.5884 54.5517 86.5783 54.5517 92.6329C55.0681 92.6329 55.52 92.6329 55.972 92.6329ZM85.8301 59.6724C85.7978 60.8056 85.475 61.9712 86.6048 62.5864C87.0567 62.8454 87.9283 62.813 88.3802 62.5216C89.4454 61.8417 89.1549 60.7408 89.0257 59.64C87.9605 59.6724 86.9599 59.6724 85.8301 59.6724ZM54.3257 46.3004C54.3257 45.1348 54.3257 44.1311 54.3257 43.0626C53.196 43.1274 52.0339 42.7065 51.4206 43.9044C51.1946 44.3577 51.2269 45.1348 51.4529 45.5881C52.0985 46.6889 53.2605 46.3004 54.3257 46.3004Z" fill="#131313"/>
<path d="M93.3187 10.8141C93.2864 11.7855 92.4794 12.5949 91.511 12.5302C90.6072 12.4978 89.8648 11.7207 89.8325 10.7818C89.8325 9.81042 90.6072 9.00098 91.5756 9.00098C92.544 9.00098 93.3187 9.8428 93.3187 10.8141Z" fill="#131313"/>
<path d="M33.0215 59.6074C37.6374 59.6074 42.2856 59.6074 46.9015 59.6074C47.2243 59.6074 47.5471 59.6074 47.8699 59.6074C48.8705 59.6722 49.4515 60.2226 49.4838 61.1939C49.5161 62.1653 48.9028 62.7481 47.9021 62.8452C47.5471 62.8776 47.192 62.8776 46.8047 62.8776C37.5728 62.8776 28.3733 62.8776 19.1415 62.8776C17.2693 62.8776 16.4623 62.3595 16.4946 61.1939C16.5269 60.0607 17.2693 59.6074 19.1092 59.6074C23.7574 59.6074 28.3733 59.6074 33.0215 59.6074Z" fill="#131313"/>
<path d="M32.9895 57.9238C29.8584 57.9238 26.695 57.9238 23.564 57.9238C22.2405 57.9238 21.4658 57.3086 21.4658 56.2725C21.4658 55.2364 22.2082 54.5889 23.5317 54.5889C29.8584 54.5889 36.1851 54.5889 42.4795 54.5889C43.803 54.5889 44.5454 55.2364 44.5131 56.3049C44.4808 57.3086 43.7707 57.8914 42.5118 57.8914C39.3484 57.9562 36.1528 57.9561 32.9895 57.9238Z" fill="#131313"/>
<path d="M38.7347 52.9699C35.8296 52.9699 32.9568 52.9699 30.0516 52.9699C28.7605 52.9699 27.9535 52.2575 28.0503 51.2215C28.1794 50.2501 28.7282 49.6997 29.7611 49.6997C35.765 49.6997 41.7367 49.6997 47.7406 49.6997C48.8058 49.6997 49.4191 50.2501 49.4837 51.3186C49.5482 52.2575 48.8058 52.9699 47.676 52.9699C44.7063 52.9699 41.7044 52.9699 38.7347 52.9699Z" fill="#131313"/>
<path d="M21.4336 49.6672C22.531 49.6672 23.5963 49.6348 24.6937 49.6672C25.6944 49.6996 26.2754 50.1853 26.3723 51.2214C26.4368 52.1927 25.8235 52.905 24.7583 52.9374C22.5956 53.0021 20.4006 52.9698 18.2379 52.9374C17.1727 52.905 16.4949 52.2251 16.5594 51.2861C16.624 50.2176 17.2696 49.6996 18.3025 49.6996C19.3354 49.6672 20.3684 49.6672 21.4336 49.6672Z" fill="#131313"/>
<path d="M30.5684 82.7577C29.8583 81.7216 28.0829 80.8798 29.5032 79.358C30.988 77.7715 31.9241 79.5523 33.0216 80.3293C34.0868 79.5846 34.8615 77.9334 36.4755 79.2609C37.347 80.0056 37.1211 80.7826 35.4748 82.7577C36.185 83.7938 37.9926 84.7327 36.4432 86.2221C34.9584 87.6791 34.0545 85.9307 32.9893 85.1536C31.9564 85.9307 31.1171 87.6143 29.5032 86.1897C28.6317 85.445 28.8899 84.7651 30.5684 82.7577Z" fill="#131313"/>
<path d="M26.3398 24.8012C24.4999 24.7688 23.0796 23.3118 23.1442 21.4339C23.1765 19.6531 24.6613 18.2285 26.4367 18.2285C28.212 18.2285 29.6969 19.7503 29.6969 21.5634C29.6646 23.409 28.1797 24.8336 26.3398 24.8012Z" fill="#131313"/>
</svg>
