<svg width="95" height="96" viewBox="0 0 95 96" fill="none" xmlns="http://www.w3.org/2000/svg">
<path d="M36.8647 81.0875C29.7258 73.9751 22.6662 66.942 15.3951 59.6709C15.2629 59.9088 15.1043 60.2526 14.8663 60.517C11.0061 64.6152 7.11933 68.7135 3.2326 72.8117C2.94176 73.129 2.62448 73.4198 2.25431 73.6314C1.5933 74.028 0.879415 73.8693 0.482811 73.2876C0.191968 72.8382 0.165527 72.1507 0.165527 71.5955C0.165527 71.3311 0.509251 71.0667 0.720774 70.8287C5.16274 66.1223 9.63116 61.4424 14.0467 56.736C14.7606 55.9957 15.5009 55.5991 16.7172 56.313C17.2195 54.7794 17.7219 53.3252 18.1449 51.871C18.5415 50.5225 18.8853 49.1476 19.229 47.7728C19.2819 47.5348 19.3083 47.2439 19.2554 47.006C18.33 42.9342 20.2602 40.1315 24.4642 39.5498C24.8608 36.2712 26.6323 34.3146 30.0695 33.9709C30.4397 30.613 32.2905 28.7093 35.7013 28.3656C35.9921 25.5365 37.367 23.6592 40.1433 22.9189C40.4077 22.8395 40.6721 22.4165 40.7778 22.0992C41.6768 19.323 45.5371 15.8329 48.2076 15.3834C51.6184 14.8281 54.9498 17.3135 55.3729 20.7508C55.4258 21.2531 55.4258 21.6497 56.1396 21.7291C59.1803 22.0463 60.8989 23.765 61.3484 26.7527C61.3748 26.9114 61.4277 27.07 61.4541 27.2022C65.5259 27.969 67.271 30.1371 66.9008 33.9974C70.2323 34.9756 71.7394 37.2495 71.3957 40.7396C73.7489 41.4006 75.3882 42.7755 75.8112 45.208C75.9699 46.1335 75.679 47.1382 75.6261 48.1165C75.5997 48.4338 75.5468 48.8568 75.7055 49.0948C76.8688 50.7341 78.0851 52.3469 79.3013 54.0127C80.5176 53.2459 81.3372 53.8011 82.2098 54.6208C86.0436 58.3224 89.9303 61.9976 93.8171 65.6728C94.0286 65.8844 94.2666 66.0694 94.4516 66.281C95.1391 67.0477 95.1391 67.8938 94.4516 68.5548C93.8171 69.1894 92.9974 69.2158 92.2307 68.5284C90.9086 67.3121 89.6395 66.0694 88.3439 64.8532C85.7792 62.3942 83.1881 59.9353 80.7027 57.5821C73.9604 64.3244 67.2446 71.0138 60.5023 77.7825C60.6081 77.8883 60.8196 78.1527 61.0575 78.3906C65.2351 82.7004 69.4127 87.0102 73.5638 91.3464C73.8811 91.6637 74.1984 92.0603 74.3306 92.4569C74.5421 93.1708 74.2777 93.8582 73.6167 94.1226C73.1143 94.3077 72.4533 94.1755 71.8716 94.0697C71.6601 94.0433 71.475 93.726 71.2899 93.5409C66.61 88.7023 61.9565 83.8638 57.2501 79.0252C56.5627 78.3113 56.219 77.5974 56.8271 76.434C55.6108 75.9846 54.4739 75.5086 53.2841 75.1649C51.6712 74.689 50.0319 74.3188 48.4191 73.9222C48.2076 73.8693 47.8903 73.8958 47.7052 74.0015C45.1934 75.8788 42.708 77.7825 40.1961 79.7126C40.8836 80.876 40.487 81.6957 39.7202 82.5153C35.9393 86.64 32.1583 90.8176 28.4038 94.9687C28.3244 95.0745 28.2187 95.1802 28.1394 95.2595C27.3462 96.0527 26.5001 96.1585 25.7862 95.4975C25.0723 94.8365 25.0459 93.964 25.7862 93.1443C27.1611 91.5843 28.5624 90.0508 29.9637 88.5173C32.3169 86.0848 34.5908 83.5994 36.8647 81.0875ZM38.0809 77.5445C39.0328 76.7778 40.0111 75.9846 40.9894 75.2178C45.6164 71.6483 50.4814 68.3697 54.8176 64.5095C60.7667 59.2478 66.3192 53.5632 72.0303 48.0107C73.1143 46.9795 73.0614 45.5253 72.0831 44.5735C71.1577 43.6745 69.73 43.6745 68.6988 44.6528C67.4032 45.8955 66.1605 47.1646 64.9178 48.4338C64.2833 49.0683 63.5694 49.2534 62.8026 48.6982C61.9301 48.09 61.8772 47.0589 62.6704 46.2392C64.1775 44.6792 65.7375 43.1457 67.271 41.6122C68.5137 40.343 68.6459 38.8888 67.6147 37.8841C66.5836 36.8793 65.1822 37.0115 63.966 38.2278C62.8026 39.3912 61.6657 40.6074 60.423 41.6915C60.0264 42.0352 59.2596 42.2996 58.7572 42.1674C57.5145 41.903 57.2237 40.4752 58.1491 39.5234C59.7091 37.9105 61.3219 36.3505 62.9084 34.7641C64.0982 33.5743 64.1775 32.1994 63.1463 31.1947C62.1416 30.1899 60.7138 30.2693 59.5504 31.4326C58.0169 32.9397 56.5098 34.4733 55.0027 35.9804C54.1037 36.8793 53.2312 36.9587 52.4909 36.2448C51.7506 35.5309 51.8299 34.6584 52.7288 33.7594C54.2359 32.2259 55.7695 30.7452 57.2766 29.2117C58.44 28.0218 58.5457 26.6469 57.541 25.6158C56.5363 24.5846 55.1614 24.6639 53.9715 25.8009C52.6231 27.0964 51.2746 28.392 49.8469 29.7669C50.4814 31.4591 50.3228 33.2041 49.2387 34.817C48.1547 36.4299 46.5683 37.1702 44.6646 37.3024C44.2944 40.7396 42.3642 42.564 39.0063 42.9342C38.927 44.7321 38.266 46.1863 36.8647 47.2704C35.4898 48.3544 33.9298 48.6453 32.2112 48.3809C31.5766 50.8398 30.1224 52.3998 27.6634 52.8493C25.2309 53.2988 23.3537 52.1618 21.7408 50.2317C21.0534 53.2459 20.551 56.1014 18.8853 58.4282C25.3631 64.8003 31.6824 71.146 38.0809 77.5445ZM59.1274 74.1337C65.0765 68.1847 71.0784 62.2092 77.0804 56.2072C75.8905 54.6472 74.6214 52.9815 73.2994 51.2629C66.2398 58.2696 59.524 65.5406 51.1953 71.4368C52.8082 71.8599 54.1566 72.0978 55.3993 72.5209C56.6949 72.9704 57.9376 73.6049 59.1274 74.1337ZM52.3322 21.5704C52.3322 20.4335 51.8034 19.4287 50.6401 18.8206C49.4502 18.2125 48.234 18.2918 47.2293 19.1643C46.251 20.0104 45.352 20.9094 44.5059 21.8877C43.6598 22.866 43.5276 24.0294 44.1093 25.2192C44.691 26.4354 45.7222 27.0436 47.0442 27.0171C48.9214 26.9907 52.2529 23.6063 52.3322 21.5704ZM30.2017 37.0115C29.1177 37.1966 28.4038 37.6726 28.0072 38.5451C27.5577 39.4969 27.7428 40.4223 28.4566 41.1891C29.5143 42.2996 30.6248 43.4101 31.7352 44.4677C32.8193 45.4989 34.1942 45.5253 35.1725 44.5735C36.1243 43.6216 36.0979 42.1938 35.0932 41.1362C34.0356 40.0522 33.0044 38.9417 31.8674 37.937C31.418 37.5404 30.757 37.3288 30.2017 37.0115ZM41.4653 37.038C41.3595 36.8 41.2802 36.2712 40.9629 35.9275C39.7202 34.6055 38.4775 33.2835 37.1291 32.0672C36.2565 31.274 34.9081 31.4326 34.062 32.2787C33.2423 33.0984 33.0573 34.4733 33.8505 35.3458C35.0667 36.6943 36.3623 37.9634 37.6843 39.2061C38.3982 39.8671 39.3236 39.8407 40.1961 39.4176C41.0422 38.9681 41.4388 38.2278 41.4653 37.038ZM40.6985 26.1446C39.1385 26.4883 38.3189 28.3656 39.4558 29.714C40.6456 31.1154 41.9676 32.4374 43.369 33.6007C44.7703 34.7641 46.8591 33.7594 47.0706 31.935C47.2028 30.9038 46.7269 30.3486 45.7222 30.0577C44.8761 29.8198 43.9771 29.5289 43.3161 29.0001C42.3642 28.2069 41.5975 27.1493 40.6985 26.1446ZM29.1441 47.1646C29.0648 46.9531 29.0383 46.4772 28.7739 46.1863C27.8221 45.1552 26.8702 44.0975 25.7862 43.1986C24.9137 42.4583 23.6445 42.6962 22.8249 43.5159C21.9788 44.3884 21.8466 45.6311 22.6398 46.5565C23.4859 47.5348 24.3848 48.4338 25.3631 49.2799C26.0506 49.888 26.9231 49.9144 27.7692 49.5178C28.6682 49.0948 29.1177 48.3544 29.1441 47.1646Z" fill="#131313"/>
<path d="M22.4018 29.6085C21.8466 29.4498 21.5028 29.3705 21.1591 29.2383C14.9456 26.8587 8.75861 24.479 2.54514 22.0994C1.17025 21.5706 0.879403 20.9625 1.27601 19.4818C1.91057 17.1551 2.57158 14.8548 3.15327 12.528C3.25903 12.0521 3.25903 11.4704 3.07395 11.0209C2.20142 8.53554 1.22313 6.10303 0.271276 3.64408C-0.046008 2.85087 -0.20465 2.11054 0.482798 1.44954C1.19669 0.762089 1.96345 1.00005 2.75666 1.39666C7.72744 3.80272 12.6982 6.20879 17.6954 8.61486C19.0439 9.27587 19.2819 9.91043 18.6737 11.3118C17.907 13.0568 17.1931 14.7754 16.3999 16.4676C16.109 17.1022 16.1355 17.5517 16.5849 18.1334C18.8324 20.9625 21.0269 23.8709 23.2479 26.7265C23.6974 27.3082 23.9882 27.9692 23.5387 28.6302C23.2479 29.0532 22.7455 29.3176 22.4018 29.6085ZM17.1402 24.294C17.1666 24.2411 17.1931 24.1618 17.2459 24.1089C15.9504 22.4167 14.6548 20.6981 13.3063 19.0323C12.6189 18.1862 12.5396 17.393 13.0155 16.3883C13.8352 14.6432 14.5755 12.8453 15.3687 10.9945C11.7728 9.24943 8.22981 7.55725 4.52816 5.75931C4.76613 6.39387 4.84545 6.79048 5.03053 7.10776C6.74915 10.122 6.77559 13.189 5.45358 16.3354C5.05697 17.3137 4.89833 18.3978 4.60749 19.4554C8.86437 21.1211 12.9891 22.7075 17.1402 24.294Z" fill="#131313"/>
<path d="M72.6646 29.6086C72.3209 29.3442 71.6863 29.1062 71.5277 28.7096C71.3426 28.2072 71.3426 27.414 71.607 26.991C72.4266 25.7218 73.4314 24.5585 74.3568 23.3686C75.7317 21.5971 77.0801 19.7992 78.4815 18.0541C78.8516 17.5782 78.931 17.2345 78.6666 16.6528C77.8469 14.8549 77.0801 13.0305 76.2869 11.2325C75.7317 9.93697 75.9697 9.27597 77.2388 8.66784C82.2889 6.20889 87.3654 3.77638 92.442 1.31744C93.1558 0.973712 93.8169 0.867951 94.4514 1.4232C95.1124 2.00488 95.086 2.71877 94.7951 3.51198C93.8433 5.99737 92.865 8.48276 91.9396 10.9946C91.7545 11.497 91.7281 12.158 91.8603 12.6868C92.442 15.0135 93.103 17.3138 93.7375 19.6406C94.1077 20.989 93.7904 21.6236 92.4948 22.126C86.2285 24.532 79.9621 26.9381 73.6958 29.3442C73.4578 29.3706 73.167 29.4499 72.6646 29.6086ZM90.5118 5.75941C86.7573 7.58379 83.2407 9.27597 79.6449 11.021C80.253 12.4224 80.8082 13.7444 81.3899 15.0664C82.7384 18.1599 82.7648 17.6047 80.7553 20.2223C79.7506 21.5443 78.7459 22.8398 77.7147 24.1619C77.7676 24.2147 77.794 24.2412 77.8469 24.2941C82.0509 22.6812 86.202 21.0948 90.4325 19.4819C89.7979 17.1816 89.1369 14.9606 88.6346 12.7396C88.4759 12.0522 88.5288 11.2325 88.7403 10.5715C89.2162 9.01156 89.8508 7.53091 90.5118 5.75941Z" fill="#131313"/>
<path d="M26.1561 13.6385C25.1778 12.4751 25.0721 11.7083 25.7595 10.9944C26.447 10.2541 27.2931 10.3599 28.43 11.2853C29.9371 10.3599 30.5717 10.2805 31.2062 10.968C31.8672 11.6554 31.7879 12.3429 30.8625 13.6649C31.8408 14.9869 31.9201 15.7272 31.1533 16.4147C30.4395 17.0757 29.6991 16.9699 28.5622 16.0181C26.87 16.9964 26.3148 17.0493 25.6538 16.2825C25.0456 15.5686 25.1778 14.9076 26.1561 13.6385Z" fill="#131313"/>
<path d="M66.5307 15.9915C65.1558 16.9962 64.4419 17.0755 63.728 16.3352C63.0406 15.6213 63.1728 14.8545 64.0453 13.8498C63.8073 13.1359 63.49 12.5013 63.3843 11.8403C63.3314 11.5759 63.6223 11.1529 63.8602 10.9149C64.5212 10.2539 65.288 10.4126 66.4778 11.3115C67.8791 10.3597 68.593 10.3068 69.254 11.0207C69.915 11.7346 69.8093 12.4485 68.8839 13.6383C69.8622 15.1718 69.9415 15.8064 69.1747 16.4674C68.4608 17.102 67.6941 16.9962 66.5307 15.9915Z" fill="#131313"/>
<path d="M49.0801 4.1992C49.0801 4.75445 49.1065 5.30969 49.0801 5.86494C49.0008 6.76391 48.3662 7.31916 47.4937 7.29272C46.6212 7.29272 45.9866 6.71103 45.9337 5.8385C45.8808 4.72801 45.8808 3.59107 45.9337 2.48058C45.9601 1.58161 46.6212 0.999925 47.4672 0.973485C48.3398 0.947045 49.0008 1.55517 49.0801 2.50702C49.1065 3.08871 49.0801 3.64396 49.0801 4.1992Z" fill="#131313"/>
<path d="M42.8664 7.53073C42.602 7.87445 42.3376 8.45614 41.9146 8.64122C41.4915 8.85274 40.7248 8.87918 40.3811 8.61478C39.3763 7.82157 38.4774 6.89616 37.6313 5.94431C37.1289 5.36263 37.2347 4.64874 37.737 4.04061C38.2394 3.43248 39.0326 3.2474 39.5878 3.69689C40.6719 4.56942 41.5973 5.65347 42.5756 6.6582C42.7342 6.81684 42.7342 7.08124 42.8664 7.53073Z" fill="#131313"/>
<path d="M56.2191 3.40625C56.5892 3.67065 57.1973 3.90862 57.3824 4.30522C57.5939 4.78115 57.6204 5.57435 57.356 5.91808C56.5628 6.92281 55.6374 7.79534 54.6591 8.61499C54.0245 9.1438 53.2842 8.95871 52.7025 8.35059C52.1737 7.79534 52.015 7.05501 52.5439 6.47333C53.3899 5.52147 54.3153 4.6225 55.2408 3.74997C55.3994 3.59133 55.7431 3.56489 56.2191 3.40625Z" fill="#131313"/>
</svg>
