<svg width="336" height="380" viewBox="0 0 336 380" fill="none" xmlns="http://www.w3.org/2000/svg">
<mask id="path-1-inside-1_1016_3" fill="white">
<path d="M336 190V368C336 374.627 330.627 380 324 380H12C5.37258 380 0 374.627 0 368V12C0 5.37259 5.37258 0 12 0H168"/>
</mask>
<path d="M339 190C339 188.343 337.657 187 336 187C334.343 187 333 188.343 333 190H339ZM168 3C169.657 3 171 1.65685 171 0C171 -1.65685 169.657 -3 168 -3V3ZM333 190V368H339V190H333ZM324 377H12V383H324V377ZM3 368V12H-3V368H3ZM12 3H168V-3H12V3ZM3 12C3 7.02944 7.02944 3 12 3V-3C3.71573 -3 -3 3.71573 -3 12H3ZM12 377C7.02943 377 3 372.971 3 368H-3C-3 376.284 3.71572 383 12 383V377ZM333 368C333 372.971 328.971 377 324 377V383C332.284 383 339 376.284 339 368H333Z" fill="#FFCC18" mask="url(#path-1-inside-1_1016_3)"/>
<mask id="path-3-inside-2_1016_3" fill="white">
<path d="M16 190V351C16 357.627 21.3726 363 28 363H308C314.627 363 320 357.627 320 351V29C320 22.3726 314.627 17 308 17H168"/>
</mask>
<path d="M13 190C13 188.343 14.3431 187 16 187C17.6569 187 19 188.343 19 190H13ZM168 20C166.343 20 165 18.6569 165 17C165 15.3431 166.343 14 168 14V20ZM19 190V351H13V190H19ZM28 360H308V366H28V360ZM317 351V29H323V351H317ZM308 20H168V14H308V20ZM317 29C317 24.0294 312.971 20 308 20V14C316.284 14 323 20.7157 323 29H317ZM308 360C312.971 360 317 355.971 317 351H323C323 359.284 316.284 366 308 366V360ZM19 351C19 355.971 23.0294 360 28 360V366C19.7157 366 13 359.284 13 351H19Z" fill="#131313" mask="url(#path-3-inside-2_1016_3)"/>
</svg>
