<svg width="229" height="276" viewBox="0 0 229 276" fill="none" xmlns="http://www.w3.org/2000/svg">
<path fill-rule="evenodd" clip-rule="evenodd" d="M98.471 82.4081C98.9938 80.8409 108.664 67.5194 110.494 64.3849H115.199V42.7049C114.937 42.7049 114.937 42.7049 114.676 42.7049C107.358 42.7049 106.312 41.6601 103.176 46.8842C101.085 50.5411 99.7779 53.6755 97.6869 57.0712C94.5505 61.7729 87.4935 70.1315 83.0502 74.0495C74.9477 80.8409 73.9022 83.1917 62.9246 85.2814C57.6972 86.3262 40.4467 90.2442 36.5262 89.983H35.4807C42.5377 87.1098 50.1174 82.9305 57.1745 79.796C61.095 77.9676 64.4928 76.4004 67.3679 74.3107C72.334 70.1315 78.6069 63.3401 82.5274 58.116C91.9368 45.8394 95.0732 41.9213 97.9483 25.9878C68.152 31.2119 40.4467 46.623 26.5941 72.7435C25.0259 75.6168 22.9349 82.9305 21.8894 84.7589V83.1917L21.3667 89.4606L17.1847 93.1175C15.6165 94.6847 16.1393 98.0804 16.4006 100.954C17.9688 118.454 21.1053 113.23 13.7869 119.76C12.4801 120.805 11.1732 122.895 10.1277 124.723C7.25265 130.731 9.34361 133.866 12.2187 137C0.718376 121.328 36.0034 110.357 48.8106 107.223C68.6748 102.26 92.4595 100.954 113.369 100.954C113.892 100.954 114.415 100.954 114.937 100.954V91.5503H106.051L98.471 82.4081Z" fill="#FFC629"/>
<path fill-rule="evenodd" clip-rule="evenodd" d="M21.6284 83.4529V85.0201C22.9353 83.1917 25.0262 75.8779 26.3331 73.0047C40.1857 46.623 67.891 31.4731 97.6873 26.249L100.301 14.4947L100.562 14.2335C100.562 13.9723 100.562 13.9723 100.824 13.9723C101.085 19.1964 100.301 25.9878 100.04 31.2119C99.7783 37.4808 99.5169 40.354 96.9032 45.5781C92.4599 54.4591 86.4484 61.5117 80.1755 68.8254C75.9935 73.5271 69.4593 80.8408 63.4477 82.6693C54.8225 85.2813 45.1518 88.1546 36.5265 90.5054C40.4471 90.7666 57.9589 86.5873 62.925 85.8037C73.9026 83.7141 74.948 81.3632 83.0505 74.5719C87.4938 70.915 94.5508 62.2953 97.6873 57.5936C99.7783 54.1979 101.085 51.0634 103.176 47.4066C106.313 42.1825 107.358 43.2273 114.676 43.2273C114.938 43.2273 114.938 43.2273 115.199 43.2273V0.912079C112.585 0.912079 109.71 1.17328 106.313 1.69569L80.9596 9.53185C62.4023 16.8456 40.7085 30.167 31.0378 48.1902C25.8103 58.3772 22.4125 70.6538 21.6284 83.4529Z" fill="white"/>
<path fill-rule="evenodd" clip-rule="evenodd" d="M53.5156 110.096C63.4477 111.402 72.8571 112.708 83.0505 113.491C93.5053 114.275 103.96 114.536 114.676 114.536H115.199V104.611C101.869 104.611 88.2779 104.872 82.5278 105.394C77.5617 105.917 72.5957 106.439 67.6296 107.223L54.5611 109.573C53.2543 110.096 54.0384 109.835 53.5156 110.096Z" fill="#FFC629"/>
<path fill-rule="evenodd" clip-rule="evenodd" d="M58.4813 135.955C60.3108 137.261 65.7996 137.784 67.6292 138.567C68.4133 138.828 68.152 138.828 68.6747 139.09L52.4697 143.008C53.7766 148.232 57.4358 154.501 61.6177 156.068C69.1975 158.941 81.2205 156.59 88.0161 151.105C89.323 150.06 92.4594 146.665 93.5049 145.359L98.7323 139.351C100.562 137.522 102.13 135.955 105.528 135.171C103.96 134.127 100.301 134.649 98.2096 134.91C97.1641 135.433 95.5959 137.522 93.7663 138.567C89.323 141.179 79.6523 145.358 74.9476 145.881L89.0616 137C84.0956 136.739 79.3909 136.216 74.4249 135.955C69.4588 136.216 63.7087 136.216 58.4813 135.955Z" fill="white"/>
<path fill-rule="evenodd" clip-rule="evenodd" d="M98.4712 82.4081L106.312 91.8115H115.199V64.6461H110.494C108.403 67.5194 98.7326 80.8408 98.4712 82.4081Z" fill="white"/>
<path fill-rule="evenodd" clip-rule="evenodd" d="M97.9486 26.249C95.0735 41.9213 91.937 46.1006 82.5277 58.3772C78.6071 63.6013 72.0729 70.3927 67.3682 74.5719C64.7545 76.9228 61.0953 78.49 57.1747 80.0573C49.8563 83.1917 42.538 87.371 35.481 90.2442H36.5264C45.1517 87.8934 54.8224 85.2814 63.4476 82.4081C69.4592 80.5797 75.9934 73.0047 80.1754 68.5642C86.4483 61.5117 92.7211 54.1979 96.9031 45.317C99.5168 40.0929 99.7782 37.4808 100.04 30.9507C100.301 25.7266 101.085 18.9353 100.824 13.7112L100.562 13.9724C100.562 14.2336 100.562 14.2336 100.301 14.2336L97.9486 26.249Z" fill="#343D47"/>
<path fill-rule="evenodd" clip-rule="evenodd" d="M102.653 204.652C102.914 209.093 105.005 210.399 109.448 210.66C111.278 210.66 113.108 210.921 114.937 210.921V201.779C111.801 201.779 109.448 202.824 102.653 204.652Z" fill="#FCD7B8"/>
<path fill-rule="evenodd" clip-rule="evenodd" d="M115.199 210.66C113.369 210.66 111.539 210.399 109.71 210.399C105.266 210.399 103.176 208.831 102.914 204.391L83.5727 210.921C83.8341 216.406 88.8001 219.28 94.2889 220.063C101.085 221.108 105.266 217.451 111.017 216.668C112.846 216.406 114.414 216.406 115.721 216.406V210.66H115.199ZM52.731 143.008L68.936 139.09C68.4132 138.567 68.6746 138.828 67.8905 138.567C66.0609 137.784 60.3107 137.261 58.7425 135.955L58.2198 135.433C61.3562 133.865 61.879 131.776 64.2313 129.686C66.5836 127.597 68.936 127.335 71.811 125.768C70.5042 123.156 67.1064 121.328 64.2313 120.544C59.788 119.499 50.9014 122.895 50.3786 125.768C49.5945 128.903 51.6855 140.134 52.731 143.008ZM30.2531 145.359C29.7304 143.008 29.469 135.694 29.469 133.082C29.7304 125.768 32.6054 129.686 36.7874 129.425C36.7874 127.335 37.0487 127.335 36.526 125.507C36.526 125.246 36.0033 124.201 36.0033 123.94C33.6509 119.238 28.1621 123.94 26.3325 130.731C23.9802 139.612 28.4235 150.583 29.469 160.77C29.9917 165.21 31.5599 171.218 35.7419 171.218C35.7419 164.165 35.4805 141.963 31.0372 137.784C30.5145 140.134 31.0372 144.052 30.2531 145.359ZM98.4709 134.91C100.562 134.388 104.221 134.127 105.789 135.172C109.187 134.91 111.017 134.388 114.937 134.388L115.199 125.246V122.372H103.698C102.914 124.462 102.914 126.813 101.869 129.164C100.823 131.515 99.5163 133.343 98.4709 134.91ZM44.1057 122.372C44.3671 122.372 47.2422 117.148 47.5036 116.887L44.1057 116.365V122.372ZM115.199 157.113C114.676 151.105 114.676 144.836 114.937 141.179C104.221 140.918 103.698 143.791 96.6413 152.411C92.9821 156.59 86.1864 161.553 77.8226 163.12C68.6746 164.949 59.5266 163.643 54.0378 158.941C48.549 154.239 46.7195 145.62 44.6285 138.828C44.6285 144.314 44.8899 153.456 46.4581 158.419C48.0263 163.643 57.4356 172.263 58.4811 178.793C60.0494 186.629 58.2198 190.547 63.4472 195.51C64.754 196.555 68.4132 199.689 69.9814 200.212L88.5388 182.711C90.6297 180.099 93.5048 178.793 94.2889 177.748C96.1185 175.92 95.073 175.397 99.7777 172.524C98.4709 175.136 96.6413 178.27 96.3799 181.666C97.164 181.927 97.6867 182.188 98.4709 181.927C99.5163 181.666 98.7322 180.882 100.039 181.144C100.3 181.144 103.437 182.45 103.96 182.711C107.619 184.278 111.278 185.062 115.199 184.8V157.113Z" fill="#F5A26C"/>
<path fill-rule="evenodd" clip-rule="evenodd" d="M129.313 82.4081C128.79 80.8409 119.119 67.5194 117.29 64.3849H112.585V42.7049C112.846 42.7049 112.846 42.7049 113.108 42.7049C120.426 42.7049 121.472 41.6601 124.608 46.8842C126.699 50.5411 128.006 53.6755 130.097 57.0712C133.233 61.7729 140.29 70.1315 144.734 74.0495C152.836 80.8409 153.882 83.1917 164.859 85.2814C170.087 86.3262 187.337 90.2442 191.258 89.983H192.303C185.246 87.1098 177.666 82.9305 170.609 79.796C166.689 77.9676 163.291 76.4004 160.416 74.3107C155.45 70.1315 149.177 63.3401 145.256 58.116C135.847 45.8394 132.711 41.9213 129.835 25.9878C159.632 31.2119 187.337 46.623 201.19 72.7435C202.758 75.6168 204.849 82.9305 205.894 84.7589V83.1917L206.417 89.4606L210.599 93.1175C212.167 94.6847 211.644 98.0804 211.383 100.954C209.815 118.454 206.678 113.23 213.997 119.76C215.304 120.805 216.611 122.895 217.656 124.723C220.531 130.731 218.44 133.866 215.565 137C227.065 121.328 191.78 110.357 178.973 107.223C159.109 102.26 135.324 100.954 114.415 100.954C113.892 100.954 113.369 100.954 112.846 100.954V91.5503H121.733L129.313 82.4081Z" fill="#FFC629"/>
<path fill-rule="evenodd" clip-rule="evenodd" d="M205.894 83.4529V85.0201C204.588 83.1917 202.497 75.8779 201.19 73.0047C187.337 46.8842 159.632 31.4731 129.836 26.249L127.222 14.4947L126.96 14.2335C126.96 13.9723 126.96 13.9723 126.699 13.9723C126.438 19.1964 127.222 25.9878 127.483 31.2119C127.745 37.4808 128.006 40.354 130.62 45.5781C135.063 54.4591 141.075 61.5117 147.347 68.8254C151.529 73.5271 158.064 80.8408 164.075 82.6693C172.7 85.2813 182.371 88.1546 190.996 90.5054C187.076 90.7666 169.564 86.5873 164.598 85.8037C153.62 83.7141 152.575 81.3632 144.472 74.5719C140.029 70.915 132.972 62.2953 129.836 57.5936C127.745 54.1979 126.438 51.0634 124.347 47.4066C121.21 42.1825 120.165 43.2273 112.846 43.2273C112.585 43.2273 112.585 43.2273 112.324 43.2273V0.912079C114.937 0.912079 117.813 1.17328 121.21 1.69569L146.302 9.79305C164.859 17.1068 186.553 30.4282 196.224 48.4514C201.713 58.3772 205.372 70.6538 205.894 83.4529Z" fill="white"/>
<path fill-rule="evenodd" clip-rule="evenodd" d="M174.007 110.096C164.075 111.402 154.666 112.708 144.472 113.491C134.017 114.275 123.563 114.536 112.846 114.536H112.324V104.611C125.654 104.611 139.245 104.872 144.995 105.394C149.961 105.917 154.927 106.439 159.893 107.223L172.962 109.573C174.269 110.096 173.484 109.835 174.007 110.096Z" fill="#FFC629"/>
<path fill-rule="evenodd" clip-rule="evenodd" d="M169.041 135.955C167.211 137.261 161.722 137.784 159.893 138.567C159.109 138.828 159.37 138.828 158.847 139.09L175.052 143.008C173.746 148.232 170.086 154.501 165.904 156.068C158.325 158.941 146.302 156.59 139.506 151.105C138.199 150.06 135.063 146.665 134.017 145.359L128.79 139.351C126.96 137.522 125.392 135.955 121.994 135.171C123.562 134.127 127.222 134.649 129.313 134.91C130.358 135.433 131.926 137.522 133.756 138.567C138.199 141.179 147.87 145.358 152.575 145.881L138.46 137C143.427 136.739 148.131 136.216 153.097 135.955C158.063 136.216 164.075 136.216 169.041 135.955Z" fill="white"/>
<path fill-rule="evenodd" clip-rule="evenodd" d="M129.313 82.4081L121.472 91.8115H112.585V64.6461H117.29C119.119 67.5194 128.79 80.8408 129.313 82.4081Z" fill="white"/>
<path fill-rule="evenodd" clip-rule="evenodd" d="M129.836 26.249C132.711 41.9213 135.847 46.1006 145.257 58.3772C149.177 63.6013 155.712 70.3927 160.416 74.5719C163.03 76.9228 166.689 78.49 170.61 80.0573C177.928 83.1917 185.246 87.371 192.303 90.2442H191.258C182.633 87.8934 172.962 85.2814 164.337 82.4081C158.325 80.5797 151.791 73.0047 147.609 68.5642C141.336 61.5117 135.063 54.1979 130.881 45.317C128.268 40.0929 128.006 37.4808 127.745 30.9507C127.484 25.7266 126.699 18.9353 126.961 13.7112L127.222 13.9724C127.222 14.2336 127.222 14.2336 127.484 14.2336L129.836 26.249Z" fill="#343D47"/>
<path fill-rule="evenodd" clip-rule="evenodd" d="M124.869 204.652C124.608 209.093 122.517 210.399 118.074 210.66C116.244 210.66 114.415 210.921 112.585 210.921V201.779C115.721 201.779 118.335 202.824 124.869 204.652Z" fill="#FCD7B8"/>
<path fill-rule="evenodd" clip-rule="evenodd" d="M112.585 210.66C114.414 210.66 116.244 210.399 118.074 210.399C122.517 210.399 124.608 208.831 124.869 204.391L144.211 210.921C143.949 216.406 138.983 219.28 133.494 220.063C126.699 221.108 122.517 217.451 116.767 216.668C114.937 216.406 113.369 216.406 112.062 216.406V210.66H112.585ZM174.791 143.008L158.847 139.09C159.37 138.567 159.109 138.828 159.893 138.567C161.722 137.784 167.473 137.261 169.041 135.955L169.564 135.433C166.427 133.865 165.904 131.776 163.552 129.686C161.2 127.597 158.847 127.335 155.972 125.768C157.279 123.156 160.677 121.328 163.552 120.544C167.995 119.499 176.882 122.895 177.405 125.768C177.927 128.903 175.836 140.134 174.791 143.008ZM197.269 145.359C197.792 143.008 198.053 135.694 198.053 133.082C197.792 125.768 194.917 129.686 190.735 129.425C190.735 127.335 190.473 127.335 190.996 125.507C190.996 125.246 191.519 124.201 191.519 123.94C193.871 119.238 199.36 123.94 201.189 130.731C203.542 139.612 199.098 150.583 198.053 160.77C197.53 165.21 195.962 171.218 191.78 171.218C191.78 164.165 192.041 141.963 196.485 137.784C197.269 140.134 196.485 144.052 197.269 145.359ZM129.051 134.91C126.96 134.388 123.301 134.127 121.733 135.172C118.335 134.91 116.505 134.388 112.585 134.388L112.323 125.246V122.372H123.824C124.608 124.462 124.608 126.813 125.653 129.164C126.699 131.515 128.006 133.343 129.051 134.91ZM183.416 122.372C183.155 122.372 180.28 117.148 180.018 116.887L183.416 116.365V122.372ZM112.585 157.113C113.107 151.105 113.107 144.836 112.846 141.179C123.562 140.918 124.085 143.791 131.142 152.411C134.801 156.59 141.597 161.553 149.961 163.12C159.109 164.949 168.257 163.643 173.745 158.941C179.234 154.239 181.064 145.62 183.155 138.828C183.155 144.314 182.893 153.456 181.325 158.419C179.757 163.643 170.348 172.263 169.302 178.793C167.734 186.629 169.564 190.547 164.336 195.51C163.029 196.555 159.37 199.689 157.802 200.212L139.245 182.711C137.154 180.099 134.279 178.793 133.494 177.748C131.665 175.92 132.71 175.397 128.006 172.524C129.312 175.136 131.142 178.27 131.403 181.666C130.619 181.927 130.097 182.188 129.312 181.927C128.267 181.666 129.051 180.882 127.744 181.144C127.483 181.144 124.346 182.45 123.824 182.711C120.165 184.278 116.505 185.062 112.585 184.8V157.113Z" fill="#F5A26C"/>
<path fill-rule="evenodd" clip-rule="evenodd" d="M40.4471 230.773L32.8674 249.579L0.196028 258.983C-0.0653427 258.983 -0.0653427 259.244 0.196028 259.244C9.86674 259.244 21.1057 259.766 34.697 262.117C61.0954 266.558 80.9596 276.745 81.7437 275.7C82.5278 274.655 56.3907 267.08 45.6745 248.012C42.0153 241.743 41.2312 235.474 40.9699 230.773C40.9699 230.773 40.7085 230.511 40.4471 230.773Z" fill="#FFC629"/>
<path fill-rule="evenodd" clip-rule="evenodd" d="M187.598 230.773L195.178 249.579L228.111 258.722C228.372 258.722 228.372 259.244 228.111 259.244C218.44 259.244 207.201 259.766 193.61 262.117C167.211 266.558 147.347 276.745 146.563 275.7C145.779 274.655 171.916 267.08 182.632 248.012C186.292 241.743 187.076 235.474 187.337 230.773C187.076 230.773 187.598 230.511 187.598 230.773Z" fill="#FFC629"/>
</svg>
